<svg width="400" height="292" viewBox="0 0 400 292" fill="none" xmlns="http://www.w3.org/2000/svg">
<path d="M12.3036 127.66L22.6736 129.87L49.0236 9.51L38.4836 7.29999L12.3036 127.66ZM53.1036 9.51L79.4536 129.87L89.8236 127.66L63.6436 7.29999L53.1036 9.51ZM65.3436 81.59L36.7836 81.59L36.7836 92.3L65.3436 92.3L65.3436 81.59ZM161.533 8.99999L150.823 8.99999L150.823 128L161.533 128L161.533 8.99999ZM143.173 104.2C136.713 104.2 130.706 102.613 125.153 99.44C119.713 96.1533 115.35 91.79 112.063 86.35C108.89 80.91 107.303 74.96 107.303 68.5C107.303 62.04 108.89 56.09 112.063 50.65C115.35 45.0967 119.713 40.7333 125.153 37.56C130.706 34.2733 136.713 32.63 143.173 32.63L143.173 21.92C134.673 21.92 126.853 24.0167 119.713 28.21C112.573 32.29 106.906 37.9 102.713 45.04C98.5197 52.18 96.4231 60 96.4231 68.5C96.4231 76.8867 98.5197 84.65 102.713 91.79C106.906 98.93 112.573 104.597 119.713 108.79C126.853 112.87 134.673 114.91 143.173 114.91L143.173 104.2ZM169.183 114.91C177.57 114.91 185.333 112.87 192.473 108.79C199.613 104.597 205.28 98.93 209.473 91.79C213.666 84.65 215.763 76.8867 215.763 68.5C215.763 60 213.666 52.18 209.473 45.04C205.28 37.9 199.613 32.29 192.473 28.21C185.333 24.0167 177.57 21.92 169.183 21.92L169.183 32.63C175.643 32.63 181.593 34.2733 187.033 37.56C192.586 40.7333 196.95 45.0967 200.123 50.65C203.41 56.09 205.053 62.04 205.053 68.5C205.053 74.96 203.41 80.91 200.123 86.35C196.95 91.79 192.586 96.1533 187.033 99.44C181.593 102.613 175.643 104.2 169.183 104.2L169.183 114.91Z" fill="black"/>
<path d="M22.44 137L11.73 137L11.73 256L22.44 256L22.44 137ZM30.09 201.77C35.9833 201.77 41.3667 200.353 46.24 197.52C51.2267 194.573 55.1367 190.607 57.97 185.62C60.9167 180.633 62.39 175.25 62.39 169.47C62.39 163.577 60.9167 158.193 57.97 153.32C55.1367 148.333 51.2267 144.367 46.24 141.42C41.3667 138.473 35.9833 137 30.09 137L30.09 147.88C33.9433 147.88 37.5133 148.9 40.8 150.94C44.0867 152.867 46.6933 155.473 48.62 158.76C50.66 162.047 51.68 165.617 51.68 169.47C51.68 173.323 50.66 176.893 48.62 180.18C46.6933 183.467 44.0867 186.13 40.8 188.17C37.5133 190.097 33.9433 191.06 30.09 191.06L30.09 201.77ZM90.5064 137L79.7964 137L79.7964 256L90.5064 256L90.5064 137ZM153.406 137L142.696 137L142.696 256L153.406 256L153.406 137ZM139.126 154L129.096 150.09L94.4164 237.47L104.616 241.55L139.126 154ZM194.256 174.06L201.566 181.54L243.896 140.57L236.586 133.09L194.256 174.06ZM187.456 137L176.916 137L176.916 256L187.456 256L187.456 137ZM202.076 186.47L193.746 192.93L243.726 257.87L252.056 251.41L202.076 186.47ZM253.692 255.66L264.062 257.87L290.412 137.51L279.872 135.3L253.692 255.66ZM294.492 137.51L320.842 257.87L331.212 255.66L305.032 135.3L294.492 137.51ZM306.732 209.59L278.172 209.59L278.172 220.3L306.732 220.3L306.732 209.59Z" fill="black"/>
</svg>
