<svg width="740" height="851" viewBox="0 0 740 851" fill="none" xmlns="http://www.w3.org/2000/svg">
<path d="M0 432.913H15.7936L37.2155 0.959905L0 0V432.913ZM69.779 237.734H32.1615L29.744 286.262H69.779V237.734Z" fill="black"/>
<path d="M37.3303 632.891L93.0386 641.956L123.764 441.978H55.4212L37.3303 632.891ZM37.3303 441.978H0.861469V851H29.744L37.3303 441.978ZM95.9102 661.154L37.3303 651.555L68.6304 851H121.467L95.9102 661.154Z" fill="black"/>
<path d="M273.086 851H292.038L310.703 441.978H273.086V851ZM310.703 441.978L339.993 851H443.774L415.791 441.978H310.703ZM335.973 688.884L307.257 687.285V726H333.963L335.973 688.884Z" fill="black"/>
<path d="M492.634 441.978V571.739L611.39 579.733V706.573H503.143L520.947 851H457.198L433.939 441.978H492.634ZM499.698 441.978H583.972L562.208 513.97H499.698V441.978Z" fill="black"/>
<path d="M740 440.005H598.766L575.22 503.305H740V440.005ZM714.561 519.303H628.35V851H714.561V519.303Z" fill="black"/>
<path d="M226.32 608.481C246.736 608.909 258.412 578.683 258.637 540.492C259.985 466.476 206.722 441.993 186.307 441.564C152.64 441.564 127.424 522.39 127.201 560.217L146.704 848.622L194.756 848.622L179.742 574.763C186.033 585.809 217.076 608.286 226.32 608.481ZM186.364 464.482C199.846 464.765 241.776 506.13 241.628 531.226C241.477 556.687 239.938 585.85 226.456 585.566C213.359 585.291 161.676 535.261 161.826 509.801C161.974 484.704 173.268 464.207 186.364 464.482ZM234.328 630.052L194.756 630.052L208.041 848.622L258.637 848.622L234.328 630.052Z" fill="black"/>
</svg>
