<svg width="345" height="274" viewBox="0 0 345 274" fill="none" xmlns="http://www.w3.org/2000/svg">
<path d="M20.44 1.99999L9.73 1.99999L9.73 121L20.44 121L20.44 1.99999ZM28.09 66.77C33.9833 66.77 39.3667 65.3533 44.24 62.52C49.2267 59.5733 53.1367 55.6067 55.97 50.62C58.9167 45.6333 60.39 40.25 60.39 34.47C60.39 28.5767 58.9167 23.1933 55.97 18.32C53.1367 13.3333 49.2267 9.36667 44.24 6.42C39.3667 3.47333 33.9833 1.99999 28.09 1.99999L28.09 12.88C31.9433 12.88 35.5133 13.9 38.8 15.94C42.0867 17.8667 44.6933 20.4733 46.62 23.76C48.66 27.0467 49.68 30.6167 49.68 34.47C49.68 38.3233 48.66 41.8933 46.62 45.18C44.6933 48.4667 42.0867 51.13 38.8 53.17C35.5133 55.0967 31.9433 56.06 28.09 56.06L28.09 66.77ZM102.786 0.639999C108.566 0.639999 113.893 2.11333 118.766 5.05999C123.64 7.89333 127.493 11.8033 130.326 16.79C133.273 21.6633 134.746 26.99 134.746 32.77L134.746 121L124.036 121L124.036 56.91C121.203 59.5167 117.916 61.5567 114.176 63.03C110.55 64.39 106.696 65.07 102.616 65.07C96.7231 65.07 91.2831 63.6533 86.2964 60.82C81.4231 57.8733 77.5131 53.9633 74.5664 49.09C71.7331 44.1033 70.3164 38.6633 70.3164 32.77C70.3164 26.99 71.7331 21.6633 74.5664 16.79C77.5131 11.8033 81.4797 7.89333 86.4664 5.05999C91.4531 2.11333 96.8931 0.639999 102.786 0.639999ZM102.616 54.36C106.47 54.36 110.04 53.3967 113.326 51.47C116.613 49.5433 119.22 46.9367 121.146 43.65C123.073 40.25 124.036 36.6233 124.036 32.77C124.036 28.9167 123.016 25.3467 120.976 22.06C119.05 18.7733 116.443 16.1667 113.156 14.24C109.87 12.3133 106.356 11.35 102.616 11.35C98.7631 11.35 95.1364 12.3133 91.7364 14.24C88.4497 16.1667 85.8431 18.7733 83.9164 22.06C81.9897 25.3467 81.0264 28.9167 81.0264 32.77C81.0264 36.6233 81.9897 40.25 83.9164 43.65C85.8431 46.9367 88.4497 49.5433 91.7364 51.47C95.1364 53.3967 98.7631 54.36 102.616 54.36ZM66.9164 116.92L111.286 69.15L118.936 76.29L74.5664 124.06L66.9164 116.92ZM60.22 135.91L50.19 132L11.26 229.75L21.29 233.66L60.22 135.91ZM75.52 132L64.81 132L64.81 232.64L75.52 232.64L75.52 132ZM86.23 240.29L0.55 240.29L0.55 273.95L11.26 273.95L11.26 251L75.52 251L75.52 273.95L86.23 273.95L86.23 240.29ZM159.285 252.87C170.392 252.87 180.648 250.15 190.055 244.71C199.462 239.157 206.885 231.677 212.325 222.27C217.878 212.863 220.655 202.607 220.655 191.5C220.655 180.393 217.878 170.137 212.325 160.73C206.885 151.323 199.462 143.9 190.055 138.46C180.648 132.907 170.392 130.13 159.285 130.13C148.178 130.13 137.865 132.793 128.345 138.12C118.938 143.333 111.458 150.587 105.905 159.88C100.465 169.06 97.7448 179.26 97.7448 190.48C97.7448 201.7 100.522 212.127 106.075 221.76C111.628 231.28 119.108 238.873 128.515 244.54C137.922 250.093 148.178 252.87 159.285 252.87ZM159.285 141.01C168.465 141.01 176.908 143.333 184.615 147.98C192.322 152.513 198.442 158.633 202.975 166.34C207.508 174.047 209.775 182.433 209.775 191.5C209.775 200.68 207.508 209.123 202.975 216.83C198.442 224.537 192.322 230.657 184.615 235.19C176.908 239.723 168.465 241.99 159.285 241.99C150.105 241.99 141.662 239.723 133.955 235.19C126.248 230.657 120.128 224.537 115.595 216.83C111.062 209.123 108.795 200.68 108.795 191.5C108.795 182.433 111.062 174.047 115.595 166.34C120.128 158.633 126.248 152.513 133.955 147.98C141.662 143.333 150.105 141.01 159.285 141.01ZM289.678 250.66L263.328 129.79L252.958 132L279.138 252.87L289.678 250.66ZM330.478 132L320.107 129.79L293.758 250.66L304.298 252.87L330.478 132ZM238.168 132L238.168 251L248.877 251L248.877 132L238.168 132ZM334.218 132L334.218 251L344.928 251L344.928 132L334.218 132Z" fill="black"/>
</svg>
