<svg width="368" height="246" viewBox="0 0 368 246" fill="none" xmlns="http://www.w3.org/2000/svg">
<path d="M30.3007 114.421L76.5867 119.807L102.116 1H45.3317L30.3007 114.421ZM30.3007 1H0V244H23.9975L30.3007 1ZM78.9726 131.213L30.3007 125.51L56.3067 244H100.207L78.9726 131.213Z" fill="black"/>
<path d="M226.181 244H241.928L257.436 1H226.181V244ZM257.436 1L281.772 244H368L344.75 1H257.436ZM278.432 147.687L254.573 146.737V169.738H276.762L278.432 147.687Z" fill="black"/>
<path d="M189.057 100.314C208.834 100.514 220.194 82.3995 220.474 59.5527C221.899 15.2714 170.341 0.772211 150.564 0.572183C117.949 0.665364 93.3902 49.0868 93.1127 71.716L111.541 244.191L158.091 244.058L143.988 80.2728C150.065 86.8627 180.102 100.223 189.057 100.314ZM150.582 14.2822C163.642 14.4142 204.195 39.0431 204.011 54.0568C203.824 69.288 202.285 86.738 189.225 86.6059C176.538 86.4776 126.551 56.6918 126.738 41.4606C126.922 26.447 137.895 14.1538 150.582 14.2822ZM196.78 113.196L158.444 113.306L170.961 244.021L219.976 243.881L196.78 113.196Z" fill="black"/>
</svg>
