<svg width="923" height="223" viewBox="0 0 923 223" fill="none" xmlns="http://www.w3.org/2000/svg">
<path d="M0.5 216.4L18.8 220.3L65.3 7.89999L46.7 3.99999L0.5 216.4ZM72.5 7.89999L119 220.3L137.3 216.4L91.1 3.99999L72.5 7.89999ZM94.1 135.1L43.7 135.1L43.7 154L94.1 154L94.1 135.1ZM178.346 6.99999L178.346 85L242.246 85L242.246 103.9L178.346 103.9L178.346 217L159.446 217L159.446 6.99999L178.346 6.99999ZM191.846 6.99999L242.246 6.99999L242.246 25.9L191.846 25.9L191.846 6.99999ZM303.425 72.4L316.325 85.6L391.025 13.3L378.125 0.0999851L303.425 72.4ZM291.425 6.99999L272.825 6.99999L272.825 217L291.425 217L291.425 6.99999ZM317.225 94.3L302.525 105.7L390.725 220.3L405.425 208.9L317.225 94.3ZM484.213 118.3C477.013 118.3 470.113 117.1 463.513 114.7C457.113 112.1 451.413 108.5 446.412 103.9L446.412 217L427.513 217L427.513 61.3C427.513 51.1 430.013 41.7 435.013 33.1C440.213 24.3 447.113 17.4 455.713 12.4C464.313 7.2 473.713 4.6 483.912 4.6C494.313 4.6 503.913 7.2 512.713 12.4C521.513 17.4 528.413 24.3 533.413 33.1C538.613 41.7 541.213 51.1 541.213 61.3C541.213 71.7 538.613 81.3 533.413 90.1C528.413 98.7 521.513 105.6 512.713 110.8C504.113 115.8 494.613 118.3 484.213 118.3ZM484.213 23.5C477.613 23.5 471.413 25.2 465.613 28.6C459.813 32 455.113 36.6 451.513 42.4C448.113 48.2 446.412 54.5 446.412 61.3C446.412 68.1 448.113 74.5 451.513 80.5C454.913 86.3 459.513 90.9 465.313 94.3C471.113 97.7 477.413 99.4 484.213 99.4C491.013 99.4 497.313 97.7 503.113 94.3C509.113 90.9 513.813 86.3 517.213 80.5C520.613 74.5 522.313 68.1 522.313 61.3C522.313 54.5 520.613 48.2 517.213 42.4C513.813 36.6 509.113 32 503.113 28.6C497.313 25.2 491.013 23.5 484.213 23.5ZM468.913 125.5L547.213 209.8L533.713 222.4L455.413 138.1L468.913 125.5ZM550.109 216.4L568.409 220.3L614.909 7.89999L596.309 3.99999L550.109 216.4ZM622.109 7.89999L668.609 220.3L686.909 216.4L640.709 3.99999L622.109 7.89999ZM643.709 135.1L593.309 135.1L593.309 154L643.709 154L643.709 135.1ZM727.955 6.99999L727.955 85L791.855 85L791.855 103.9L727.955 103.9L727.955 217L709.055 217L709.055 6.99999L727.955 6.99999ZM741.455 6.99999L791.855 6.99999L791.855 25.9L741.455 25.9L741.455 6.99999ZM922.034 6.99999L806.234 6.99999L806.234 25.9L922.034 25.9L922.034 6.99999ZM873.734 39.4L854.834 39.4L854.834 217L873.734 217L873.734 39.4Z" fill="black"/>
</svg>
