<svg width="255" height="164" viewBox="0 0 255 164" fill="none" xmlns="http://www.w3.org/2000/svg">
<rect x="21" y="11" width="234" height="153" fill="black"/>
<path d="M40.39 33.45L48.82 24L53.38 24L44.08 33.69L54.16 45L49.3 45L40.39 34.11L40.39 45L36.55 45L36.55 24L40.39 24L40.39 33.45ZM59.1859 29.76C60.1459 29.36 61.2459 29.16 62.4859 29.16C63.7259 29.16 64.8259 29.36 65.7859 29.76C66.7459 30.14 67.5059 30.62 68.0659 31.2C68.6259 31.78 69.0859 32.46 69.4459 33.24C69.8059 34.02 70.0459 34.74 70.1659 35.4C70.2859 36.06 70.3459 36.72 70.3459 37.38C70.3459 38.04 70.2859 38.7 70.1659 39.36C70.0459 40.02 69.8059 40.74 69.4459 41.52C69.0859 42.3 68.6259 42.98 68.0659 43.56C67.5059 44.14 66.7459 44.62 65.7859 45C64.8259 45.4 63.7259 45.6 62.4859 45.6C61.2459 45.6 60.1459 45.4 59.1859 45C58.2259 44.62 57.4659 44.14 56.9059 43.56C56.3459 42.98 55.8859 42.31 55.5259 41.55C55.1659 40.77 54.9259 40.05 54.8059 39.39C54.6859 38.71 54.6259 38.04 54.6259 37.38C54.6259 36.72 54.6859 36.06 54.8059 35.4C54.9259 34.74 55.1659 34.02 55.5259 33.24C55.8859 32.46 56.3459 31.78 56.9059 31.2C57.4659 30.62 58.2259 30.14 59.1859 29.76ZM63.6859 31.8C63.3059 31.68 62.9059 31.62 62.4859 31.62C62.0659 31.62 61.6659 31.68 61.2859 31.8C60.9059 31.92 60.4759 32.16 59.9959 32.52C59.5359 32.88 59.1659 33.48 58.8859 34.32C58.6059 35.14 58.4659 36.16 58.4659 37.38C58.4659 38.6 58.6059 39.63 58.8859 40.47C59.1659 41.29 59.5359 41.88 59.9959 42.24C60.4759 42.6 60.9059 42.84 61.2859 42.96C61.6659 43.08 62.0659 43.14 62.4859 43.14C62.9059 43.14 63.3059 43.08 63.6859 42.96C64.0659 42.84 64.4859 42.6 64.9459 42.24C65.4259 41.88 65.8059 41.29 66.0859 40.47C66.3659 39.63 66.5059 38.6 66.5059 37.38C66.5059 36.16 66.3659 35.14 66.0859 34.32C65.8059 33.48 65.4259 32.88 64.9459 32.52C64.4859 32.16 64.0659 31.92 63.6859 31.8ZM77.4065 38.22L77.4065 45L73.8065 45L73.8065 29.76L77.4065 29.76L77.4065 35.76L84.0065 35.76L84.0065 29.76L87.6065 29.76L87.6065 45L84.0065 45L84.0065 38.22L77.4065 38.22ZM95.512 32.22L95.512 45L91.912 45L91.912 29.76L103.012 29.76L103.012 32.22L95.512 32.22ZM108.639 29.76C109.599 29.36 110.699 29.16 111.939 29.16C113.179 29.16 114.279 29.36 115.239 29.76C116.199 30.14 116.959 30.62 117.519 31.2C118.079 31.78 118.539 32.46 118.899 33.24C119.259 34.02 119.499 34.74 119.619 35.4C119.739 36.06 119.799 36.72 119.799 37.38C119.799 38.04 119.739 38.7 119.619 39.36C119.499 40.02 119.259 40.74 118.899 41.52C118.539 42.3 118.079 42.98 117.519 43.56C116.959 44.14 116.199 44.62 115.239 45C114.279 45.4 113.179 45.6 111.939 45.6C110.699 45.6 109.599 45.4 108.639 45C107.679 44.62 106.919 44.14 106.359 43.56C105.799 42.98 105.339 42.31 104.979 41.55C104.619 40.77 104.379 40.05 104.259 39.39C104.139 38.71 104.079 38.04 104.079 37.38C104.079 36.72 104.139 36.06 104.259 35.4C104.379 34.74 104.619 34.02 104.979 33.24C105.339 32.46 105.799 31.78 106.359 31.2C106.919 30.62 107.679 30.14 108.639 29.76ZM113.139 31.8C112.759 31.68 112.359 31.62 111.939 31.62C111.519 31.62 111.119 31.68 110.739 31.8C110.359 31.92 109.929 32.16 109.449 32.52C108.989 32.88 108.619 33.48 108.339 34.32C108.059 35.14 107.919 36.16 107.919 37.38C107.919 38.6 108.059 39.63 108.339 40.47C108.619 41.29 108.989 41.88 109.449 42.24C109.929 42.6 110.359 42.84 110.739 42.96C111.119 43.08 111.519 43.14 111.939 43.14C112.359 43.14 112.759 43.08 113.139 42.96C113.519 42.84 113.939 42.6 114.399 42.24C114.879 41.88 115.259 41.29 115.539 40.47C115.819 39.63 115.959 38.6 115.959 37.38C115.959 36.16 115.819 35.14 115.539 34.32C115.259 33.48 114.879 32.88 114.399 32.52C113.939 32.16 113.519 31.92 113.139 31.8Z" fill="white"/>
<path d="M33.06 65.84H34.54C34.5933 66.84 34.9467 67.64 35.6 68.24C36.2533 68.8533 37.2667 69.16 38.64 69.16C39.9867 69.16 40.9867 68.8333 41.64 68.18C42.2 67.62 42.48 66.9067 42.48 66.04C42.48 65.4133 42.3533 64.9067 42.1 64.52C41.86 64.1333 41.5867 63.8533 41.28 63.68C40.7333 63.3733 39.9867 63.22 39.04 63.22H37.24V61.96H38.9C39.9267 61.96 40.7 61.74 41.22 61.3C41.6867 60.8867 41.92 60.3 41.92 59.54C41.92 58.6067 41.56 57.9 40.84 57.42C40.24 57.0333 39.4533 56.84 38.48 56.84C37.36 56.84 36.52 57.0533 35.96 57.48C35.2667 58.0133 34.8933 58.7533 34.84 59.7H33.36C33.4 58.5667 33.8067 57.6133 34.58 56.84C35.46 56 36.78 55.58 38.54 55.58C40.2067 55.58 41.48 55.9733 42.36 56.76C43.0667 57.44 43.42 58.32 43.42 59.4C43.42 60.3333 43.16 61.0733 42.64 61.62C42.2 62.06 41.66 62.3533 41.02 62.5V62.54C41.8333 62.62 42.5067 62.94 43.04 63.5C43.68 64.18 44 65.02 44 66.02C44 67.34 43.5867 68.3867 42.76 69.16C41.88 70 40.4933 70.42 38.6 70.42C36.6933 70.42 35.28 69.9467 34.36 69C33.5467 68.1467 33.1133 67.0933 33.06 65.84ZM51.2403 59.44C52.6136 59.44 53.7203 59.8333 54.5603 60.62C55.587 61.5933 56.1003 63.0267 56.1003 64.92C56.1003 66.8267 55.5603 68.28 54.4803 69.28C53.667 70.0267 52.5936 70.4 51.2603 70.4C49.847 70.4 48.7536 70.0267 47.9803 69.28C47.5403 68.9067 47.1603 68.3533 46.8403 67.62C46.5336 66.8867 46.3803 65.9867 46.3803 64.92C46.3803 63.08 46.8936 61.6467 47.9203 60.62C48.707 59.8333 49.8136 59.44 51.2403 59.44ZM51.2403 60.42C50.2936 60.42 49.5403 60.7 48.9803 61.26C48.207 62.0333 47.8203 63.2467 47.8203 64.9C47.8203 66.6067 48.2336 67.8467 49.0603 68.62C49.6336 69.14 50.3603 69.4 51.2403 69.4C52.147 69.4 52.867 69.1467 53.4003 68.64C54.227 67.88 54.6403 66.6333 54.6403 64.9C54.6403 63.3133 54.287 62.1333 53.5803 61.36C52.9803 60.7333 52.2003 60.42 51.2403 60.42ZM60.1163 65.12V70H58.7363V59.84H60.1163V64.12H65.5163V59.84H66.8963V70H65.5163V65.12H60.1163ZM71.1644 62.76H69.8244C69.8244 61.64 70.2644 60.7667 71.1444 60.14C71.811 59.6733 72.7644 59.44 74.0044 59.44C75.3644 59.44 76.3577 59.7533 76.9844 60.38C77.5577 60.9533 77.831 61.7467 77.8044 62.76L77.6844 67.82C77.6844 68.3 77.751 68.6133 77.8844 68.76C78.111 69.0267 78.4177 69.1067 78.8044 69V70C78.6444 70.0533 78.3977 70.08 78.0644 70.08C77.531 70.08 77.1377 69.9533 76.8844 69.7C76.5644 69.38 76.4177 68.94 76.4444 68.38C76.0977 68.9533 75.6577 69.3867 75.1244 69.68C74.471 70.0533 73.6777 70.24 72.7444 70.24C71.6377 70.24 70.8044 69.9667 70.2444 69.42C69.6844 68.9 69.4044 68.1867 69.4044 67.28C69.4044 66.4933 69.651 65.8533 70.1444 65.36C70.7044 64.8 71.7777 64.4333 73.3644 64.26L74.0244 64.18C74.131 64.1667 74.3444 64.1467 74.6644 64.12C74.9844 64.08 75.2244 64.0467 75.3844 64.02C75.7844 63.9533 76.051 63.8533 76.1844 63.72C76.3444 63.5467 76.4244 63.22 76.4244 62.74C76.4244 61.9667 76.2177 61.3867 75.8044 61C75.3777 60.6267 74.7377 60.44 73.8844 60.44C72.911 60.44 72.2177 60.6467 71.8044 61.06C71.4044 61.46 71.191 62.0267 71.1644 62.76ZM76.3444 65.66L76.3844 64.62C76.211 64.78 75.9444 64.8933 75.5844 64.96C75.1577 65.04 74.5577 65.1133 73.7844 65.18L73.3844 65.22C72.371 65.34 71.6844 65.5733 71.3244 65.92C71.0044 66.24 70.8444 66.7 70.8444 67.3C70.8444 67.86 71.0177 68.3133 71.3644 68.66C71.711 69.0467 72.2444 69.24 72.9644 69.24C73.8444 69.24 74.571 69.0067 75.1444 68.54C75.8777 67.94 76.2777 66.98 76.3444 65.66ZM89.2056 65.86L86.5856 70H85.0656L87.8056 65.84C87.099 65.7467 86.5256 65.48 86.0856 65.04C85.539 64.52 85.2656 63.82 85.2656 62.94C85.2656 61.9933 85.5256 61.2533 86.0456 60.72C86.6056 60.1333 87.439 59.84 88.5456 59.84H93.3456V70H91.9656V65.86H89.2056ZM91.9656 60.84H89.1656C88.8456 60.84 88.599 60.8467 88.4256 60.86C88.2656 60.8733 88.0723 60.92 87.8456 61C87.619 61.08 87.419 61.2067 87.2456 61.38C86.8723 61.7267 86.6856 62.22 86.6856 62.86C86.6856 63.46 86.8656 63.9267 87.2256 64.26C87.6256 64.66 88.3056 64.86 89.2656 64.86H91.9656V60.84ZM96.5097 59.84H97.8297V61.34H97.8697C98.1897 60.86 98.6097 60.4267 99.1297 60.04C99.743 59.64 100.463 59.44 101.29 59.44C102.503 59.44 103.503 59.8067 104.29 60.54C105.276 61.5267 105.77 62.9533 105.77 64.82C105.77 66.5133 105.39 67.8667 104.63 68.88C103.883 69.8933 102.823 70.4 101.45 70.4C100.556 70.4 99.803 70.2133 99.1897 69.84C98.6564 69.5067 98.223 69.04 97.8897 68.44V73.7H96.5097V59.84ZM97.8097 64.96C97.8097 66.52 98.1964 67.6867 98.9697 68.46C99.5697 69.0867 100.323 69.4 101.23 69.4C101.99 69.4 102.643 69.1267 103.19 68.58C103.95 67.78 104.33 66.54 104.33 64.86C104.33 63.2333 103.93 62.02 103.13 61.22C102.61 60.7 101.93 60.44 101.09 60.44C100.316 60.44 99.6297 60.7067 99.0297 61.24C98.2164 61.9733 97.8097 63.2133 97.8097 64.96ZM113.424 70L109.784 61.46H109.744L109.784 62V70H108.404V59.84H110.304L114.004 68.5L117.704 59.84H119.624V70H118.244V62L118.284 61.46H118.244L114.584 70H113.424ZM123.879 62.76H122.539C122.539 61.64 122.979 60.7667 123.859 60.14C124.526 59.6733 125.479 59.44 126.719 59.44C128.079 59.44 129.073 59.7533 129.699 60.38C130.273 60.9533 130.546 61.7467 130.519 62.76L130.399 67.82C130.399 68.3 130.466 68.6133 130.599 68.76C130.826 69.0267 131.133 69.1067 131.519 69V70C131.359 70.0533 131.113 70.08 130.779 70.08C130.246 70.08 129.853 69.9533 129.599 69.7C129.279 69.38 129.133 68.94 129.159 68.38C128.813 68.9533 128.373 69.3867 127.839 69.68C127.186 70.0533 126.393 70.24 125.459 70.24C124.353 70.24 123.519 69.9667 122.959 69.42C122.399 68.9 122.119 68.1867 122.119 67.28C122.119 66.4933 122.366 65.8533 122.859 65.36C123.419 64.8 124.493 64.4333 126.079 64.26L126.739 64.18C126.846 64.1667 127.059 64.1467 127.379 64.12C127.699 64.08 127.939 64.0467 128.099 64.02C128.499 63.9533 128.766 63.8533 128.899 63.72C129.059 63.5467 129.139 63.22 129.139 62.74C129.139 61.9667 128.933 61.3867 128.519 61C128.093 60.6267 127.453 60.44 126.599 60.44C125.626 60.44 124.933 60.6467 124.519 61.06C124.119 61.46 123.906 62.0267 123.879 62.76ZM129.059 65.66L129.099 64.62C128.926 64.78 128.659 64.8933 128.299 64.96C127.873 65.04 127.273 65.1133 126.499 65.18L126.099 65.22C125.086 65.34 124.399 65.5733 124.039 65.92C123.719 66.24 123.559 66.7 123.559 67.3C123.559 67.86 123.733 68.3133 124.079 68.66C124.426 69.0467 124.959 69.24 125.679 69.24C126.559 69.24 127.286 69.0067 127.859 68.54C128.593 67.94 128.993 66.98 129.059 65.66ZM133.893 59.84H135.213V61.34H135.252C135.573 60.86 135.993 60.4267 136.513 60.04C137.126 59.64 137.846 59.44 138.673 59.44C139.886 59.44 140.886 59.8067 141.673 60.54C142.659 61.5267 143.153 62.9533 143.153 64.82C143.153 66.5133 142.773 67.8667 142.013 68.88C141.266 69.8933 140.206 70.4 138.833 70.4C137.939 70.4 137.186 70.2133 136.573 69.84C136.039 69.5067 135.606 69.04 135.273 68.44V73.7H133.893V59.84ZM135.193 64.96C135.193 66.52 135.579 67.6867 136.353 68.46C136.953 69.0867 137.706 69.4 138.613 69.4C139.373 69.4 140.026 69.1267 140.573 68.58C141.333 67.78 141.713 66.54 141.713 64.86C141.713 63.2333 141.313 62.02 140.513 61.22C139.993 60.7 139.313 60.44 138.473 60.44C137.699 60.44 137.013 60.7067 136.413 61.24C135.599 61.9733 135.193 63.2133 135.193 64.96ZM147.167 64.4L151.787 59.84H153.427L148.527 64.56L153.727 70H152.007L147.167 64.82V70H145.787V59.84H147.167V64.4ZM156.679 68.4L162.299 59.84H163.859V70H162.479V61.42L156.879 70H155.299V59.84H156.679V68.4ZM167.638 70V68.12H169.238V70H167.638ZM177.162 65.84H178.642C178.695 66.84 179.048 67.64 179.702 68.24C180.355 68.8533 181.368 69.16 182.742 69.16C184.088 69.16 185.088 68.8333 185.742 68.18C186.302 67.62 186.582 66.9067 186.582 66.04C186.582 65.4133 186.455 64.9067 186.202 64.52C185.962 64.1333 185.688 63.8533 185.382 63.68C184.835 63.3733 184.088 63.22 183.142 63.22H181.342V61.96H183.002C184.028 61.96 184.802 61.74 185.322 61.3C185.788 60.8867 186.022 60.3 186.022 59.54C186.022 58.6067 185.662 57.9 184.942 57.42C184.342 57.0333 183.555 56.84 182.582 56.84C181.462 56.84 180.622 57.0533 180.062 57.48C179.368 58.0133 178.995 58.7533 178.942 59.7H177.462C177.502 58.5667 177.908 57.6133 178.682 56.84C179.562 56 180.882 55.58 182.642 55.58C184.308 55.58 185.582 55.9733 186.462 56.76C187.168 57.44 187.522 58.32 187.522 59.4C187.522 60.3333 187.262 61.0733 186.742 61.62C186.302 62.06 185.762 62.3533 185.122 62.5V62.54C185.935 62.62 186.608 62.94 187.142 63.5C187.782 64.18 188.102 65.02 188.102 66.02C188.102 67.34 187.688 68.3867 186.862 69.16C185.982 70 184.595 70.42 182.702 70.42C180.795 70.42 179.382 69.9467 178.462 69C177.648 68.1467 177.215 67.0933 177.162 65.84ZM189.502 69H190.722C191.295 68.08 191.715 67.1867 191.982 66.32C192.115 65.8933 192.215 65.4133 192.282 64.88C192.349 64.3333 192.382 63.8533 192.382 63.44C192.395 63.0133 192.402 62.3667 192.402 61.5V59.84H199.302V69H201.062L200.962 72.64H199.762V70H190.822V72.64H189.622L189.502 69ZM197.922 60.84H193.702V62.36C193.702 63.8933 193.562 65.2133 193.282 66.32C193.015 67.3067 192.635 68.2 192.142 69H197.922V60.84ZM210.239 67.06H211.559C211.385 67.8867 211.019 68.6067 210.459 69.22C209.699 70.0067 208.619 70.4 207.219 70.4C205.752 70.4 204.605 70.0067 203.779 69.22C202.779 68.2467 202.279 66.8 202.279 64.88C202.279 63.04 202.745 61.6533 203.679 60.72C204.532 59.8667 205.679 59.44 207.119 59.44C208.505 59.44 209.585 59.84 210.359 60.64C210.865 61.16 211.199 61.7733 211.359 62.48C211.532 63.1867 211.639 64.0867 211.679 65.18H203.719C203.772 66.62 204.132 67.6933 204.799 68.4C205.399 69.0667 206.225 69.4 207.279 69.4C208.145 69.4 208.845 69.1467 209.379 68.64C209.739 68.32 210.025 67.7933 210.239 67.06ZM207.099 60.44C206.059 60.44 205.245 60.7667 204.659 61.42C204.032 62.14 203.719 63.06 203.719 64.18H210.219C210.219 63.7133 210.132 63.1867 209.959 62.6C209.785 62.0133 209.545 61.5667 209.239 61.26C208.719 60.7133 208.005 60.44 207.099 60.44ZM221.562 66.44H222.882C222.762 67.6533 222.322 68.64 221.562 69.4C221.149 69.8133 220.709 70.08 220.242 70.2C219.789 70.3333 219.249 70.4 218.622 70.4C217.209 70.4 216.116 70.0267 215.342 69.28C214.316 68.2933 213.802 66.8067 213.802 64.82C213.802 63.0467 214.236 61.6933 215.102 60.76C215.876 59.88 217.022 59.44 218.542 59.44C219.876 59.44 220.909 59.7933 221.642 60.5C222.269 61.1267 222.649 61.9267 222.782 62.9H221.462C221.396 62.2733 221.162 61.74 220.762 61.3C220.256 60.7267 219.549 60.44 218.642 60.44C217.696 60.44 216.922 60.74 216.322 61.34C215.616 62.0467 215.262 63.1933 215.262 64.78C215.262 66.4733 215.669 67.7267 216.482 68.54C217.056 69.1133 217.776 69.4 218.642 69.4C219.509 69.4 220.182 69.1467 220.662 68.64C221.196 68.0667 221.496 67.3333 221.562 66.44ZM225.26 59.84H226.64V63.94H229.4C230.586 63.94 231.44 64.0933 231.96 64.4C232.84 64.92 233.28 65.76 233.28 66.92C233.28 67.84 233.013 68.5667 232.48 69.1C231.88 69.7 230.98 70 229.78 70H225.26V59.84ZM226.64 64.94V69H229.32C230.066 69 230.633 68.8733 231.02 68.62C231.58 68.2733 231.86 67.7133 231.86 66.94C231.86 66.3 231.686 65.82 231.34 65.5C230.966 65.1267 230.34 64.94 229.46 64.94H226.64ZM33.58 83.84H38.04C38.6667 83.84 39.16 83.8867 39.52 83.98C39.8933 84.06 40.24 84.26 40.56 84.58C41 85.02 41.22 85.58 41.22 86.26C41.22 86.9933 40.98 87.5867 40.5 88.04C40.2067 88.32 39.8533 88.5133 39.44 88.62V88.66C40.1067 88.8467 40.6067 89.1067 40.94 89.44C41.38 89.88 41.6 90.48 41.6 91.24C41.6 92.04 41.3533 92.6867 40.86 93.18C40.3 93.7267 39.34 94 37.98 94H33.58V83.84ZM34.96 84.84V88.18H37.62C38.4467 88.18 39.04 87.9867 39.4 87.6C39.68 87.3067 39.82 86.9067 39.82 86.4C39.82 85.9733 39.6933 85.6267 39.44 85.36C39.1067 85.0133 38.5333 84.84 37.72 84.84H34.96ZM34.96 89.18V93H37.72C38.6533 93 39.3 92.82 39.66 92.46C40.0067 92.1133 40.18 91.6533 40.18 91.08C40.18 90.5467 40.02 90.12 39.7 89.8C39.3133 89.3867 38.6333 89.18 37.66 89.18H34.96ZM44.2831 83.84H45.6631V87.92H48.3231H48.9431C49.8098 87.92 50.4965 88.08 51.0031 88.4C51.8831 88.9467 52.3231 89.78 52.3231 90.9C52.3231 92.1 51.8898 92.9667 51.0231 93.5C50.4631 93.8333 49.7298 94 48.8231 94H44.2831V83.84ZM45.6631 88.92V93H48.3431C49.1298 93 49.7098 92.8667 50.0831 92.6C50.6165 92.2267 50.8831 91.6733 50.8831 90.94C50.8831 90.26 50.6898 89.7533 50.3031 89.42C49.9298 89.0867 49.2765 88.92 48.3431 88.92H45.6631ZM53.6031 83.84H54.9831V94H53.6031V83.84ZM67.8383 94L64.1983 85.46H64.1583L64.1983 86V94H62.8183V83.84H64.7183L68.4183 92.5L72.1183 83.84H74.0383V94H72.6583V86L72.6983 85.46H72.6583L68.9983 94H67.8383ZM81.5333 83.44C82.9066 83.44 84.0133 83.8333 84.8533 84.62C85.8799 85.5933 86.3933 87.0267 86.3933 88.92C86.3933 90.8267 85.8533 92.28 84.7733 93.28C83.9599 94.0267 82.8866 94.4 81.5533 94.4C80.1399 94.4 79.0466 94.0267 78.2733 93.28C77.8333 92.9067 77.4533 92.3533 77.1333 91.62C76.8266 90.8867 76.6733 89.9867 76.6733 88.92C76.6733 87.08 77.1866 85.6467 78.2133 84.62C78.9999 83.8333 80.1066 83.44 81.5333 83.44ZM81.5333 84.42C80.5866 84.42 79.8333 84.7 79.2733 85.26C78.4999 86.0333 78.1133 87.2467 78.1133 88.9C78.1133 90.6067 78.5266 91.8467 79.3533 92.62C79.9266 93.14 80.6533 93.4 81.5333 93.4C82.4399 93.4 83.1599 93.1467 83.6933 92.64C84.5199 91.88 84.9333 90.6333 84.9333 88.9C84.9333 87.3133 84.5799 86.1333 83.8733 85.36C83.2733 84.7333 82.4933 84.42 81.5333 84.42ZM93.5292 94V88.88L89.1692 94H87.4492L92.2292 88.66L87.7292 83.84H89.3692L93.5292 88.52V83.84H94.9092V88.52L99.0692 83.84H100.709L96.2092 88.66L100.989 94H99.2692L94.9092 88.88V94H93.5292ZM110.004 91.06H111.324C111.151 91.8867 110.784 92.6067 110.224 93.22C109.464 94.0067 108.384 94.4 106.984 94.4C105.518 94.4 104.371 94.0067 103.544 93.22C102.544 92.2467 102.044 90.8 102.044 88.88C102.044 87.04 102.511 85.6533 103.444 84.72C104.298 83.8667 105.444 83.44 106.884 83.44C108.271 83.44 109.351 83.84 110.124 84.64C110.631 85.16 110.964 85.7733 111.124 86.48C111.298 87.1867 111.404 88.0867 111.444 89.18H103.484C103.538 90.62 103.898 91.6933 104.564 92.4C105.164 93.0667 105.991 93.4 107.044 93.4C107.911 93.4 108.611 93.1467 109.144 92.64C109.504 92.32 109.791 91.7933 110.004 91.06ZM106.864 84.44C105.824 84.44 105.011 84.7667 104.424 85.42C103.798 86.14 103.484 87.06 103.484 88.18H109.984C109.984 87.7133 109.898 87.1867 109.724 86.6C109.551 86.0133 109.311 85.5667 109.004 85.26C108.484 84.7133 107.771 84.44 106.864 84.44ZM116.168 84.84H112.628V83.84H121.068V84.84H117.548V94H116.168V84.84ZM129.36 91.06H130.68C130.507 91.8867 130.14 92.6067 129.58 93.22C128.82 94.0067 127.74 94.4 126.34 94.4C124.873 94.4 123.727 94.0067 122.9 93.22C121.9 92.2467 121.4 90.8 121.4 88.88C121.4 87.04 121.867 85.6533 122.8 84.72C123.653 83.8667 124.8 83.44 126.24 83.44C127.627 83.44 128.707 83.84 129.48 84.64C129.987 85.16 130.32 85.7733 130.48 86.48C130.653 87.1867 130.76 88.0867 130.8 89.18H122.84C122.893 90.62 123.253 91.6933 123.92 92.4C124.52 93.0667 125.347 93.4 126.4 93.4C127.267 93.4 127.967 93.1467 128.5 92.64C128.86 92.32 129.147 91.7933 129.36 91.06ZM126.22 84.44C125.18 84.44 124.367 84.7667 123.78 85.42C123.153 86.14 122.84 87.06 122.84 88.18H129.34C129.34 87.7133 129.253 87.1867 129.08 86.6C128.907 86.0133 128.667 85.5667 128.36 85.26C127.84 84.7133 127.127 84.44 126.22 84.44ZM139.491 84.84V94H138.111V83.84H146.351V94H144.971V84.84H139.491ZM149.518 83.84H150.838V85.34H150.877C151.198 84.86 151.618 84.4267 152.138 84.04C152.751 83.64 153.471 83.44 154.298 83.44C155.511 83.44 156.511 83.8067 157.298 84.54C158.284 85.5267 158.778 86.9533 158.778 88.82C158.778 90.5133 158.398 91.8667 157.638 92.88C156.891 93.8933 155.831 94.4 154.458 94.4C153.564 94.4 152.811 94.2133 152.198 93.84C151.664 93.5067 151.231 93.04 150.898 92.44V97.7H149.518V83.84ZM150.818 88.96C150.818 90.52 151.204 91.6867 151.978 92.46C152.578 93.0867 153.331 93.4 154.238 93.4C154.998 93.4 155.651 93.1267 156.198 92.58C156.958 91.78 157.338 90.54 157.338 88.86C157.338 87.2333 156.938 86.02 156.138 85.22C155.618 84.7 154.938 84.44 154.098 84.44C153.324 84.44 152.638 84.7067 152.038 85.24C151.224 85.9733 150.818 87.2133 150.818 88.96ZM162.792 92.4L168.412 83.84H169.972V94H168.592V85.42L162.992 94H161.412V83.84H162.792V92.4ZM177.471 83.44C178.844 83.44 179.951 83.8333 180.791 84.62C181.817 85.5933 182.331 87.0267 182.331 88.92C182.331 90.8267 181.791 92.28 180.711 93.28C179.897 94.0267 178.824 94.4 177.491 94.4C176.077 94.4 174.984 94.0267 174.211 93.28C173.771 92.9067 173.391 92.3533 173.071 91.62C172.764 90.8867 172.611 89.9867 172.611 88.92C172.611 87.08 173.124 85.6467 174.151 84.62C174.937 83.8333 176.044 83.44 177.471 83.44ZM177.471 84.42C176.524 84.42 175.771 84.7 175.211 85.26C174.437 86.0333 174.051 87.2467 174.051 88.9C174.051 90.6067 174.464 91.8467 175.291 92.62C175.864 93.14 176.591 93.4 177.471 93.4C178.377 93.4 179.097 93.1467 179.631 92.64C180.457 91.88 180.871 90.6333 180.871 88.9C180.871 87.3133 180.517 86.1333 179.811 85.36C179.211 84.7333 178.431 84.42 177.471 84.42ZM192.607 79.4H193.827C193.773 80 193.567 80.4667 193.207 80.8C192.86 81.1333 192.26 81.3533 191.407 81.46C191.18 81.4867 190.82 81.5333 190.327 81.6C189.833 81.6533 189.453 81.7067 189.187 81.76C188.253 81.9467 187.54 82.2867 187.047 82.78C186.273 83.5133 185.887 84.62 185.887 86.1H185.927C186.14 85.5 186.467 85.0067 186.907 84.62C187.653 83.94 188.627 83.6 189.827 83.6C191.253 83.6 192.373 84.02 193.187 84.86C194.107 85.82 194.567 87.1467 194.567 88.84C194.567 89.64 194.44 90.4333 194.187 91.22C193.947 92.0067 193.573 92.6533 193.067 93.16C192.573 93.6533 192.067 93.98 191.547 94.14C191.027 94.3133 190.413 94.4 189.707 94.4C188.213 94.4 187.087 94 186.327 93.2C185.273 92.0933 184.747 90.32 184.747 87.88C184.747 84.8133 185.3 82.7467 186.407 81.68C186.953 81.1333 187.713 80.7533 188.687 80.54C189.26 80.42 189.987 80.32 190.867 80.24C191.547 80.16 191.987 80.0667 192.187 79.96C192.373 79.8533 192.513 79.6667 192.607 79.4ZM186.207 88.86C186.207 90.58 186.613 91.8267 187.427 92.6C187.96 93.1333 188.7 93.4 189.647 93.4C190.62 93.4 191.367 93.1533 191.887 92.66C192.7 91.9133 193.107 90.74 193.107 89.14C193.107 87.42 192.733 86.1867 191.987 85.44C191.413 84.88 190.633 84.6 189.647 84.6C188.7 84.6 187.953 84.8667 187.407 85.4C186.607 86.1733 186.207 87.3267 186.207 88.86ZM205.969 88.2H215.969V89.16H205.969V88.2ZM33.58 107.84H34.9V109.34H34.94C35.26 108.86 35.68 108.427 36.2 108.04C36.8133 107.64 37.5333 107.44 38.36 107.44C39.5733 107.44 40.5733 107.807 41.36 108.54C42.3467 109.527 42.84 110.953 42.84 112.82C42.84 114.513 42.46 115.867 41.7 116.88C40.9533 117.893 39.8933 118.4 38.52 118.4C37.6267 118.4 36.8733 118.213 36.26 117.84C35.7267 117.507 35.2933 117.04 34.96 116.44V121.7H33.58V107.84ZM34.88 112.96C34.88 114.52 35.2667 115.687 36.04 116.46C36.64 117.087 37.3933 117.4 38.3 117.4C39.06 117.4 39.7133 117.127 40.26 116.58C41.02 115.78 41.4 114.54 41.4 112.86C41.4 111.233 41 110.02 40.2 109.22C39.68 108.7 39 108.44 38.16 108.44C37.3867 108.44 36.7 108.707 36.1 109.24C35.2867 109.973 34.88 111.213 34.88 112.96ZM52.9145 115.06H54.2345C54.0612 115.887 53.6945 116.607 53.1345 117.22C52.3745 118.007 51.2945 118.4 49.8945 118.4C48.4279 118.4 47.2812 118.007 46.4545 117.22C45.4545 116.247 44.9545 114.8 44.9545 112.88C44.9545 111.04 45.4212 109.653 46.3545 108.72C47.2079 107.867 48.3545 107.44 49.7945 107.44C51.1812 107.44 52.2612 107.84 53.0345 108.64C53.5412 109.16 53.8745 109.773 54.0345 110.48C54.2079 111.187 54.3145 112.087 54.3545 113.18H46.3945C46.4479 114.62 46.8079 115.693 47.4745 116.4C48.0745 117.067 48.9012 117.4 49.9545 117.4C50.8212 117.4 51.5212 117.147 52.0545 116.64C52.4145 116.32 52.7012 115.793 52.9145 115.06ZM49.7745 108.44C48.7345 108.44 47.9212 108.767 47.3345 109.42C46.7079 110.14 46.3945 111.06 46.3945 112.18H52.8945C52.8945 111.713 52.8079 111.187 52.6345 110.6C52.4612 110.013 52.2212 109.567 51.9145 109.26C51.3945 108.713 50.6812 108.44 49.7745 108.44ZM64.238 114.44H65.558C65.438 115.653 64.998 116.64 64.238 117.4C63.8246 117.813 63.3846 118.08 62.918 118.2C62.4646 118.333 61.9246 118.4 61.298 118.4C59.8846 118.4 58.7913 118.027 58.018 117.28C56.9913 116.293 56.478 114.807 56.478 112.82C56.478 111.047 56.9113 109.693 57.778 108.76C58.5513 107.88 59.698 107.44 61.218 107.44C62.5513 107.44 63.5846 107.793 64.318 108.5C64.9446 109.127 65.3246 109.927 65.458 110.9H64.138C64.0713 110.273 63.838 109.74 63.438 109.3C62.9313 108.727 62.2246 108.44 61.318 108.44C60.3713 108.44 59.598 108.74 58.998 109.34C58.2913 110.047 57.938 111.193 57.938 112.78C57.938 114.473 58.3446 115.727 59.158 116.54C59.7313 117.113 60.4513 117.4 61.318 117.4C62.1846 117.4 62.858 117.147 63.338 116.64C63.8713 116.067 64.1713 115.333 64.238 114.44ZM70.0155 108.84H66.4755V107.84H74.9155V108.84H71.3955V118H70.0155V108.84ZM77.5577 116.4L83.1777 107.84H84.7377V118H83.3577V109.42L77.7577 118H76.1777V107.84H77.5577V116.4ZM93.6644 110.76H92.3244C92.3244 109.64 92.7644 108.767 93.6444 108.14C94.311 107.673 95.2644 107.44 96.5044 107.44C97.8644 107.44 98.8577 107.753 99.4844 108.38C100.058 108.953 100.331 109.747 100.304 110.76L100.184 115.82C100.184 116.3 100.251 116.613 100.384 116.76C100.611 117.027 100.918 117.107 101.304 117V118C101.144 118.053 100.898 118.08 100.564 118.08C100.031 118.08 99.6377 117.953 99.3844 117.7C99.0644 117.38 98.9177 116.94 98.9444 116.38C98.5977 116.953 98.1577 117.387 97.6244 117.68C96.971 118.053 96.1777 118.24 95.2444 118.24C94.1377 118.24 93.3044 117.967 92.7444 117.42C92.1844 116.9 91.9044 116.187 91.9044 115.28C91.9044 114.493 92.151 113.853 92.6444 113.36C93.2044 112.8 94.2777 112.433 95.8644 112.26L96.5244 112.18C96.631 112.167 96.8444 112.147 97.1644 112.12C97.4844 112.08 97.7244 112.047 97.8844 112.02C98.2844 111.953 98.551 111.853 98.6844 111.72C98.8444 111.547 98.9244 111.22 98.9244 110.74C98.9244 109.967 98.7177 109.387 98.3044 109C97.8777 108.627 97.2377 108.44 96.3844 108.44C95.411 108.44 94.7177 108.647 94.3044 109.06C93.9044 109.46 93.691 110.027 93.6644 110.76ZM98.8444 113.66L98.8844 112.62C98.711 112.78 98.4444 112.893 98.0844 112.96C97.6577 113.04 97.0577 113.113 96.2844 113.18L95.8844 113.22C94.871 113.34 94.1844 113.573 93.8244 113.92C93.5044 114.24 93.3444 114.7 93.3444 115.3C93.3444 115.86 93.5177 116.313 93.8644 116.66C94.211 117.047 94.7444 117.24 95.4644 117.24C96.3444 117.24 97.071 117.007 97.6444 116.54C98.3777 115.94 98.7777 114.98 98.8444 113.66ZM109.238 121.7V118.26C107.171 118.34 105.591 117.787 104.498 116.6C103.604 115.613 103.158 114.367 103.158 112.86C103.158 111.247 103.598 110 104.478 109.12C105.104 108.48 105.871 108.06 106.778 107.86C107.684 107.647 108.504 107.56 109.238 107.6V104H110.618V107.6C112.671 107.547 114.224 108.033 115.278 109.06C116.224 109.967 116.698 111.213 116.698 112.8C116.698 114.453 116.218 115.76 115.258 116.72C114.151 117.827 112.604 118.34 110.618 118.26V121.7H109.238ZM109.238 117.26V108.6C107.678 108.533 106.498 108.913 105.698 109.74C104.964 110.5 104.598 111.54 104.598 112.86C104.598 114.22 104.984 115.287 105.758 116.06C106.531 116.86 107.691 117.26 109.238 117.26ZM110.618 108.6V117.26C112.124 117.287 113.291 116.887 114.118 116.06C114.878 115.3 115.258 114.227 115.258 112.84C115.258 111.467 114.891 110.433 114.158 109.74C113.731 109.34 113.184 109.047 112.518 108.86C111.864 108.66 111.231 108.573 110.618 108.6ZM119.342 107.84H120.662V109.34H120.702C121.022 108.86 121.442 108.427 121.962 108.04C122.575 107.64 123.295 107.44 124.122 107.44C125.335 107.44 126.335 107.807 127.122 108.54C128.108 109.527 128.602 110.953 128.602 112.82C128.602 114.513 128.222 115.867 127.462 116.88C126.715 117.893 125.655 118.4 124.282 118.4C123.388 118.4 122.635 118.213 122.022 117.84C121.488 117.507 121.055 117.04 120.722 116.44V121.7H119.342V107.84ZM120.642 112.96C120.642 114.52 121.028 115.687 121.802 116.46C122.402 117.087 123.155 117.4 124.062 117.4C124.822 117.4 125.475 117.127 126.022 116.58C126.782 115.78 127.162 114.54 127.162 112.86C127.162 111.233 126.762 110.02 125.962 109.22C125.442 108.7 124.762 108.44 123.922 108.44C123.148 108.44 122.462 108.707 121.862 109.24C121.048 109.973 120.642 111.213 120.642 112.96ZM132.616 116.4L138.236 107.84H139.796V118H138.416V109.42L132.816 118H131.236V107.84H132.616V116.4ZM144.335 112.4L148.955 107.84H150.595L145.695 112.56L150.895 118H149.175L144.335 112.82V118H142.955V107.84H144.335V112.4ZM153.567 110.76H152.227C152.227 109.64 152.667 108.767 153.547 108.14C154.213 107.673 155.167 107.44 156.407 107.44C157.767 107.44 158.76 107.753 159.387 108.38C159.96 108.953 160.233 109.747 160.207 110.76L160.087 115.82C160.087 116.3 160.153 116.613 160.287 116.76C160.513 117.027 160.82 117.107 161.207 117V118C161.047 118.053 160.8 118.08 160.467 118.08C159.933 118.08 159.54 117.953 159.287 117.7C158.967 117.38 158.82 116.94 158.847 116.38C158.5 116.953 158.06 117.387 157.527 117.68C156.873 118.053 156.08 118.24 155.147 118.24C154.04 118.24 153.207 117.967 152.647 117.42C152.087 116.9 151.807 116.187 151.807 115.28C151.807 114.493 152.053 113.853 152.547 113.36C153.107 112.8 154.18 112.433 155.767 112.26L156.427 112.18C156.533 112.167 156.747 112.147 157.067 112.12C157.387 112.08 157.627 112.047 157.787 112.02C158.187 111.953 158.453 111.853 158.587 111.72C158.747 111.547 158.827 111.22 158.827 110.74C158.827 109.967 158.62 109.387 158.207 109C157.78 108.627 157.14 108.44 156.287 108.44C155.313 108.44 154.62 108.647 154.207 109.06C153.807 109.46 153.593 110.027 153.567 110.76ZM158.747 113.66L158.787 112.62C158.613 112.78 158.347 112.893 157.987 112.96C157.56 113.04 156.96 113.113 156.187 113.18L155.787 113.22C154.773 113.34 154.087 113.573 153.727 113.92C153.407 114.24 153.247 114.7 153.247 115.3C153.247 115.86 153.42 116.313 153.767 116.66C154.113 117.047 154.647 117.24 155.367 117.24C156.247 117.24 156.973 117.007 157.547 116.54C158.28 115.94 158.68 114.98 158.747 113.66ZM164.96 113.12V118H163.58V107.84H164.96V112.12H170.36V107.84H171.74V118H170.36V113.12H164.96ZM182.148 114.44H183.468C183.348 115.653 182.908 116.64 182.148 117.4C181.735 117.813 181.295 118.08 180.828 118.2C180.375 118.333 179.835 118.4 179.208 118.4C177.795 118.4 176.701 118.027 175.928 117.28C174.901 116.293 174.388 114.807 174.388 112.82C174.388 111.047 174.821 109.693 175.688 108.76C176.461 107.88 177.608 107.44 179.128 107.44C180.461 107.44 181.495 107.793 182.228 108.5C182.855 109.127 183.235 109.927 183.368 110.9H182.048C181.981 110.273 181.748 109.74 181.348 109.3C180.841 108.727 180.135 108.44 179.228 108.44C178.281 108.44 177.508 108.74 176.908 109.34C176.201 110.047 175.848 111.193 175.848 112.78C175.848 114.473 176.255 115.727 177.068 116.54C177.641 117.113 178.361 117.4 179.228 117.4C180.095 117.4 180.768 117.147 181.248 116.64C181.781 116.067 182.081 115.333 182.148 114.44ZM187.226 112.4L191.846 107.84H193.486L188.586 112.56L193.786 118H192.066L187.226 112.82V118H185.846V107.84H187.226V112.4ZM195.557 121.68V120.64C195.757 120.693 196.017 120.72 196.337 120.72C196.764 120.72 197.091 120.62 197.317 120.42C197.531 120.233 197.724 119.86 197.897 119.3L198.317 118L194.037 107.84H195.697L199.057 116.46L201.977 107.84H203.357L199.177 119.54C198.844 120.447 198.544 121.02 198.277 121.26C197.904 121.607 197.371 121.78 196.677 121.78C196.304 121.78 195.931 121.747 195.557 121.68ZM206.308 112.14H207.988C208.054 110.7 208.541 109.547 209.448 108.68C210.314 107.853 211.441 107.44 212.828 107.44C214.188 107.44 215.294 107.84 216.148 108.64C217.161 109.653 217.668 111.073 217.668 112.9C217.668 114.793 217.134 116.253 216.068 117.28C215.281 118.027 214.214 118.4 212.868 118.4C211.481 118.4 210.374 118.02 209.548 117.26C209.041 116.767 208.648 116.147 208.368 115.4C208.101 114.653 207.968 113.9 207.968 113.14H206.308V118H204.928V107.84H206.308V112.14ZM209.428 112.9C209.428 114.567 209.801 115.773 210.548 116.52C211.134 117.107 211.908 117.4 212.868 117.4C213.708 117.4 214.401 117.153 214.948 116.66C215.788 115.873 216.208 114.62 216.208 112.9C216.208 111.18 215.794 109.94 214.968 109.18C214.434 108.687 213.721 108.44 212.828 108.44C211.881 108.44 211.128 108.72 210.568 109.28C209.808 110.04 209.428 111.247 209.428 112.9ZM34.96 132.84V142H33.58V131.84H41.82V142H40.44V132.84H34.96ZM44.9863 131.84H46.3063V133.34H46.3462C46.6663 132.86 47.0863 132.427 47.6063 132.04C48.2196 131.64 48.9396 131.44 49.7663 131.44C50.9796 131.44 51.9796 131.807 52.7663 132.54C53.7529 133.527 54.2463 134.953 54.2463 136.82C54.2463 138.513 53.8663 139.867 53.1063 140.88C52.3596 141.893 51.2996 142.4 49.9263 142.4C49.0329 142.4 48.2796 142.213 47.6663 141.84C47.1329 141.507 46.6996 141.04 46.3663 140.44V145.7H44.9863V131.84ZM46.2863 136.96C46.2863 138.52 46.6729 139.687 47.4463 140.46C48.0463 141.087 48.7996 141.4 49.7063 141.4C50.4663 141.4 51.1196 141.127 51.6663 140.58C52.4263 139.78 52.8063 138.54 52.8063 136.86C52.8063 135.233 52.4063 134.02 51.6063 133.22C51.0863 132.7 50.4063 132.44 49.5663 132.44C48.7929 132.44 48.1063 132.707 47.5063 133.24C46.6929 133.973 46.2863 135.213 46.2863 136.96ZM61.2208 131.44C62.5941 131.44 63.7008 131.833 64.5408 132.62C65.5674 133.593 66.0808 135.027 66.0808 136.92C66.0808 138.827 65.5408 140.28 64.4608 141.28C63.6474 142.027 62.5741 142.4 61.2408 142.4C59.8274 142.4 58.7341 142.027 57.9608 141.28C57.5208 140.907 57.1408 140.353 56.8208 139.62C56.5141 138.887 56.3608 137.987 56.3608 136.92C56.3608 135.08 56.8741 133.647 57.9008 132.62C58.6874 131.833 59.7941 131.44 61.2208 131.44ZM61.2208 132.42C60.2741 132.42 59.5208 132.7 58.9608 133.26C58.1874 134.033 57.8008 135.247 57.8008 136.9C57.8008 138.607 58.2141 139.847 59.0408 140.62C59.6141 141.14 60.3408 141.4 61.2208 141.4C62.1274 141.4 62.8474 141.147 63.3808 140.64C64.2074 139.88 64.6208 138.633 64.6208 136.9C64.6208 135.313 64.2674 134.133 63.5608 133.36C62.9608 132.733 62.1808 132.42 61.2208 132.42ZM67.2167 141H68.4367C69.0101 140.08 69.4301 139.187 69.6967 138.32C69.8301 137.893 69.9301 137.413 69.9967 136.88C70.0634 136.333 70.0967 135.853 70.0967 135.44C70.1101 135.013 70.1167 134.367 70.1167 133.5V131.84H77.0167V141H78.7767L78.6767 144.64H77.4767V142H68.5367V144.64H67.3367L67.2167 141ZM75.6367 132.84H71.4167V134.36C71.4167 135.893 71.2767 137.213 70.9967 138.32C70.7301 139.307 70.3501 140.2 69.8567 141H75.6367V132.84ZM80.7136 145.68V144.64C80.9136 144.693 81.1736 144.72 81.4936 144.72C81.9203 144.72 82.2469 144.62 82.4736 144.42C82.6869 144.233 82.8803 143.86 83.0536 143.3L83.4736 142L79.1936 131.84H80.8536L84.2136 140.46L87.1336 131.84H88.5136L84.3336 143.54C84.0003 144.447 83.7003 145.02 83.4336 145.26C83.0603 145.607 82.5269 145.78 81.8336 145.78C81.4603 145.78 81.0869 145.747 80.7136 145.68ZM91.4639 136.4L96.0839 131.84H97.7239L92.8239 136.56L98.0239 142H96.3039L91.4639 136.82V142H90.0839V131.84H91.4639V136.4ZM100.956 141H106.436V131.84H107.816V141H109.576L109.476 144.64H108.276V142H99.5956V131.84H100.956V141ZM112.694 140.4L118.314 131.84H119.874V142H118.494V133.42L112.894 142H111.314V131.84H112.694V140.4ZM124.413 136.14H126.093C126.16 134.7 126.646 133.547 127.553 132.68C128.42 131.853 129.546 131.44 130.933 131.44C132.293 131.44 133.4 131.84 134.253 132.64C135.266 133.653 135.773 135.073 135.773 136.9C135.773 138.793 135.24 140.253 134.173 141.28C133.386 142.027 132.32 142.4 130.973 142.4C129.586 142.4 128.48 142.02 127.653 141.26C127.146 140.767 126.753 140.147 126.473 139.4C126.206 138.653 126.073 137.9 126.073 137.14H124.413V142H123.033V131.84H124.413V136.14ZM127.533 136.9C127.533 138.567 127.906 139.773 128.653 140.52C129.24 141.107 130.013 141.4 130.973 141.4C131.813 141.4 132.506 141.153 133.053 140.66C133.893 139.873 134.313 138.62 134.313 136.9C134.313 135.18 133.9 133.94 133.073 133.18C132.54 132.687 131.826 132.44 130.933 132.44C129.986 132.44 129.233 132.72 128.673 133.28C127.913 134.04 127.533 135.247 127.533 136.9Z" fill="white"/>
<circle cx="17" cy="17" r="17" fill="#D67C0F"/>
</svg>
