<svg width="1308" height="386" viewBox="0 0 1308 386" fill="none" xmlns="http://www.w3.org/2000/svg">
<path d="M64.5104 180.963L163.054 189.469L217.405 1.8512H96.5117L64.5104 180.963ZM64.5104 1.8512H0V385.591H51.0909L64.5104 1.8512ZM168.134 207.48L64.5104 198.474L119.878 385.591H213.342L168.134 207.48Z" fill="black"/>
<path d="M481.543 385.591H515.068L548.085 1.8512H481.543V385.591ZM548.085 1.8512L599.896 385.591H783.476L733.976 1.8512H548.085ZM592.785 233.496L541.989 231.995V268.318H589.229L592.785 233.496Z" fill="black"/>
<path d="M869.905 1.8512V123.591L1079.98 131.091V250.091H888.496L919.99 385.591H807.223L766.079 1.8512H869.905ZM882.401 1.8512H1031.48L992.976 69.3935H882.401V1.8512Z" fill="black"/>
<path d="M1307.48 0H1057.65L1015.99 59.3872H1307.48V0ZM1262.48 74.3966H1109.98V385.591H1262.48V74.3966Z" fill="black"/>
<path d="M398.819 158.296C434.932 158.698 455.585 130.348 455.984 94.5284C458.368 25.1077 364.151 2.14403 328.038 1.74182C268.484 1.74182 223.879 77.5501 223.484 113.028L257.984 383.528L342.984 383.528L316.425 126.672C327.554 137.031 382.466 158.114 398.819 158.296ZM328.14 23.2373C351.988 23.5029 426.158 62.2993 425.896 85.8378C425.63 109.717 422.906 137.07 399.058 136.804C375.891 136.546 284.468 89.6222 284.734 65.7426C284.996 42.2041 304.973 22.9793 328.14 23.2373ZM412.984 178.528L342.984 178.528L366.484 383.528L455.984 383.528L412.984 178.528Z" fill="black"/>
</svg>
