<svg width="255" height="256" viewBox="0 0 255 256" fill="none" xmlns="http://www.w3.org/2000/svg">
<rect x="21" y="11" width="234" height="161" fill="black"/>
<path d="M46.57 45L40.39 28.38L40.33 28.38L40.39 29.19L40.39 45L36.55 45L36.55 24L42.28 24L48.01 39.93L53.74 24L59.47 24L59.47 45L55.63 45L55.63 29.19L55.69 28.38L55.63 28.38L49.45 45L46.57 45ZM66.9278 34.47L63.5078 34.47C63.4678 32.95 64.0278 31.69 65.1878 30.69C66.3478 29.67 68.1078 29.16 70.4678 29.16C71.6278 29.16 72.6378 29.3 73.4978 29.58C74.3578 29.84 75.0078 30.16 75.4478 30.54C75.8878 30.9 76.2278 31.35 76.4678 31.89C76.7278 32.43 76.8878 32.9 76.9478 33.3C77.0078 33.68 77.0378 34.1 77.0378 34.56L77.0378 40.65C77.0378 41.45 77.1078 41.97 77.2478 42.21C77.3878 42.45 77.7578 42.55 78.3578 42.51L78.3578 45C77.7378 45.06 77.2078 45.09 76.7678 45.09C75.0278 45.09 74.0378 44.43 73.7978 43.11C72.6178 44.61 70.9278 45.36 68.7278 45.36C67.7278 45.36 66.8578 45.24 66.1178 45C65.3778 44.78 64.8178 44.51 64.4378 44.19C64.0778 43.87 63.7878 43.49 63.5678 43.05C63.3678 42.59 63.2378 42.21 63.1778 41.91C63.1378 41.61 63.1178 41.29 63.1178 40.95C63.1178 40.21 63.2578 39.56 63.5378 39C63.8378 38.42 64.1978 37.98 64.6178 37.68C65.0578 37.38 65.4378 37.16 65.7578 37.02C66.0778 36.86 66.3678 36.75 66.6278 36.69C66.9678 36.59 67.3278 36.51 67.7078 36.45C68.0878 36.39 68.5178 36.33 68.9978 36.27C69.4778 36.21 69.8678 36.16 70.1678 36.12C70.3278 36.08 70.5678 36.05 70.8878 36.03C71.2278 35.99 71.4778 35.95 71.6378 35.91C72.0578 35.85 72.3378 35.81 72.4778 35.79C72.6178 35.77 72.7878 35.71 72.9878 35.61C73.1878 35.49 73.3078 35.33 73.3478 35.13C73.4078 34.91 73.4378 34.62 73.4378 34.26C73.4378 32.5 72.4478 31.62 70.4678 31.62C69.2278 31.62 68.3178 31.9 67.7378 32.46C67.1578 33 66.8878 33.67 66.9278 34.47ZM73.4378 38.22L73.4378 37.68C73.0778 37.94 72.2178 38.15 70.8578 38.31C70.2178 38.39 69.7478 38.46 69.4478 38.52C69.1678 38.56 68.8178 38.64 68.3978 38.76C67.9978 38.88 67.7078 39.02 67.5278 39.18C67.3478 39.34 67.1878 39.56 67.0478 39.84C66.9078 40.12 66.8378 40.45 66.8378 40.83C66.8378 41.45 67.0278 41.95 67.4078 42.33C67.8078 42.71 68.4078 42.9 69.2078 42.9C69.7278 42.9 70.2078 42.84 70.6478 42.72C71.0878 42.6 71.5278 42.38 71.9678 42.06C72.4278 41.74 72.7878 41.26 73.0478 40.62C73.3078 39.96 73.4378 39.16 73.4378 38.22ZM81.4823 29.76L84.7823 29.76L84.7823 31.26L84.8423 31.26C85.9623 29.86 87.6023 29.16 89.7623 29.16C90.6823 29.16 91.5523 29.31 92.3723 29.61C93.2123 29.91 93.9923 30.37 94.7123 30.99C95.4523 31.61 96.0323 32.46 96.4523 33.54C96.8923 34.62 97.1123 35.87 97.1123 37.29C97.1123 38.01 97.0523 38.72 96.9323 39.42C96.8323 40.1 96.6123 40.83 96.2723 41.61C95.9523 42.37 95.5323 43.04 95.0123 43.62C94.5123 44.18 93.8123 44.65 92.9123 45.03C92.0323 45.41 91.0223 45.6 89.8823 45.6C89.6423 45.6 89.3823 45.58 89.1023 45.54C88.8223 45.52 88.3923 45.45 87.8123 45.33C87.2523 45.23 86.7223 45.02 86.2223 44.7C85.7423 44.36 85.3623 43.94 85.0823 43.44L85.0823 50.55L81.4823 50.55L81.4823 29.76ZM84.8123 37.41C84.8123 39.17 85.1623 40.57 85.8623 41.61C86.5623 42.63 87.5623 43.14 88.8623 43.14C89.3423 43.14 89.8023 43.07 90.2423 42.93C90.6823 42.79 91.1423 42.54 91.6223 42.18C92.1223 41.82 92.5223 41.24 92.8223 40.44C93.1223 39.62 93.2723 38.64 93.2723 37.5C93.2723 35.48 92.8623 34 92.0423 33.06C91.2423 32.1 90.2323 31.62 89.0123 31.62C88.5523 31.62 88.1023 31.7 87.6623 31.86C87.2423 32 86.8023 32.26 86.3423 32.64C85.8823 33.02 85.5123 33.62 85.2323 34.44C84.9523 35.26 84.8123 36.25 84.8123 37.41ZM104.245 29.76C105.205 29.36 106.305 29.16 107.545 29.16C108.785 29.16 109.885 29.36 110.845 29.76C111.805 30.14 112.565 30.62 113.125 31.2C113.685 31.78 114.145 32.46 114.505 33.24C114.865 34.02 115.105 34.74 115.225 35.4C115.345 36.06 115.405 36.72 115.405 37.38C115.405 38.04 115.345 38.7 115.225 39.36C115.105 40.02 114.865 40.74 114.505 41.52C114.145 42.3 113.685 42.98 113.125 43.56C112.565 44.14 111.805 44.62 110.845 45C109.885 45.4 108.785 45.6 107.545 45.6C106.305 45.6 105.205 45.4 104.245 45C103.285 44.62 102.525 44.14 101.965 43.56C101.405 42.98 100.945 42.31 100.585 41.55C100.225 40.77 99.9845 40.05 99.8645 39.39C99.7445 38.71 99.6845 38.04 99.6845 37.38C99.6845 36.72 99.7445 36.06 99.8645 35.4C99.9845 34.74 100.225 34.02 100.585 33.24C100.945 32.46 101.405 31.78 101.965 31.2C102.525 30.62 103.285 30.14 104.245 29.76ZM108.745 31.8C108.365 31.68 107.965 31.62 107.545 31.62C107.125 31.62 106.725 31.68 106.345 31.8C105.965 31.92 105.535 32.16 105.055 32.52C104.595 32.88 104.225 33.48 103.945 34.32C103.665 35.14 103.525 36.16 103.525 37.38C103.525 38.6 103.665 39.63 103.945 40.47C104.225 41.29 104.595 41.88 105.055 42.24C105.535 42.6 105.965 42.84 106.345 42.96C106.725 43.08 107.125 43.14 107.545 43.14C107.965 43.14 108.365 43.08 108.745 42.96C109.125 42.84 109.545 42.6 110.005 42.24C110.485 41.88 110.865 41.29 111.145 40.47C111.425 39.63 111.565 38.6 111.565 37.38C111.565 36.16 111.425 35.14 111.145 34.32C110.865 33.48 110.485 32.88 110.005 32.52C109.545 32.16 109.125 31.92 108.745 31.8ZM122.465 36.12L128.255 29.76L132.395 29.76L125.615 36.87L132.725 45L128.585 45L122.465 37.62L122.465 45L118.865 45L118.865 29.76L122.465 29.76L122.465 36.12ZM138.373 36.12L144.163 29.76L148.303 29.76L141.523 36.87L148.633 45L144.493 45L138.373 37.62L138.373 45L134.773 45L134.773 29.76L138.373 29.76L138.373 36.12ZM154.371 29.76C155.331 29.36 156.431 29.16 157.671 29.16C158.911 29.16 160.011 29.36 160.971 29.76C161.931 30.14 162.691 30.62 163.251 31.2C163.811 31.78 164.271 32.46 164.631 33.24C164.991 34.02 165.231 34.74 165.351 35.4C165.471 36.06 165.531 36.72 165.531 37.38C165.531 38.04 165.471 38.7 165.351 39.36C165.231 40.02 164.991 40.74 164.631 41.52C164.271 42.3 163.811 42.98 163.251 43.56C162.691 44.14 161.931 44.62 160.971 45C160.011 45.4 158.911 45.6 157.671 45.6C156.431 45.6 155.331 45.4 154.371 45C153.411 44.62 152.651 44.14 152.091 43.56C151.531 42.98 151.071 42.31 150.711 41.55C150.351 40.77 150.111 40.05 149.991 39.39C149.871 38.71 149.811 38.04 149.811 37.38C149.811 36.72 149.871 36.06 149.991 35.4C150.111 34.74 150.351 34.02 150.711 33.24C151.071 32.46 151.531 31.78 152.091 31.2C152.651 30.62 153.411 30.14 154.371 29.76ZM158.871 31.8C158.491 31.68 158.091 31.62 157.671 31.62C157.251 31.62 156.851 31.68 156.471 31.8C156.091 31.92 155.661 32.16 155.181 32.52C154.721 32.88 154.351 33.48 154.071 34.32C153.791 35.14 153.651 36.16 153.651 37.38C153.651 38.6 153.791 39.63 154.071 40.47C154.351 41.29 154.721 41.88 155.181 42.24C155.661 42.6 156.091 42.84 156.471 42.96C156.851 43.08 157.251 43.14 157.671 43.14C158.091 43.14 158.491 43.08 158.871 42.96C159.251 42.84 159.671 42.6 160.131 42.24C160.611 41.88 160.991 41.29 161.271 40.47C161.551 39.63 161.691 38.6 161.691 37.38C161.691 36.16 161.551 35.14 161.271 34.32C160.991 33.48 160.611 32.88 160.131 32.52C159.671 32.16 159.251 31.92 158.871 31.8Z" fill="white"/>
<path d="M35.84 62H41.7C43.18 62 44.2533 62.3333 44.92 63C45.5333 63.6133 45.84 64.4467 45.84 65.5C45.84 66.38 45.5467 67.1333 44.96 67.76C44.5333 68.1867 44.04 68.46 43.48 68.58V68.62C44.3067 68.74 44.9867 69.0667 45.52 69.6C46.1333 70.2133 46.44 71.0467 46.44 72.1C46.44 73.2067 46.1067 74.1067 45.44 74.8C44.68 75.6 43.3733 76 41.52 76H35.84V62ZM37.32 63.26V68.1H41.34C42.4333 68.1 43.2067 67.8733 43.66 67.42C44.1133 66.9667 44.34 66.3667 44.34 65.62C44.34 64.9267 44.1333 64.3733 43.72 63.96C43.2133 63.4933 42.46 63.26 41.46 63.26H37.32ZM37.32 69.36V74.74H41.44C42.64 74.74 43.5267 74.52 44.1 74.08C44.6467 73.6 44.92 72.9133 44.92 72.02C44.92 71.0467 44.6133 70.3467 44 69.92C43.4933 69.5467 42.6333 69.36 41.42 69.36H37.32ZM53.3547 72.96H54.6747C54.6747 73.7067 54.9214 74.3 55.4147 74.74C55.8947 75.18 56.6414 75.4 57.6547 75.4C58.5747 75.4 59.2614 75.2 59.7147 74.8C60.1547 74.4133 60.3747 73.8533 60.3747 73.12C60.3747 72.4667 60.168 71.9667 59.7547 71.62C59.368 71.3 58.7547 71.14 57.9147 71.14H56.3147V70.14H57.7347C58.5214 70.14 59.1014 69.9933 59.4747 69.7C59.8614 69.38 60.0547 68.9533 60.0547 68.42C60.0547 67.78 59.8347 67.28 59.3947 66.92C58.9814 66.6 58.3747 66.44 57.5747 66.44C56.788 66.44 56.188 66.6 55.7747 66.92C55.2947 67.2933 55.048 67.82 55.0347 68.5H53.7147C53.768 67.66 54.068 66.9667 54.6147 66.42C55.268 65.7667 56.2947 65.44 57.6947 65.44C59.028 65.44 60.0147 65.7533 60.6547 66.38C61.188 66.8733 61.4547 67.54 61.4547 68.38C61.4547 69.0333 61.2414 69.5733 60.8147 70C60.468 70.3067 60.088 70.4933 59.6747 70.56V70.6C60.2214 70.7067 60.688 70.94 61.0747 71.3C61.5547 71.7533 61.7947 72.3667 61.7947 73.14C61.7947 74.26 61.4014 75.1133 60.6147 75.7C59.9614 76.1667 58.9747 76.4 57.6547 76.4C56.1214 76.4 55.0147 76.0733 54.3347 75.42C53.6814 74.7667 53.3547 73.9467 53.3547 72.96ZM68.7091 65.44C70.0824 65.44 71.1891 65.8333 72.0291 66.62C73.0557 67.5933 73.5691 69.0267 73.5691 70.92C73.5691 72.8267 73.0291 74.28 71.9491 75.28C71.1357 76.0267 70.0624 76.4 68.7291 76.4C67.3157 76.4 66.2224 76.0267 65.4491 75.28C65.0091 74.9067 64.6291 74.3533 64.3091 73.62C64.0024 72.8867 63.8491 71.9867 63.8491 70.92C63.8491 69.08 64.3624 67.6467 65.3891 66.62C66.1757 65.8333 67.2824 65.44 68.7091 65.44ZM68.7091 66.42C67.7624 66.42 67.0091 66.7 66.4491 67.26C65.6757 68.0333 65.2891 69.2467 65.2891 70.9C65.2891 72.6067 65.7024 73.8467 66.5291 74.62C67.1024 75.14 67.8291 75.4 68.7091 75.4C69.6157 75.4 70.3357 75.1467 70.8691 74.64C71.6957 73.88 72.1091 72.6333 72.1091 70.9C72.1091 69.3133 71.7557 68.1333 71.0491 67.36C70.4491 66.7333 69.6691 66.42 68.7091 66.42ZM77.585 71.12V76H76.205V65.84H77.585V70.12H82.985V65.84H84.365V76H82.985V71.12H77.585ZM94.9731 73.06H96.2931C96.1198 73.8867 95.7531 74.6067 95.1931 75.22C94.4331 76.0067 93.3531 76.4 91.9531 76.4C90.4865 76.4 89.3398 76.0067 88.5131 75.22C87.5131 74.2467 87.0131 72.8 87.0131 70.88C87.0131 69.04 87.4798 67.6533 88.4131 66.72C89.2665 65.8667 90.4131 65.44 91.8531 65.44C93.2398 65.44 94.3198 65.84 95.0931 66.64C95.5998 67.16 95.9331 67.7733 96.0931 68.48C96.2665 69.1867 96.3731 70.0867 96.4131 71.18H88.4531C88.5065 72.62 88.8665 73.6933 89.5331 74.4C90.1331 75.0667 90.9598 75.4 92.0131 75.4C92.8798 75.4 93.5798 75.1467 94.1131 74.64C94.4731 74.32 94.7598 73.7933 94.9731 73.06ZM91.8331 66.44C90.7931 66.44 89.9798 66.7667 89.3931 67.42C88.7665 68.14 88.4531 69.06 88.4531 70.18H94.9531C94.9531 69.7133 94.8665 69.1867 94.6931 68.6C94.5198 68.0133 94.2798 67.5667 93.9731 67.26C93.4531 66.7133 92.7398 66.44 91.8331 66.44ZM110.285 76L105.465 63.84H105.425L105.465 64.38V76H103.985V62H106.225L110.925 74.06L115.645 62H117.865V76H116.385V64.38L116.425 63.84H116.365L111.565 76H110.285ZM122.383 68.76H121.043C121.043 67.64 121.483 66.7667 122.363 66.14C123.03 65.6733 123.983 65.44 125.223 65.44C126.583 65.44 127.576 65.7533 128.203 66.38C128.776 66.9533 129.05 67.7467 129.023 68.76L128.903 73.82C128.903 74.3 128.97 74.6133 129.103 74.76C129.33 75.0267 129.636 75.1067 130.023 75V76C129.863 76.0533 129.616 76.08 129.283 76.08C128.75 76.08 128.356 75.9533 128.103 75.7C127.783 75.38 127.636 74.94 127.663 74.38C127.316 74.9533 126.876 75.3867 126.343 75.68C125.69 76.0533 124.896 76.24 123.963 76.24C122.856 76.24 122.023 75.9667 121.463 75.42C120.903 74.9 120.623 74.1867 120.623 73.28C120.623 72.4933 120.87 71.8533 121.363 71.36C121.923 70.8 122.996 70.4333 124.583 70.26L125.243 70.18C125.35 70.1667 125.563 70.1467 125.883 70.12C126.203 70.08 126.443 70.0467 126.603 70.02C127.003 69.9533 127.27 69.8533 127.403 69.72C127.563 69.5467 127.643 69.22 127.643 68.74C127.643 67.9667 127.436 67.3867 127.023 67C126.596 66.6267 125.956 66.44 125.103 66.44C124.13 66.44 123.436 66.6467 123.023 67.06C122.623 67.46 122.41 68.0267 122.383 68.76ZM127.563 71.66L127.603 70.62C127.43 70.78 127.163 70.8933 126.803 70.96C126.376 71.04 125.776 71.1133 125.003 71.18L124.603 71.22C123.59 71.34 122.903 71.5733 122.543 71.92C122.223 72.24 122.063 72.7 122.063 73.3C122.063 73.86 122.236 74.3133 122.583 74.66C122.93 75.0467 123.463 75.24 124.183 75.24C125.063 75.24 125.79 75.0067 126.363 74.54C127.096 73.94 127.496 72.98 127.563 71.66ZM132.396 65.84H133.716V67.34H133.756C134.076 66.86 134.496 66.4267 135.016 66.04C135.63 65.64 136.35 65.44 137.176 65.44C138.39 65.44 139.39 65.8067 140.176 66.54C141.163 67.5267 141.656 68.9533 141.656 70.82C141.656 72.5133 141.276 73.8667 140.516 74.88C139.77 75.8933 138.71 76.4 137.336 76.4C136.443 76.4 135.69 76.2133 135.076 75.84C134.543 75.5067 134.11 75.04 133.776 74.44V79.7H132.396V65.84ZM133.696 70.96C133.696 72.52 134.083 73.6867 134.856 74.46C135.456 75.0867 136.21 75.4 137.116 75.4C137.876 75.4 138.53 75.1267 139.076 74.58C139.836 73.78 140.216 72.54 140.216 70.86C140.216 69.2333 139.816 68.02 139.016 67.22C138.496 66.7 137.816 66.44 136.976 66.44C136.203 66.44 135.516 66.7067 134.916 67.24C134.103 67.9733 133.696 69.2133 133.696 70.96ZM148.631 65.44C150.004 65.44 151.111 65.8333 151.951 66.62C152.978 67.5933 153.491 69.0267 153.491 70.92C153.491 72.8267 152.951 74.28 151.871 75.28C151.058 76.0267 149.984 76.4 148.651 76.4C147.238 76.4 146.144 76.0267 145.371 75.28C144.931 74.9067 144.551 74.3533 144.231 73.62C143.924 72.8867 143.771 71.9867 143.771 70.92C143.771 69.08 144.284 67.6467 145.311 66.62C146.098 65.8333 147.204 65.44 148.631 65.44ZM148.631 66.42C147.684 66.42 146.931 66.7 146.371 67.26C145.598 68.0333 145.211 69.2467 145.211 70.9C145.211 72.6067 145.624 73.8467 146.451 74.62C147.024 75.14 147.751 75.4 148.631 75.4C149.538 75.4 150.258 75.1467 150.791 74.64C151.618 73.88 152.031 72.6333 152.031 70.9C152.031 69.3133 151.678 68.1333 150.971 67.36C150.371 66.7333 149.591 66.42 148.631 66.42ZM157.507 70.4L162.127 65.84H163.767L158.867 70.56L164.067 76H162.347L157.507 70.82V76H156.127V65.84H157.507V70.4ZM167.019 70.4L171.639 65.84H173.279L168.379 70.56L173.579 76H171.859L167.019 70.82V76H165.639V65.84H167.019V70.4ZM178.865 65.44C180.239 65.44 181.345 65.8333 182.185 66.62C183.212 67.5933 183.725 69.0267 183.725 70.92C183.725 72.8267 183.185 74.28 182.105 75.28C181.292 76.0267 180.219 76.4 178.885 76.4C177.472 76.4 176.379 76.0267 175.605 75.28C175.165 74.9067 174.785 74.3533 174.465 73.62C174.159 72.8867 174.005 71.9867 174.005 70.92C174.005 69.08 174.519 67.6467 175.545 66.62C176.332 65.8333 177.439 65.44 178.865 65.44ZM178.865 66.42C177.919 66.42 177.165 66.7 176.605 67.26C175.832 68.0333 175.445 69.2467 175.445 70.9C175.445 72.6067 175.859 73.8467 176.685 74.62C177.259 75.14 177.985 75.4 178.865 75.4C179.772 75.4 180.492 75.1467 181.025 74.64C181.852 73.88 182.265 72.6333 182.265 70.9C182.265 69.3133 181.912 68.1333 181.205 67.36C180.605 66.7333 179.825 66.42 178.865 66.42ZM42.82 96.44H44.14C44.02 97.6533 43.58 98.64 42.82 99.4C42.4067 99.8133 41.9667 100.08 41.5 100.2C41.0467 100.333 40.5067 100.4 39.88 100.4C38.4667 100.4 37.3733 100.027 36.6 99.28C35.5733 98.2933 35.06 96.8067 35.06 94.82C35.06 93.0467 35.4933 91.6933 36.36 90.76C37.1333 89.88 38.28 89.44 39.8 89.44C41.1333 89.44 42.1667 89.7933 42.9 90.5C43.5267 91.1267 43.9067 91.9267 44.04 92.9H42.72C42.6533 92.2733 42.42 91.74 42.02 91.3C41.5133 90.7267 40.8067 90.44 39.9 90.44C38.9533 90.44 38.18 90.74 37.58 91.34C36.8733 92.0467 36.52 93.1933 36.52 94.78C36.52 96.4733 36.9267 97.7267 37.74 98.54C38.3133 99.1133 39.0333 99.4 39.9 99.4C40.7667 99.4 41.44 99.1467 41.92 98.64C42.4533 98.0667 42.7533 97.3333 42.82 96.44ZM50.8575 89.44C52.2308 89.44 53.3375 89.8333 54.1775 90.62C55.2042 91.5933 55.7175 93.0267 55.7175 94.92C55.7175 96.8267 55.1775 98.28 54.0975 99.28C53.2842 100.027 52.2108 100.4 50.8775 100.4C49.4642 100.4 48.3708 100.027 47.5975 99.28C47.1575 98.9067 46.7775 98.3533 46.4575 97.62C46.1508 96.8867 45.9975 95.9867 45.9975 94.92C45.9975 93.08 46.5108 91.6467 47.5375 90.62C48.3242 89.8333 49.4308 89.44 50.8575 89.44ZM50.8575 90.42C49.9108 90.42 49.1575 90.7 48.5975 91.26C47.8242 92.0333 47.4375 93.2467 47.4375 94.9C47.4375 96.6067 47.8508 97.8467 48.6775 98.62C49.2508 99.14 49.9775 99.4 50.8575 99.4C51.7642 99.4 52.4842 99.1467 53.0175 98.64C53.8442 97.88 54.2575 96.6333 54.2575 94.9C54.2575 93.3133 53.9042 92.1333 53.1975 91.36C52.5975 90.7333 51.8175 90.42 50.8575 90.42ZM65.5934 96.44H66.9134C66.7934 97.6533 66.3534 98.64 65.5934 99.4C65.1801 99.8133 64.7401 100.08 64.2734 100.2C63.8201 100.333 63.2801 100.4 62.6534 100.4C61.2401 100.4 60.1468 100.027 59.3734 99.28C58.3468 98.2933 57.8334 96.8067 57.8334 94.82C57.8334 93.0467 58.2668 91.6933 59.1334 90.76C59.9068 89.88 61.0534 89.44 62.5734 89.44C63.9068 89.44 64.9401 89.7933 65.6734 90.5C66.3001 91.1267 66.6801 91.9267 66.8134 92.9H65.4934C65.4268 92.2733 65.1934 91.74 64.7934 91.3C64.2868 90.7267 63.5801 90.44 62.6734 90.44C61.7268 90.44 60.9534 90.74 60.3534 91.34C59.6468 92.0467 59.2934 93.1933 59.2934 94.78C59.2934 96.4733 59.7001 97.7267 60.5134 98.54C61.0868 99.1133 61.8068 99.4 62.6734 99.4C63.5401 99.4 64.2134 99.1467 64.6934 98.64C65.2268 98.0667 65.5268 97.3333 65.5934 96.44ZM71.3709 90.84H67.8309V89.84H76.2709V90.84H72.7509V100H71.3709V90.84ZM81.9122 89.44C83.2855 89.44 84.3922 89.8333 85.2322 90.62C86.2589 91.5933 86.7722 93.0267 86.7722 94.92C86.7722 96.8267 86.2322 98.28 85.1522 99.28C84.3389 100.027 83.2655 100.4 81.9322 100.4C80.5189 100.4 79.4255 100.027 78.6522 99.28C78.2122 98.9067 77.8322 98.3533 77.5122 97.62C77.2055 96.8867 77.0522 95.9867 77.0522 94.92C77.0522 93.08 77.5655 91.6467 78.5922 90.62C79.3789 89.8333 80.4855 89.44 81.9122 89.44ZM81.9122 90.42C80.9655 90.42 80.2122 90.7 79.6522 91.26C78.8789 92.0333 78.4922 93.2467 78.4922 94.9C78.4922 96.6067 78.9055 97.8467 79.7322 98.62C80.3055 99.14 81.0322 99.4 81.9122 99.4C82.8189 99.4 83.5389 99.1467 84.0722 98.64C84.8989 97.88 85.3122 96.6333 85.3122 94.9C85.3122 93.3133 84.9589 92.1333 84.2522 91.36C83.6522 90.7333 82.8722 90.42 81.9122 90.42ZM90.7881 98.4L96.4081 89.84H97.9681V100H96.5881V91.42L90.9881 100H89.4081V89.84H90.7881V98.4ZM103.207 90.84H99.6669V89.84H108.107V90.84H104.587V100H103.207V90.84ZM116.824 96.44H118.144C118.024 97.6533 117.584 98.64 116.824 99.4C116.411 99.8133 115.971 100.08 115.504 100.2C115.051 100.333 114.511 100.4 113.884 100.4C112.471 100.4 111.377 100.027 110.604 99.28C109.577 98.2933 109.064 96.8067 109.064 94.82C109.064 93.0467 109.497 91.6933 110.364 90.76C111.137 89.88 112.284 89.44 113.804 89.44C115.137 89.44 116.171 89.7933 116.904 90.5C117.531 91.1267 117.911 91.9267 118.044 92.9H116.724C116.657 92.2733 116.424 91.74 116.024 91.3C115.517 90.7267 114.811 90.44 113.904 90.44C112.957 90.44 112.184 90.74 111.584 91.34C110.877 92.0467 110.524 93.1933 110.524 94.78C110.524 96.4733 110.931 97.7267 111.744 98.54C112.317 99.1133 113.037 99.4 113.904 99.4C114.771 99.4 115.444 99.1467 115.924 98.64C116.457 98.0667 116.757 97.3333 116.824 96.44ZM123.881 95.86L121.261 100H119.741L122.481 95.84C121.775 95.7467 121.201 95.48 120.761 95.04C120.215 94.52 119.941 93.82 119.941 92.94C119.941 91.9933 120.201 91.2533 120.721 90.72C121.281 90.1333 122.115 89.84 123.221 89.84H128.021V100H126.641V95.86H123.881ZM126.641 90.84H123.841C123.521 90.84 123.275 90.8467 123.101 90.86C122.941 90.8733 122.748 90.92 122.521 91C122.295 91.08 122.095 91.2067 121.921 91.38C121.548 91.7267 121.361 92.22 121.361 92.86C121.361 93.46 121.541 93.9267 121.901 94.26C122.301 94.66 122.981 94.86 123.941 94.86H126.641V90.84ZM137.233 94.4L141.853 89.84H143.493L138.593 94.56L143.793 100H142.073L137.233 94.82V100H135.853V89.84H137.233V94.4ZM145.365 89.84H146.685V91.34H146.725C147.045 90.86 147.465 90.4267 147.985 90.04C148.598 89.64 149.318 89.44 150.145 89.44C151.358 89.44 152.358 89.8067 153.145 90.54C154.132 91.5267 154.625 92.9533 154.625 94.82C154.625 96.5133 154.245 97.8667 153.485 98.88C152.738 99.8933 151.678 100.4 150.305 100.4C149.412 100.4 148.658 100.213 148.045 99.84C147.512 99.5067 147.078 99.04 146.745 98.44V103.7H145.365V89.84ZM146.665 94.96C146.665 96.52 147.052 97.6867 147.825 98.46C148.425 99.0867 149.178 99.4 150.085 99.4C150.845 99.4 151.498 99.1267 152.045 98.58C152.805 97.78 153.185 96.54 153.185 94.86C153.185 93.2333 152.785 92.02 151.985 91.22C151.465 90.7 150.785 90.44 149.945 90.44C149.172 90.44 148.485 90.7067 147.885 91.24C147.072 91.9733 146.665 93.2133 146.665 94.96ZM158.36 92.76H157.02C157.02 91.64 157.46 90.7667 158.34 90.14C159.006 89.6733 159.96 89.44 161.2 89.44C162.56 89.44 163.553 89.7533 164.18 90.38C164.753 90.9533 165.026 91.7467 165 92.76L164.88 97.82C164.88 98.3 164.946 98.6133 165.08 98.76C165.306 99.0267 165.613 99.1067 166 99V100C165.84 100.053 165.593 100.08 165.26 100.08C164.726 100.08 164.333 99.9533 164.08 99.7C163.76 99.38 163.613 98.94 163.64 98.38C163.293 98.9533 162.853 99.3867 162.32 99.68C161.666 100.053 160.873 100.24 159.94 100.24C158.833 100.24 158 99.9667 157.44 99.42C156.88 98.9 156.6 98.1867 156.6 97.28C156.6 96.4933 156.846 95.8533 157.34 95.36C157.9 94.8 158.973 94.4333 160.56 94.26L161.22 94.18C161.326 94.1667 161.54 94.1467 161.86 94.12C162.18 94.08 162.42 94.0467 162.58 94.02C162.98 93.9533 163.246 93.8533 163.38 93.72C163.54 93.5467 163.62 93.22 163.62 92.74C163.62 91.9667 163.413 91.3867 163 91C162.573 90.6267 161.933 90.44 161.08 90.44C160.106 90.44 159.413 90.6467 159 91.06C158.6 91.46 158.386 92.0267 158.36 92.76ZM163.54 95.66L163.58 94.62C163.406 94.78 163.14 94.8933 162.78 94.96C162.353 95.04 161.753 95.1133 160.98 95.18L160.58 95.22C159.566 95.34 158.88 95.5733 158.52 95.92C158.2 96.24 158.04 96.7 158.04 97.3C158.04 97.86 158.213 98.3133 158.56 98.66C158.906 99.0467 159.44 99.24 160.16 99.24C161.04 99.24 161.766 99.0067 162.34 98.54C163.073 97.94 163.473 96.98 163.54 95.66ZM175.613 96.44H176.933C176.813 97.6533 176.373 98.64 175.613 99.4C175.2 99.8133 174.76 100.08 174.293 100.2C173.84 100.333 173.3 100.4 172.673 100.4C171.26 100.4 170.166 100.027 169.393 99.28C168.366 98.2933 167.853 96.8067 167.853 94.82C167.853 93.0467 168.286 91.6933 169.153 90.76C169.926 89.88 171.073 89.44 172.593 89.44C173.926 89.44 174.96 89.7933 175.693 90.5C176.32 91.1267 176.7 91.9267 176.833 92.9H175.513C175.446 92.2733 175.213 91.74 174.813 91.3C174.306 90.7267 173.6 90.44 172.693 90.44C171.746 90.44 170.973 90.74 170.373 91.34C169.666 92.0467 169.313 93.1933 169.313 94.78C169.313 96.4733 169.72 97.7267 170.533 98.54C171.106 99.1133 171.826 99.4 172.693 99.4C173.56 99.4 174.233 99.1467 174.713 98.64C175.246 98.0667 175.546 97.3333 175.613 96.44ZM183.65 89.44C185.024 89.44 186.13 89.8333 186.97 90.62C187.997 91.5933 188.51 93.0267 188.51 94.92C188.51 96.8267 187.97 98.28 186.89 99.28C186.077 100.027 185.004 100.4 183.67 100.4C182.257 100.4 181.164 100.027 180.39 99.28C179.95 98.9067 179.57 98.3533 179.25 97.62C178.944 96.8867 178.79 95.9867 178.79 94.92C178.79 93.08 179.304 91.6467 180.33 90.62C181.117 89.8333 182.224 89.44 183.65 89.44ZM183.65 90.42C182.704 90.42 181.95 90.7 181.39 91.26C180.617 92.0333 180.23 93.2467 180.23 94.9C180.23 96.6067 180.644 97.8467 181.47 98.62C182.044 99.14 182.77 99.4 183.65 99.4C184.557 99.4 185.277 99.1467 185.81 98.64C186.637 97.88 187.05 96.6333 187.05 94.9C187.05 93.3133 186.697 92.1333 185.99 91.36C185.39 90.7333 184.61 90.42 183.65 90.42ZM190.626 89.84H192.006V93.16C192.006 93.7333 192.113 94.1267 192.326 94.34C192.5 94.5133 192.766 94.6267 193.126 94.68C193.486 94.7333 194.046 94.76 194.806 94.76C194.873 94.76 195.486 94.74 196.646 94.7V89.84H198.026V100H196.646V95.7C195.886 95.7533 195.1 95.78 194.286 95.78C192.646 95.78 191.593 95.5467 191.126 95.08C190.793 94.72 190.626 94.1333 190.626 93.32V89.84ZM209.941 94.2H219.941V95.16H209.941V94.2ZM36.96 119.12V124H35.58V113.84H36.96V118.12H42.36V113.84H43.74V124H42.36V119.12H36.96ZM46.9081 113.84H48.2881V117.92H50.9481H51.5681C52.4348 117.92 53.1215 118.08 53.6281 118.4C54.5081 118.947 54.9481 119.78 54.9481 120.9C54.9481 122.1 54.5148 122.967 53.6481 123.5C53.0881 123.833 52.3548 124 51.4481 124H46.9081V113.84ZM48.2881 118.92V123H50.9681C51.7548 123 52.3348 122.867 52.7081 122.6C53.2415 122.227 53.5081 121.673 53.5081 120.94C53.5081 120.26 53.3148 119.753 52.9281 119.42C52.5548 119.087 51.9015 118.92 50.9681 118.92H48.2881ZM56.2281 113.84H57.6081V124H56.2281V113.84ZM62.1553 122.4L67.7753 113.84H69.3353V124H67.9553V115.42L62.3553 124H60.7753V113.84H62.1553V122.4ZM67.0353 110H68.1953C68.102 110.68 67.8286 111.247 67.3753 111.7C66.8153 112.233 66.042 112.5 65.0553 112.5C64.0686 112.5 63.2953 112.233 62.7353 111.7C62.282 111.247 62.0086 110.68 61.9153 110H63.0753C63.142 110.493 63.322 110.887 63.6153 111.18C63.9353 111.487 64.4153 111.64 65.0553 111.64C65.6953 111.64 66.1753 111.487 66.4953 111.18C66.7886 110.887 66.9686 110.493 67.0353 110ZM82.722 127.7V124.26C80.6554 124.34 79.0754 123.787 77.982 122.6C77.0887 121.613 76.642 120.367 76.642 118.86C76.642 117.247 77.082 116 77.962 115.12C78.5887 114.48 79.3554 114.06 80.262 113.86C81.1687 113.647 81.9887 113.56 82.722 113.6V110H84.102V113.6C86.1554 113.547 87.7087 114.033 88.762 115.06C89.7087 115.967 90.182 117.213 90.182 118.8C90.182 120.453 89.702 121.76 88.742 122.72C87.6354 123.827 86.0887 124.34 84.102 124.26V127.7H82.722ZM82.722 123.26V114.6C81.162 114.533 79.982 114.913 79.182 115.74C78.4487 116.5 78.082 117.54 78.082 118.86C78.082 120.22 78.4687 121.287 79.242 122.06C80.0154 122.86 81.1754 123.26 82.722 123.26ZM84.102 114.6V123.26C85.6087 123.287 86.7754 122.887 87.602 122.06C88.362 121.3 88.742 120.227 88.742 118.84C88.742 117.467 88.3754 116.433 87.642 115.74C87.2154 115.34 86.6687 115.047 86.002 114.86C85.3487 114.66 84.7154 114.573 84.102 114.6ZM100.266 121.06H101.586C101.413 121.887 101.046 122.607 100.486 123.22C99.7261 124.007 98.6461 124.4 97.2461 124.4C95.7794 124.4 94.6328 124.007 93.8061 123.22C92.8061 122.247 92.3061 120.8 92.3061 118.88C92.3061 117.04 92.7728 115.653 93.7061 114.72C94.5594 113.867 95.7061 113.44 97.1461 113.44C98.5328 113.44 99.6128 113.84 100.386 114.64C100.893 115.16 101.226 115.773 101.386 116.48C101.559 117.187 101.666 118.087 101.706 119.18H93.7461C93.7994 120.62 94.1594 121.693 94.8261 122.4C95.4261 123.067 96.2528 123.4 97.3061 123.4C98.1728 123.4 98.8728 123.147 99.4061 122.64C99.7661 122.32 100.053 121.793 100.266 121.06ZM97.1261 114.44C96.0861 114.44 95.2728 114.767 94.6861 115.42C94.0594 116.14 93.7461 117.06 93.7461 118.18H100.246C100.246 117.713 100.159 117.187 99.9861 116.6C99.8128 116.013 99.5728 115.567 99.2661 115.26C98.7461 114.713 98.0328 114.44 97.1261 114.44ZM111.59 120.44H112.91C112.79 121.653 112.35 122.64 111.59 123.4C111.176 123.813 110.736 124.08 110.27 124.2C109.816 124.333 109.276 124.4 108.65 124.4C107.236 124.4 106.143 124.027 105.37 123.28C104.343 122.293 103.83 120.807 103.83 118.82C103.83 117.047 104.263 115.693 105.13 114.76C105.903 113.88 107.05 113.44 108.57 113.44C109.903 113.44 110.936 113.793 111.67 114.5C112.296 115.127 112.676 115.927 112.81 116.9H111.49C111.423 116.273 111.19 115.74 110.79 115.3C110.283 114.727 109.576 114.44 108.67 114.44C107.723 114.44 106.95 114.74 106.35 115.34C105.643 116.047 105.29 117.193 105.29 118.78C105.29 120.473 105.696 121.727 106.51 122.54C107.083 123.113 107.803 123.4 108.67 123.4C109.536 123.4 110.21 123.147 110.69 122.64C111.223 122.067 111.523 121.333 111.59 120.44ZM117.367 114.84H113.827V113.84H122.267V114.84H118.747V124H117.367V114.84ZM124.909 122.4L130.529 113.84H132.089V124H130.709V115.42L125.109 124H123.529V113.84H124.909V122.4ZM135.248 113.84H139.708C140.335 113.84 140.828 113.887 141.188 113.98C141.561 114.06 141.908 114.26 142.228 114.58C142.668 115.02 142.888 115.58 142.888 116.26C142.888 116.993 142.648 117.587 142.168 118.04C141.875 118.32 141.521 118.513 141.108 118.62V118.66C141.775 118.847 142.275 119.107 142.608 119.44C143.048 119.88 143.268 120.48 143.268 121.24C143.268 122.04 143.021 122.687 142.528 123.18C141.968 123.727 141.008 124 139.648 124H135.248V113.84ZM136.628 114.84V118.18H139.288C140.115 118.18 140.708 117.987 141.068 117.6C141.348 117.307 141.488 116.907 141.488 116.4C141.488 115.973 141.361 115.627 141.108 115.36C140.775 115.013 140.201 114.84 139.388 114.84H136.628ZM136.628 119.18V123H139.388C140.321 123 140.968 122.82 141.328 122.46C141.675 122.113 141.848 121.653 141.848 121.08C141.848 120.547 141.688 120.12 141.368 119.8C140.981 119.387 140.301 119.18 139.328 119.18H136.628ZM147.051 116.76H145.711C145.711 115.64 146.151 114.767 147.031 114.14C147.698 113.673 148.651 113.44 149.891 113.44C151.251 113.44 152.244 113.753 152.871 114.38C153.444 114.953 153.718 115.747 153.691 116.76L153.571 121.82C153.571 122.3 153.638 122.613 153.771 122.76C153.998 123.027 154.304 123.107 154.691 123V124C154.531 124.053 154.284 124.08 153.951 124.08C153.418 124.08 153.024 123.953 152.771 123.7C152.451 123.38 152.304 122.94 152.331 122.38C151.984 122.953 151.544 123.387 151.011 123.68C150.358 124.053 149.564 124.24 148.631 124.24C147.524 124.24 146.691 123.967 146.131 123.42C145.571 122.9 145.291 122.187 145.291 121.28C145.291 120.493 145.538 119.853 146.031 119.36C146.591 118.8 147.664 118.433 149.251 118.26L149.911 118.18C150.018 118.167 150.231 118.147 150.551 118.12C150.871 118.08 151.111 118.047 151.271 118.02C151.671 117.953 151.938 117.853 152.071 117.72C152.231 117.547 152.311 117.22 152.311 116.74C152.311 115.967 152.104 115.387 151.691 115C151.264 114.627 150.624 114.44 149.771 114.44C148.798 114.44 148.104 114.647 147.691 115.06C147.291 115.46 147.078 116.027 147.051 116.76ZM152.231 119.66L152.271 118.62C152.098 118.78 151.831 118.893 151.471 118.96C151.044 119.04 150.444 119.113 149.671 119.18L149.271 119.22C148.258 119.34 147.571 119.573 147.211 119.92C146.891 120.24 146.731 120.7 146.731 121.3C146.731 121.86 146.904 122.313 147.251 122.66C147.598 123.047 148.131 123.24 148.851 123.24C149.731 123.24 150.458 123.007 151.031 122.54C151.764 121.94 152.164 120.98 152.231 119.66ZM156.034 124V122.96C156.621 123.107 157.127 122.973 157.554 122.56C158.034 122.08 158.327 121.3 158.434 120.22C158.501 119.7 158.534 118.92 158.534 117.88V117.4V113.84H165.134V124H163.754V114.84H159.834V117.38C159.834 118.287 159.787 119.253 159.694 120.28C159.534 121.453 159.301 122.287 158.994 122.78C158.874 122.98 158.741 123.153 158.594 123.3C157.927 123.953 157.074 124.187 156.034 124ZM168.295 113.84H169.675V117.94H172.435C173.622 117.94 174.475 118.093 174.995 118.4C175.875 118.92 176.315 119.76 176.315 120.92C176.315 121.84 176.048 122.567 175.515 123.1C174.915 123.7 174.015 124 172.815 124H168.295V113.84ZM169.675 118.94V123H172.355C173.102 123 173.668 122.873 174.055 122.62C174.615 122.273 174.895 121.713 174.895 120.94C174.895 120.3 174.722 119.82 174.375 119.5C174.002 119.127 173.375 118.94 172.495 118.94H169.675ZM184.453 116.76H183.113C183.113 115.64 183.553 114.767 184.433 114.14C185.1 113.673 186.053 113.44 187.293 113.44C188.653 113.44 189.647 113.753 190.273 114.38C190.847 114.953 191.12 115.747 191.093 116.76L190.973 121.82C190.973 122.3 191.04 122.613 191.173 122.76C191.4 123.027 191.707 123.107 192.093 123V124C191.933 124.053 191.687 124.08 191.353 124.08C190.82 124.08 190.427 123.953 190.173 123.7C189.853 123.38 189.707 122.94 189.733 122.38C189.387 122.953 188.947 123.387 188.413 123.68C187.76 124.053 186.967 124.24 186.033 124.24C184.927 124.24 184.093 123.967 183.533 123.42C182.973 122.9 182.693 122.187 182.693 121.28C182.693 120.493 182.94 119.853 183.433 119.36C183.993 118.8 185.067 118.433 186.653 118.26L187.313 118.18C187.42 118.167 187.633 118.147 187.953 118.12C188.273 118.08 188.513 118.047 188.673 118.02C189.073 117.953 189.34 117.853 189.473 117.72C189.633 117.547 189.713 117.22 189.713 116.74C189.713 115.967 189.507 115.387 189.093 115C188.667 114.627 188.027 114.44 187.173 114.44C186.2 114.44 185.507 114.647 185.093 115.06C184.693 115.46 184.48 116.027 184.453 116.76ZM189.633 119.66L189.673 118.62C189.5 118.78 189.233 118.893 188.873 118.96C188.447 119.04 187.847 119.113 187.073 119.18L186.673 119.22C185.66 119.34 184.973 119.573 184.613 119.92C184.293 120.24 184.133 120.7 184.133 121.3C184.133 121.86 184.307 122.313 184.653 122.66C185 123.047 185.533 123.24 186.253 123.24C187.133 123.24 187.86 123.007 188.433 122.54C189.167 121.94 189.567 120.98 189.633 119.66ZM200.027 127.7V124.26C197.96 124.34 196.38 123.787 195.287 122.6C194.393 121.613 193.947 120.367 193.947 118.86C193.947 117.247 194.387 116 195.267 115.12C195.893 114.48 196.66 114.06 197.567 113.86C198.473 113.647 199.293 113.56 200.027 113.6V110H201.407V113.6C203.46 113.547 205.013 114.033 206.067 115.06C207.013 115.967 207.487 117.213 207.487 118.8C207.487 120.453 207.007 121.76 206.047 122.72C204.94 123.827 203.393 124.34 201.407 124.26V127.7H200.027ZM200.027 123.26V114.6C198.467 114.533 197.287 114.913 196.487 115.74C195.753 116.5 195.387 117.54 195.387 118.86C195.387 120.22 195.773 121.287 196.547 122.06C197.32 122.86 198.48 123.26 200.027 123.26ZM201.407 114.6V123.26C202.913 123.287 204.08 122.887 204.907 122.06C205.667 121.3 206.047 120.227 206.047 118.84C206.047 117.467 205.68 116.433 204.947 115.74C204.52 115.34 203.973 115.047 203.307 114.86C202.653 114.66 202.02 114.573 201.407 114.6ZM218.887 118.2H228.887V119.16H218.887V118.2ZM35.58 137.84H36.9V139.34H36.94C37.26 138.86 37.68 138.427 38.2 138.04C38.8133 137.64 39.5333 137.44 40.36 137.44C41.5733 137.44 42.5733 137.807 43.36 138.54C44.3467 139.527 44.84 140.953 44.84 142.82C44.84 144.513 44.46 145.867 43.7 146.88C42.9533 147.893 41.8933 148.4 40.52 148.4C39.6267 148.4 38.8733 148.213 38.26 147.84C37.7267 147.507 37.2933 147.04 36.96 146.44V151.7H35.58V137.84ZM36.88 142.96C36.88 144.52 37.2667 145.687 38.04 146.46C38.64 147.087 39.3933 147.4 40.3 147.4C41.06 147.4 41.7133 147.127 42.26 146.58C43.02 145.78 43.4 144.54 43.4 142.86C43.4 141.233 43 140.02 42.2 139.22C41.68 138.7 41 138.44 40.16 138.44C39.3867 138.44 38.7 138.707 38.1 139.24C37.2867 139.973 36.88 141.213 36.88 142.96ZM48.8545 146.4L54.4745 137.84H56.0345V148H54.6545V139.42L49.0545 148H47.4745V137.84H48.8545V146.4ZM60.5733 142.4L65.1933 137.84H66.8333L61.9333 142.56L67.1333 148H65.4133L60.5733 142.82V148H59.1933V137.84H60.5733V142.4ZM69.805 140.76H68.465C68.465 139.64 68.905 138.767 69.785 138.14C70.4517 137.673 71.405 137.44 72.645 137.44C74.005 137.44 74.9983 137.753 75.625 138.38C76.1983 138.953 76.4717 139.747 76.445 140.76L76.325 145.82C76.325 146.3 76.3917 146.613 76.525 146.76C76.7517 147.027 77.0583 147.107 77.445 147V148C77.285 148.053 77.0383 148.08 76.705 148.08C76.1717 148.08 75.7783 147.953 75.525 147.7C75.205 147.38 75.0583 146.94 75.085 146.38C74.7383 146.953 74.2983 147.387 73.765 147.68C73.1117 148.053 72.3183 148.24 71.385 148.24C70.2783 148.24 69.445 147.967 68.885 147.42C68.325 146.9 68.045 146.187 68.045 145.28C68.045 144.493 68.2917 143.853 68.785 143.36C69.345 142.8 70.4183 142.433 72.005 142.26L72.665 142.18C72.7717 142.167 72.985 142.147 73.305 142.12C73.625 142.08 73.865 142.047 74.025 142.02C74.425 141.953 74.6917 141.853 74.825 141.72C74.985 141.547 75.065 141.22 75.065 140.74C75.065 139.967 74.8583 139.387 74.445 139C74.0183 138.627 73.3783 138.44 72.525 138.44C71.5517 138.44 70.8583 138.647 70.445 139.06C70.045 139.46 69.8317 140.027 69.805 140.76ZM74.985 143.66L75.025 142.62C74.8517 142.78 74.585 142.893 74.225 142.96C73.7983 143.04 73.1983 143.113 72.425 143.18L72.025 143.22C71.0117 143.34 70.325 143.573 69.965 143.92C69.645 144.24 69.485 144.7 69.485 145.3C69.485 145.86 69.6583 146.313 70.005 146.66C70.3517 147.047 70.885 147.24 71.605 147.24C72.485 147.24 73.2117 147.007 73.785 146.54C74.5183 145.94 74.9183 144.98 74.985 143.66ZM81.1983 143.12V148H79.8183V137.84H81.1983V142.12H86.5983V137.84H87.9783V148H86.5983V143.12H81.1983ZM98.3864 144.44H99.7064C99.5864 145.653 99.1464 146.64 98.3864 147.4C97.9731 147.813 97.5331 148.08 97.0664 148.2C96.6131 148.333 96.0731 148.4 95.4464 148.4C94.0331 148.4 92.9397 148.027 92.1664 147.28C91.1397 146.293 90.6264 144.807 90.6264 142.82C90.6264 141.047 91.0597 139.693 91.9264 138.76C92.6997 137.88 93.8464 137.44 95.3664 137.44C96.6997 137.44 97.7331 137.793 98.4664 138.5C99.0931 139.127 99.4731 139.927 99.6064 140.9H98.2864C98.2197 140.273 97.9864 139.74 97.5864 139.3C97.0797 138.727 96.3731 138.44 95.4664 138.44C94.5197 138.44 93.7464 138.74 93.1464 139.34C92.4397 140.047 92.0864 141.193 92.0864 142.78C92.0864 144.473 92.4931 145.727 93.3064 146.54C93.8797 147.113 94.5997 147.4 95.4664 147.4C96.3331 147.4 97.0064 147.147 97.4864 146.64C98.0197 146.067 98.3197 145.333 98.3864 144.44ZM103.464 142.4L108.084 137.84H109.724L104.824 142.56L110.024 148H108.304L103.464 142.82V148H102.084V137.84H103.464V142.4ZM115.311 137.44C116.684 137.44 117.791 137.833 118.631 138.62C119.657 139.593 120.171 141.027 120.171 142.92C120.171 144.827 119.631 146.28 118.551 147.28C117.737 148.027 116.664 148.4 115.331 148.4C113.917 148.4 112.824 148.027 112.051 147.28C111.611 146.907 111.231 146.353 110.911 145.62C110.604 144.887 110.451 143.987 110.451 142.92C110.451 141.08 110.964 139.647 111.991 138.62C112.777 137.833 113.884 137.44 115.311 137.44ZM115.311 138.42C114.364 138.42 113.611 138.7 113.051 139.26C112.277 140.033 111.891 141.247 111.891 142.9C111.891 144.607 112.304 145.847 113.131 146.62C113.704 147.14 114.431 147.4 115.311 147.4C116.217 147.4 116.937 147.147 117.471 146.64C118.297 145.88 118.711 144.633 118.711 142.9C118.711 141.313 118.357 140.133 117.651 139.36C117.051 138.733 116.271 138.42 115.311 138.42ZM124.187 146.4L129.807 137.84H131.367V148H129.987V139.42L124.387 148H122.807V137.84H124.187V146.4ZM129.067 134H130.227C130.133 134.68 129.86 135.247 129.407 135.7C128.847 136.233 128.073 136.5 127.087 136.5C126.1 136.5 125.327 136.233 124.767 135.7C124.313 135.247 124.04 134.68 123.947 134H125.107C125.173 134.493 125.353 134.887 125.647 135.18C125.967 135.487 126.447 135.64 127.087 135.64C127.727 135.64 128.207 135.487 128.527 135.18C128.82 134.887 129 134.493 129.067 134ZM140.573 142.4L145.193 137.84H146.833L141.933 142.56L147.133 148H145.413L140.573 142.82V148H139.193V137.84H140.573V142.4ZM148.905 151.68V150.64C149.105 150.693 149.365 150.72 149.685 150.72C150.112 150.72 150.438 150.62 150.665 150.42C150.878 150.233 151.072 149.86 151.245 149.3L151.665 148L147.385 137.84H149.045L152.405 146.46L155.325 137.84H156.705L152.525 149.54C152.192 150.447 151.892 151.02 151.625 151.26C151.252 151.607 150.718 151.78 150.025 151.78C149.652 151.78 149.278 151.747 148.905 151.68ZM156.815 148V146.96C157.402 147.107 157.909 146.973 158.335 146.56C158.815 146.08 159.109 145.3 159.215 144.22C159.282 143.7 159.315 142.92 159.315 141.88V141.4V137.84H165.915V148H164.535V138.84H160.615V141.38C160.615 142.287 160.569 143.253 160.475 144.28C160.315 145.453 160.082 146.287 159.775 146.78C159.655 146.98 159.522 147.153 159.375 147.3C158.709 147.953 157.855 148.187 156.815 148ZM169.076 137.84H170.456V141.94H173.216C174.403 141.94 175.256 142.093 175.776 142.4C176.656 142.92 177.096 143.76 177.096 144.92C177.096 145.84 176.829 146.567 176.296 147.1C175.696 147.7 174.796 148 173.596 148H169.076V137.84ZM170.456 142.94V147H173.136C173.883 147 174.449 146.873 174.836 146.62C175.396 146.273 175.676 145.713 175.676 144.94C175.676 144.3 175.503 143.82 175.156 143.5C174.783 143.127 174.156 142.94 173.276 142.94H170.456ZM180.277 138.84H176.737V137.84H185.177V138.84H181.657V148H180.277V138.84ZM187.499 151.68V150.64C187.699 150.693 187.959 150.72 188.279 150.72C188.705 150.72 189.032 150.62 189.259 150.42C189.472 150.233 189.665 149.86 189.839 149.3L190.259 148L185.979 137.84H187.639L190.999 146.46L193.919 137.84H195.299L191.119 149.54C190.785 150.447 190.485 151.02 190.219 151.26C189.845 151.607 189.312 151.78 188.619 151.78C188.245 151.78 187.872 151.747 187.499 151.68ZM196.869 137.84H198.189V139.34H198.229C198.549 138.86 198.969 138.427 199.489 138.04C200.102 137.64 200.822 137.44 201.649 137.44C202.862 137.44 203.862 137.807 204.649 138.54C205.636 139.527 206.129 140.953 206.129 142.82C206.129 144.513 205.749 145.867 204.989 146.88C204.242 147.893 203.182 148.4 201.809 148.4C200.916 148.4 200.162 148.213 199.549 147.84C199.016 147.507 198.582 147.04 198.249 146.44V151.7H196.869V137.84ZM198.169 142.96C198.169 144.52 198.556 145.687 199.329 146.46C199.929 147.087 200.682 147.4 201.589 147.4C202.349 147.4 203.002 147.127 203.549 146.58C204.309 145.78 204.689 144.54 204.689 142.86C204.689 141.233 204.289 140.02 203.489 139.22C202.969 138.7 202.289 138.44 201.449 138.44C200.676 138.44 199.989 138.707 199.389 139.24C198.576 139.973 198.169 141.213 198.169 142.96ZM208.764 137.84H210.144V141.92H212.804H213.424C214.29 141.92 214.977 142.08 215.484 142.4C216.364 142.947 216.804 143.78 216.804 144.9C216.804 146.1 216.37 146.967 215.504 147.5C214.944 147.833 214.21 148 213.304 148H208.764V137.84ZM210.144 142.92V147H212.824C213.61 147 214.19 146.867 214.564 146.6C215.097 146.227 215.364 145.673 215.364 144.94C215.364 144.26 215.17 143.753 214.784 143.42C214.41 143.087 213.757 142.92 212.824 142.92H210.144ZM218.084 137.84H219.464V148H218.084V137.84Z" fill="white"/>
<circle cx="17" cy="17" r="17" fill="#FF2E10"/>
</svg>
