<svg width="913" height="418" viewBox="0 0 913 418" fill="none" xmlns="http://www.w3.org/2000/svg">
<path d="M34.56 62.16C31.84 62.16 29.32 61.48 27 60.12C24.68 58.76 22.84 56.92 21.48 54.6C20.12 52.2 19.44 49.64 19.44 46.92C19.44 44.2 20.12 41.68 21.48 39.36C22.84 37.04 24.68 35.2 27 33.84C29.32 32.48 31.84 31.8 34.56 31.8L34.56 24C30.4 24 26.56 25.04 23.04 27.12C19.6 29.2 16.84 32 14.76 35.52C12.68 38.96 11.64 42.76 11.64 46.92C11.64 51.08 12.68 54.92 14.76 58.44C16.84 61.96 19.6 64.76 23.04 66.84C26.56 68.84 30.4 69.84 34.56 69.84L34.56 62.16ZM47.16 24L39.6 24L39.6 108L47.16 108L47.16 24ZM37.56 78.24L31.56 73.32L6.6 104.52L12.6 109.32L37.56 78.24ZM71.2931 24L63.7331 24L63.7331 108L71.2931 108L71.2931 24ZM76.6931 69.72C80.8531 69.72 84.6531 68.72 88.0931 66.72C91.6131 64.64 94.3731 61.84 96.3731 58.32C98.4531 54.8 99.4931 51 99.4931 46.92C99.4931 42.76 98.4531 38.96 96.3731 35.52C94.3731 32 91.6131 29.2 88.0931 27.12C84.6531 25.04 80.8531 24 76.6931 24L76.6931 31.68C79.4131 31.68 81.9331 32.4 84.2531 33.84C86.5731 35.2 88.4131 37.04 89.7731 39.36C91.2131 41.68 91.9331 44.2 91.9331 46.92C91.9331 49.64 91.2131 52.16 89.7731 54.48C88.4131 56.8 86.5731 58.68 84.2531 60.12C81.9331 61.48 79.4131 62.16 76.6931 62.16L76.6931 69.72ZM184.017 24.48L176.697 22.92L158.457 107.76L165.897 109.32L184.017 24.48ZM155.577 107.76L137.337 23.16L130.017 24.72L148.137 109.32L155.577 107.76ZM127.377 25.44L119.577 24.12L105.417 108L113.337 109.32L127.377 25.44ZM207.297 108L194.577 24.24L186.657 25.32L199.377 109.2L207.297 108ZM303.646 66L303.646 108L296.086 108L296.086 83.52C292.646 91.28 287.366 97.52 280.246 102.24C273.126 106.96 265.206 109.32 256.486 109.32C248.646 109.32 241.406 107.36 234.766 103.44C228.126 99.44 222.846 94.08 218.926 87.36C215.006 80.56 213.046 73.2 213.046 65.28C213.046 57.36 214.966 50.16 218.806 43.68C222.726 37.12 228.006 32 234.646 28.32C241.366 24.56 248.646 22.68 256.486 22.68C264.326 22.68 271.566 24.64 278.206 28.56C284.846 32.4 290.086 37.64 293.926 44.28C297.846 50.92 299.806 58.16 299.806 66L303.646 66ZM256.486 101.64C262.966 101.64 268.926 100.04 274.366 96.84C279.806 93.64 284.126 89.32 287.326 83.88C290.526 78.44 292.126 72.48 292.126 66C292.126 59.6 290.526 53.68 287.326 48.24C284.126 42.8 279.806 38.48 274.366 35.28C268.926 32 262.966 30.36 256.486 30.36C250.006 30.36 244.046 32 238.606 35.28C233.166 38.48 228.846 42.8 225.646 48.24C222.446 53.68 220.846 59.6 220.846 66C220.846 72.48 222.446 78.44 225.646 83.88C228.846 89.32 233.166 93.64 238.606 96.84C244.046 100.04 250.006 101.64 256.486 101.64ZM327.817 24L320.257 24L320.257 108L327.817 108L327.817 24ZM333.217 69.72C337.377 69.72 341.177 68.72 344.617 66.72C348.137 64.64 350.897 61.84 352.897 58.32C354.977 54.8 356.017 51 356.017 46.92C356.017 42.76 354.977 38.96 352.897 35.52C350.897 32 348.137 29.2 344.617 27.12C341.177 25.04 337.377 24 333.217 24L333.217 31.68C335.937 31.68 338.457 32.4 340.777 33.84C343.097 35.2 344.937 37.04 346.297 39.36C347.737 41.68 348.457 44.2 348.457 46.92C348.457 49.64 347.737 52.16 346.297 54.48C344.937 56.8 343.097 58.68 340.777 60.12C338.457 61.48 335.937 62.16 333.217 62.16L333.217 69.72ZM380.661 50.16L385.821 55.44L415.701 26.52L410.541 21.24L380.661 50.16ZM375.861 24L368.421 24L368.421 108L375.861 108L375.861 24ZM386.181 58.92L380.301 63.48L415.581 109.32L421.461 104.76L386.181 58.92ZM516.576 66L516.576 108L509.016 108L509.016 83.52C505.576 91.28 500.296 97.52 493.176 102.24C486.056 106.96 478.136 109.32 469.416 109.32C461.576 109.32 454.336 107.36 447.696 103.44C441.056 99.44 435.776 94.08 431.856 87.36C427.936 80.56 425.976 73.2 425.976 65.28C425.976 57.36 427.896 50.16 431.736 43.68C435.656 37.12 440.936 32 447.576 28.32C454.296 24.56 461.576 22.68 469.416 22.68C477.256 22.68 484.496 24.64 491.136 28.56C497.776 32.4 503.016 37.64 506.856 44.28C510.776 50.92 512.736 58.16 512.736 66L516.576 66ZM469.416 101.64C475.896 101.64 481.856 100.04 487.296 96.84C492.736 93.64 497.056 89.32 500.256 83.88C503.456 78.44 505.056 72.48 505.056 66C505.056 59.6 503.456 53.68 500.256 48.24C497.056 42.8 492.736 38.48 487.296 35.28C481.856 32 475.896 30.36 469.416 30.36C462.936 30.36 456.976 32 451.536 35.28C446.096 38.48 441.776 42.8 438.576 48.24C435.376 53.68 433.776 59.6 433.776 66C433.776 72.48 435.376 78.44 438.576 83.88C441.776 89.32 446.096 93.64 451.536 96.84C456.976 100.04 462.936 101.64 469.416 101.64Z" fill="black"/>
<path d="M94.56 239L94.56 281L87 281L87 256.52C83.56 264.28 78.28 270.52 71.16 275.24C64.04 279.96 56.12 282.32 47.4 282.32C39.56 282.32 32.32 280.36 25.68 276.44C19.04 272.44 13.76 267.08 9.84 260.36C5.92 253.56 3.96 246.2 3.96 238.28C3.96 230.36 5.88 223.16 9.72 216.68C13.64 210.12 18.92 205 25.56 201.32C32.28 197.56 39.56 195.68 47.4 195.68C55.24 195.68 62.48 197.64 69.12 201.56C75.76 205.4 81 210.64 84.84 217.28C88.76 223.92 90.72 231.16 90.72 239L94.56 239ZM47.4 274.64C53.88 274.64 59.84 273.04 65.28 269.84C70.72 266.64 75.04 262.32 78.24 256.88C81.44 251.44 83.04 245.48 83.04 239C83.04 232.6 81.44 226.68 78.24 221.24C75.04 215.8 70.72 211.48 65.28 208.28C59.84 205 53.88 203.36 47.4 203.36C40.92 203.36 34.96 205 29.52 208.28C24.08 211.48 19.76 215.8 16.56 221.24C13.36 226.68 11.76 232.6 11.76 239C11.76 245.48 13.36 251.44 16.56 256.88C19.76 262.32 24.08 266.64 29.52 269.84C34.96 273.04 40.92 274.64 47.4 274.64ZM152.931 197L145.371 197L145.371 281L152.931 281L152.931 197ZM139.971 264.2C135.411 264.2 131.171 263.08 127.251 260.84C123.411 258.52 120.331 255.44 118.011 251.6C115.771 247.76 114.651 243.56 114.651 239C114.651 234.44 115.771 230.24 118.011 226.4C120.331 222.48 123.411 219.4 127.251 217.16C131.171 214.84 135.411 213.68 139.971 213.68L139.971 206.12C133.971 206.12 128.451 207.6 123.411 210.56C118.371 213.44 114.371 217.4 111.411 222.44C108.451 227.48 106.971 233 106.971 239C106.971 244.92 108.451 250.4 111.411 255.44C114.371 260.48 118.371 264.48 123.411 267.44C128.451 270.32 133.971 271.76 139.971 271.76L139.971 264.2ZM158.331 271.76C164.251 271.76 169.731 270.32 174.771 267.44C179.811 264.48 183.811 260.48 186.771 255.44C189.731 250.4 191.211 244.92 191.211 239C191.211 233 189.731 227.48 186.771 222.44C183.811 217.4 179.811 213.44 174.771 210.56C169.731 207.6 164.251 206.12 158.331 206.12L158.331 213.68C162.891 213.68 167.091 214.84 170.931 217.16C174.851 219.4 177.931 222.48 180.171 226.4C182.491 230.24 183.651 234.44 183.651 239C183.651 243.56 182.491 247.76 180.171 251.6C177.931 255.44 174.851 258.52 170.931 260.84C167.091 263.08 162.891 264.2 158.331 264.2L158.331 271.76ZM211.074 197L203.514 197L203.514 281L211.074 281L211.074 197ZM216.474 242.72C220.634 242.72 224.434 241.72 227.874 239.72C231.394 237.64 234.154 234.84 236.154 231.32C238.234 227.8 239.274 224 239.274 219.92C239.274 215.76 238.234 211.96 236.154 208.52C234.154 205 231.394 202.2 227.874 200.12C224.434 198.04 220.634 197 216.474 197L216.474 204.68C219.194 204.68 221.714 205.4 224.034 206.84C226.354 208.2 228.194 210.04 229.554 212.36C230.994 214.68 231.714 217.2 231.714 219.92C231.714 222.64 230.994 225.16 229.554 227.48C228.194 229.8 226.354 231.68 224.034 233.12C221.714 234.48 219.194 235.16 216.474 235.16L216.474 242.72ZM259.238 197L251.678 197L251.678 281L259.238 281L259.238 197ZM303.638 197L296.078 197L296.078 281L303.638 281L303.638 197ZM293.558 209L286.478 206.24L261.998 267.92L269.198 270.8L293.558 209ZM332.473 223.16L337.633 228.44L367.513 199.52L362.353 194.24L332.473 223.16ZM327.673 197L320.233 197L320.233 281L327.673 281L327.673 197ZM337.993 231.92L332.113 236.48L367.393 282.32L373.273 277.76L337.993 231.92ZM468.388 239L468.388 281L460.828 281L460.828 256.52C457.388 264.28 452.108 270.52 444.988 275.24C437.868 279.96 429.948 282.32 421.228 282.32C413.388 282.32 406.148 280.36 399.508 276.44C392.868 272.44 387.588 267.08 383.668 260.36C379.748 253.56 377.788 246.2 377.788 238.28C377.788 230.36 379.708 223.16 383.548 216.68C387.468 210.12 392.748 205 399.388 201.32C406.108 197.56 413.388 195.68 421.228 195.68C429.068 195.68 436.308 197.64 442.948 201.56C449.588 205.4 454.828 210.64 458.668 217.28C462.588 223.92 464.548 231.16 464.548 239L468.388 239ZM421.228 274.64C427.708 274.64 433.668 273.04 439.108 269.84C444.548 266.64 448.868 262.32 452.068 256.88C455.268 251.44 456.868 245.48 456.868 239C456.868 232.6 455.268 226.68 452.068 221.24C448.868 215.8 444.548 211.48 439.108 208.28C433.668 205 427.708 203.36 421.228 203.36C414.748 203.36 408.788 205 403.348 208.28C397.908 211.48 393.588 215.8 390.388 221.24C387.188 226.68 385.588 232.6 385.588 239C385.588 245.48 387.188 251.44 390.388 256.88C393.588 262.32 397.908 266.64 403.348 269.84C408.788 273.04 414.748 274.64 421.228 274.64ZM492.559 197L484.999 197L484.999 281L492.559 281L492.559 197ZM531.319 197L523.759 197L523.759 281L531.319 281L531.319 197ZM518.359 235.28L497.959 235.28L497.959 242.84L518.359 242.84L518.359 235.28ZM586.808 282.32C592.328 282.32 597.728 281.24 603.008 279.08C608.288 276.84 613.008 273.64 617.168 269.48L611.648 263.84C608.288 267.2 604.408 269.76 600.008 271.52C595.688 273.28 591.248 274.16 586.688 274.16C582.128 274.16 577.648 273.28 573.248 271.52C568.928 269.76 565.048 267.2 561.608 263.84C558.248 260.4 555.688 256.52 553.928 252.2C552.248 247.88 551.408 243.44 551.408 238.88C551.408 234.32 552.248 229.88 553.928 225.56C555.688 221.24 558.248 217.36 561.608 213.92C565.048 210.56 568.928 208 573.248 206.24C577.648 204.48 582.128 203.6 586.688 203.6C591.248 203.6 595.688 204.48 600.008 206.24C604.408 208 608.288 210.56 611.648 213.92L617.168 208.52C613.008 204.36 608.288 201.2 603.008 199.04C597.728 196.8 592.288 195.68 586.688 195.68C581.088 195.68 575.608 196.8 570.248 199.04C564.968 201.2 560.248 204.36 556.088 208.52C552.008 212.6 548.928 217.28 546.848 222.56C544.768 227.84 543.728 233.32 543.728 239C543.728 244.68 544.768 250.16 546.848 255.44C548.928 260.72 552.008 265.4 556.088 269.48C560.248 273.64 564.968 276.84 570.248 279.08C575.608 281.24 581.128 282.32 586.808 282.32ZM643.137 223.16L648.297 228.44L678.177 199.52L673.017 194.24L643.137 223.16ZM638.337 197L630.897 197L630.897 281L638.337 281L638.337 197ZM648.657 231.92L642.777 236.48L678.057 282.32L683.937 277.76L648.657 231.92ZM732.012 282.32C739.852 282.32 747.092 280.4 753.732 276.56C760.372 272.64 765.612 267.36 769.452 260.72C773.372 254.08 775.332 246.84 775.332 239C775.332 231.16 773.372 223.92 769.452 217.28C765.612 210.64 760.372 205.4 753.732 201.56C747.092 197.64 739.852 195.68 732.012 195.68C724.172 195.68 716.892 197.56 710.172 201.32C703.532 205 698.252 210.12 694.332 216.68C690.492 223.16 688.572 230.36 688.572 238.28C688.572 246.2 690.532 253.56 694.452 260.36C698.372 267.08 703.652 272.44 710.292 276.44C716.932 280.36 724.172 282.32 732.012 282.32ZM732.012 203.36C738.492 203.36 744.452 205 749.892 208.28C755.332 211.48 759.652 215.8 762.852 221.24C766.052 226.68 767.652 232.6 767.652 239C767.652 245.48 766.052 251.44 762.852 256.88C759.652 262.32 755.332 266.64 749.892 269.84C744.452 273.04 738.492 274.64 732.012 274.64C725.532 274.64 719.572 273.04 714.132 269.84C708.692 266.64 704.372 262.32 701.172 256.88C697.972 251.44 696.372 245.48 696.372 239C696.372 232.6 697.972 226.68 701.172 221.24C704.372 215.8 708.692 211.48 714.132 208.28C719.572 205 725.532 203.36 732.012 203.36ZM813.494 193.64C817.654 193.64 821.494 192.6 825.014 190.52C828.534 188.44 831.294 185.64 833.294 182.12C835.374 178.6 836.414 174.76 836.414 170.6L828.854 170.6C828.854 173.4 828.134 176 826.694 178.4C825.334 180.72 823.454 182.56 821.054 183.92C818.734 185.28 816.214 185.96 813.494 185.96C810.774 185.96 808.214 185.28 805.814 183.92C803.494 182.56 801.614 180.72 800.174 178.4C798.814 176 798.134 173.4 798.134 170.6L790.574 170.6C790.574 174.76 791.574 178.6 793.574 182.12C795.654 185.64 798.454 188.44 801.974 190.52C805.494 192.6 809.334 193.64 813.494 193.64ZM795.254 197L787.694 197L787.694 281L795.254 281L795.254 197ZM839.654 197L832.094 197L832.094 281L839.654 281L839.654 197ZM829.574 209L822.494 206.24L798.014 267.92L805.214 270.8L829.574 209Z" fill="black"/>
<path d="M54.6 305L8.28 305L8.28 312.56L54.6 312.56L54.6 305ZM15.84 317.96L8.28 317.96L8.28 389L15.84 389L15.84 317.96ZM54.6 317.96L47.04 317.96L47.04 389L54.6 389L54.6 317.96ZM78.7697 305L71.2097 305L71.2097 389L78.7697 389L78.7697 305ZM84.1697 350.72C88.3297 350.72 92.1297 349.72 95.5697 347.72C99.0897 345.64 101.85 342.84 103.85 339.32C105.93 335.8 106.97 332 106.97 327.92C106.97 323.76 105.93 319.96 103.85 316.52C101.85 313 99.0897 310.2 95.5697 308.12C92.1297 306.04 88.3297 305 84.1697 305L84.1697 312.68C86.8897 312.68 89.4097 313.4 91.7297 314.84C94.0497 316.2 95.8897 318.04 97.2497 320.36C98.6897 322.68 99.4097 325.2 99.4097 327.92C99.4097 330.64 98.6897 333.16 97.2497 335.48C95.8897 337.8 94.0497 339.68 91.7297 341.12C89.4097 342.48 86.8897 343.16 84.1697 343.16L84.1697 350.72ZM158.614 390.32C166.454 390.32 173.694 388.4 180.334 384.56C186.974 380.64 192.214 375.36 196.054 368.72C199.974 362.08 201.934 354.84 201.934 347C201.934 339.16 199.974 331.92 196.054 325.28C192.214 318.64 186.974 313.4 180.334 309.56C173.694 305.64 166.454 303.68 158.614 303.68C150.774 303.68 143.494 305.56 136.774 309.32C130.134 313 124.854 318.12 120.934 324.68C117.094 331.16 115.174 338.36 115.174 346.28C115.174 354.2 117.134 361.56 121.054 368.36C124.974 375.08 130.254 380.44 136.894 384.44C143.534 388.36 150.774 390.32 158.614 390.32ZM158.614 311.36C165.094 311.36 171.054 313 176.494 316.28C181.934 319.48 186.254 323.8 189.454 329.24C192.654 334.68 194.254 340.6 194.254 347C194.254 353.48 192.654 359.44 189.454 364.88C186.254 370.32 181.934 374.64 176.494 377.84C171.054 381.04 165.094 382.64 158.614 382.64C152.134 382.64 146.174 381.04 140.734 377.84C135.294 374.64 130.974 370.32 127.774 364.88C124.574 359.44 122.974 353.48 122.974 347C122.974 340.6 124.574 334.68 127.774 329.24C130.974 323.8 135.294 319.48 140.734 316.28C146.174 313 152.134 311.36 158.614 311.36ZM249.936 307.76L242.856 305L215.376 374L222.456 376.76L249.936 307.76ZM260.736 305L253.176 305L253.176 376.04L260.736 376.04L260.736 305ZM268.296 381.44L207.816 381.44L207.816 405.2L215.376 405.2L215.376 389L260.736 389L260.736 405.2L268.296 405.2L268.296 381.44ZM309.904 338.48L304.024 343.52L274.144 308.84L280.024 303.68L309.904 338.48ZM321.064 305L321.064 367.04C321.064 371.2 320.024 375.04 317.944 378.56C315.944 382.08 313.184 384.88 309.664 386.96C306.144 389.04 302.304 390.08 298.144 390.08C293.984 390.08 290.144 389.04 286.624 386.96C283.104 384.88 280.304 382.08 278.224 378.56C276.224 375.04 275.224 371.2 275.224 367.04L282.784 367.04C282.784 369.84 283.464 372.44 284.824 374.84C286.264 377.16 288.144 379 290.464 380.36C292.864 381.72 295.424 382.4 298.144 382.4C300.864 382.4 303.384 381.72 305.704 380.36C308.104 379 309.984 377.16 311.344 374.84C312.784 372.44 313.504 369.84 313.504 367.04L313.504 305L321.064 305ZM349.817 331.16L354.977 336.44L384.857 307.52L379.697 302.24L349.817 331.16ZM345.017 305L337.577 305L337.577 389L345.017 389L345.017 305ZM355.337 339.92L349.457 344.48L384.737 390.32L390.617 385.76L355.337 339.92ZM452.732 367.04L452.732 405.2L445.172 405.2L445.172 369.44C444.772 373.28 443.492 376.8 441.332 380C439.252 383.12 436.532 385.6 433.172 387.44C429.892 389.2 426.292 390.08 422.372 390.08C418.212 390.08 414.372 389.04 410.852 386.96C407.332 384.88 404.532 382.08 402.452 378.56C400.452 375.04 399.452 371.2 399.452 367.04L399.452 305L407.012 305L407.012 367.04C407.012 369.84 407.692 372.44 409.052 374.84C410.492 377.16 412.372 379 414.692 380.36C417.092 381.72 419.652 382.4 422.372 382.4C425.092 382.4 427.612 381.72 429.932 380.36C432.332 379 434.212 377.16 435.572 374.84C437.012 372.44 437.732 369.84 437.732 367.04L437.732 305L445.292 305L445.292 367.04L452.732 367.04ZM472.168 305L464.608 305L464.608 389L472.168 389L472.168 305ZM516.568 305L509.008 305L509.008 389L516.568 389L516.568 305ZM506.488 317L499.408 314.24L474.928 375.92L482.128 378.8L506.488 317ZM540.723 305L533.163 305L533.163 389L540.723 389L540.723 305ZM585.123 305L577.563 305L577.563 389L585.123 389L585.123 305ZM575.043 317L567.963 314.24L543.483 375.92L550.683 378.8L575.043 317Z" fill="black"/>
<path d="M31.4407 131L84.7636 173.181L131.603 132.061L180.139 174.191L239.131 133.2L299.819 175.459L356.233 134.441L402.559 176.548L456.395 135.502" stroke="black" stroke-width="15"/>
<mask id="mask0_186_2" style="mask-type:alpha" maskUnits="userSpaceOnUse" x="527" y="28" width="347" height="80">
<rect x="527" y="28" width="347" height="80" fill="#C4C4C4"/>
</mask>
<g mask="url(#mask0_186_2)">
<path d="M551.441 45L604.764 87.1812L651.603 46.061L700.139 88.1915L759.131 47.2001L819.819 89.4593L876.233 48.4405L922.559 90.5476L976.395 49.5015" stroke="black" stroke-width="15"/>
</g>
<mask id="mask1_186_2" style="mask-type:alpha" maskUnits="userSpaceOnUse" x="596" y="304" width="278" height="79">
<rect x="596" y="304" width="278" height="79" fill="#C4C4C4"/>
</mask>
<g mask="url(#mask1_186_2)">
<path d="M615.441 331L668.764 373.181L715.603 332.061L764.139 374.191L823.131 333.2L883.819 375.459L940.233 334.441L986.559 376.548L1040.4 335.502" stroke="black" stroke-width="15"/>
</g>
<path fill-rule="evenodd" clip-rule="evenodd" d="M499.495 111.606L456.037 190.406L543.027 190.364L499.495 111.606ZM499.507 136.179L476.156 178.519L522.897 178.497L499.507 136.179Z" fill="black"/>
<path fill-rule="evenodd" clip-rule="evenodd" d="M658.108 111.804L615.011 190.802L702 190.363L658.108 111.804ZM658.232 136.378L635.076 178.824L681.815 178.588L658.232 136.378Z" fill="black"/>
<path d="M578.282 190.252L533.894 111.11L621.608 110.524L578.282 190.252Z" fill="black"/>
</svg>
