<svg width="171" height="44" viewBox="0 0 171 44" fill="none" xmlns="http://www.w3.org/2000/svg">
<path d="M46.0886 22V43H42.3086V30.76C40.5886 34.64 37.9486 37.76 34.3886 40.12C30.8286 42.48 26.8686 43.66 22.5086 43.66C18.5886 43.66 14.9686 42.68 11.6486 40.72C8.32859 38.72 5.68859 36.04 3.72859 32.68C1.76859 29.28 0.788594 25.6 0.788594 21.64C0.788594 17.68 1.74859 14.08 3.66859 10.84C5.62859 7.56 8.26859 5 11.5886 3.16C14.9486 1.28 18.5886 0.339998 22.5086 0.339998C26.4286 0.339998 30.0486 1.32 33.3686 3.28C36.6886 5.2 39.3086 7.82 41.2286 11.14C43.1886 14.46 44.1686 18.08 44.1686 22H46.0886ZM22.5086 39.82C25.7486 39.82 28.7286 39.02 31.4486 37.42C34.1686 35.82 36.3286 33.66 37.9286 30.94C39.5286 28.22 40.3286 25.24 40.3286 22C40.3286 18.8 39.5286 15.84 37.9286 13.12C36.3286 10.4 34.1686 8.24 31.4486 6.64C28.7286 5 25.7486 4.18 22.5086 4.18C19.2686 4.18 16.2886 5 13.5686 6.64C10.8486 8.24 8.68859 10.4 7.08859 13.12C5.48859 15.84 4.68859 18.8 4.68859 22C4.68859 25.24 5.48859 28.22 7.08859 30.94C8.68859 33.66 10.8486 35.82 13.5686 37.42C16.2886 39.02 19.2686 39.82 22.5086 39.82ZM58.1739 0.999997V16.6H70.9539V20.38H58.1739V43H54.3939V0.999997H58.1739ZM60.8739 0.999997H70.9539V4.78H60.8739V0.999997ZM80.8497 0.999997V16.6H93.6297V20.38H80.8497V43H77.0697V0.999997H80.8497ZM83.5497 0.999997H93.6297V4.78H83.5497V0.999997ZM103.525 0.999997V16.6H116.305V20.38H103.525V43H99.7455V0.999997H103.525ZM106.225 0.999997H116.305V4.78H106.225V0.999997ZM106.225 43V39.22H116.305V43H106.225ZM132.377 20.08C134.497 20.08 136.457 20.62 138.257 21.7C140.097 22.74 141.537 24.18 142.577 26.02C143.657 27.82 144.197 29.78 144.197 31.9C144.197 34.02 143.657 35.98 142.577 37.78C141.537 39.58 140.097 41.02 138.257 42.1C136.457 43.14 134.497 43.66 132.377 43.66C130.257 43.66 128.297 43.14 126.497 42.1C124.697 41.02 123.257 39.58 122.177 37.78C121.137 35.98 120.617 34.02 120.617 31.9H124.397C124.397 33.34 124.757 34.68 125.477 35.92C126.197 37.12 127.157 38.08 128.357 38.8C129.597 39.52 130.937 39.88 132.377 39.88C133.817 39.88 135.137 39.52 136.337 38.8C137.577 38.08 138.557 37.12 139.277 35.92C139.997 34.68 140.357 33.34 140.357 31.9C140.357 30.46 139.997 29.14 139.277 27.94C138.557 26.7 137.577 25.72 136.337 25C135.137 24.28 133.817 23.92 132.377 23.92C130.257 23.92 128.297 23.4 126.497 22.36C124.697 21.28 123.257 19.84 122.177 18.04C121.137 16.24 120.617 14.28 120.617 12.16C120.617 10.04 121.137 8.08 122.177 6.28C123.257 4.44 124.697 3 126.497 1.96C128.297 0.879999 130.257 0.339998 132.377 0.339998C134.537 0.339998 136.517 0.879999 138.317 1.96C140.117 3 141.537 4.44 142.577 6.28C143.657 8.08 144.197 10.04 144.197 12.16H140.357C140.357 10.72 139.997 9.4 139.277 8.2C138.557 6.96 137.577 5.98 136.337 5.26C135.137 4.54 133.817 4.18 132.377 4.18C130.977 4.18 129.657 4.54 128.417 5.26C127.177 5.98 126.197 6.96 125.477 8.2C124.757 9.4 124.397 10.72 124.397 12.16C124.397 13.6 124.757 14.92 125.477 16.12C126.197 17.32 127.177 18.28 128.417 19C129.657 19.72 130.977 20.08 132.377 20.08ZM170.29 0.999997H147.13V4.78H170.29V0.999997ZM160.63 7.48H156.85V43H160.63V7.48Z" fill="white"/>
</svg>
