<svg width="255" height="188" viewBox="0 0 255 188" fill="none" xmlns="http://www.w3.org/2000/svg">
<rect x="21" y="11" width="234" height="177" fill="black"/>
<path d="M40.39 32.4L43.09 32.4C43.17 31.6 43.32 30.82 43.54 30.06C43.76 29.28 44.12 28.48 44.62 27.66C45.14 26.82 45.76 26.1 46.48 25.5C47.2 24.88 48.14 24.37 49.3 23.97C50.48 23.57 51.8 23.37 53.26 23.37C53.66 23.37 54.04 23.39 54.4 23.43C54.78 23.45 55.34 23.54 56.08 23.7C56.82 23.84 57.49 24.05 58.09 24.33C58.69 24.59 59.34 25 60.04 25.56C60.76 26.12 61.36 26.78 61.84 27.54C62.32 28.28 62.72 29.26 63.04 30.48C63.38 31.68 63.55 33.02 63.55 34.5C63.55 35.98 63.38 37.33 63.04 38.55C62.72 39.75 62.32 40.73 61.84 41.49C61.36 42.23 60.76 42.88 60.04 43.44C59.34 44 58.69 44.42 58.09 44.7C57.49 44.96 56.82 45.16 56.08 45.3C55.34 45.46 54.78 45.55 54.4 45.57C54.04 45.61 53.66 45.63 53.26 45.63C51.74 45.63 50.38 45.42 49.18 45C47.98 44.56 47.01 44.01 46.27 43.35C45.55 42.69 44.94 41.9 44.44 40.98C43.94 40.06 43.59 39.17 43.39 38.31C43.19 37.43 43.06 36.52 43 35.58L40.39 35.58L40.39 45L36.55 45L36.55 24L40.39 24L40.39 32.4ZM50.14 41.7C51 42.2 52.04 42.45 53.26 42.45C54.48 42.45 55.52 42.2 56.38 41.7C57.24 41.18 57.88 40.5 58.3 39.66C58.72 38.82 59.01 37.98 59.17 37.14C59.35 36.3 59.44 35.42 59.44 34.5C59.44 33.58 59.35 32.7 59.17 31.86C59.01 31.02 58.72 30.18 58.3 29.34C57.88 28.5 57.24 27.83 56.38 27.33C55.52 26.81 54.48 26.55 53.26 26.55C52.04 26.55 51 26.81 50.14 27.33C49.28 27.83 48.64 28.5 48.22 29.34C47.8 30.18 47.5 31.02 47.32 31.86C47.16 32.7 47.08 33.58 47.08 34.5C47.08 35.42 47.16 36.3 47.32 37.14C47.5 37.98 47.8 38.82 48.22 39.66C48.64 40.5 49.28 41.18 50.14 41.7ZM69.8716 40.59L68.3416 45L64.2316 45L72.1516 24L75.9916 24L83.9116 45L79.8016 45L78.2716 40.59L69.8716 40.59ZM70.8916 37.41L77.2516 37.41L74.0716 28.08L70.8916 37.41ZM86.3547 24L94.7247 24C95.5247 24 96.2347 24.03 96.8547 24.09C97.4947 24.15 98.2047 24.31 98.9847 24.57C99.7847 24.83 100.445 25.19 100.965 25.65C101.505 26.09 101.955 26.73 102.315 27.57C102.695 28.39 102.885 29.37 102.885 30.51C102.885 32.57 102.235 34.21 100.935 35.43C99.6347 36.65 97.5547 37.26 94.6947 37.26L90.1947 37.26L90.1947 45L86.3547 45L86.3547 24ZM90.1947 27.18L90.1947 34.08L94.6647 34.08C95.2247 34.08 95.7047 34.05 96.1047 33.99C96.5047 33.91 96.9447 33.77 97.4247 33.57C97.9047 33.37 98.2747 33.03 98.5347 32.55C98.7947 32.05 98.9247 31.43 98.9247 30.69C98.9247 30.05 98.8147 29.5 98.5947 29.04C98.3947 28.58 98.1547 28.24 97.8747 28.02C97.5947 27.78 97.2347 27.6 96.7947 27.48C96.3747 27.34 96.0147 27.26 95.7147 27.24C95.4147 27.2 95.0747 27.18 94.6947 27.18L90.1947 27.18Z" fill="white"/>
<path d="M35.32 57.26V70H33.84V56H44.32V70H42.84V57.26H35.32ZM52.0802 59.44C53.4535 59.44 54.5602 59.8333 55.4002 60.62C56.4268 61.5933 56.9402 63.0267 56.9402 64.92C56.9402 66.8267 56.4002 68.28 55.3202 69.28C54.5068 70.0267 53.4335 70.4 52.1002 70.4C50.6868 70.4 49.5935 70.0267 48.8202 69.28C48.3802 68.9067 48.0002 68.3533 47.6802 67.62C47.3735 66.8867 47.2202 65.9867 47.2202 64.92C47.2202 63.08 47.7335 61.6467 48.7602 60.62C49.5468 59.8333 50.6535 59.44 52.0802 59.44ZM52.0802 60.42C51.1335 60.42 50.3802 60.7 49.8202 61.26C49.0468 62.0333 48.6602 63.2467 48.6602 64.9C48.6602 66.6067 49.0735 67.8467 49.9002 68.62C50.4735 69.14 51.2002 69.4 52.0802 69.4C52.9868 69.4 53.7068 69.1467 54.2402 68.64C55.0668 67.88 55.4802 66.6333 55.4802 64.9C55.4802 63.3133 55.1268 62.1333 54.4202 61.36C53.8202 60.7333 53.0402 60.42 52.0802 60.42ZM66.8161 66.44H68.1361C68.0161 67.6533 67.5761 68.64 66.8161 69.4C66.4028 69.8133 65.9628 70.08 65.4961 70.2C65.0428 70.3333 64.5028 70.4 63.8761 70.4C62.4628 70.4 61.3694 70.0267 60.5961 69.28C59.5694 68.2933 59.0561 66.8067 59.0561 64.82C59.0561 63.0467 59.4894 61.6933 60.3561 60.76C61.1294 59.88 62.2761 59.44 63.7961 59.44C65.1294 59.44 66.1628 59.7933 66.8961 60.5C67.5228 61.1267 67.9028 61.9267 68.0361 62.9H66.7161C66.6494 62.2733 66.4161 61.74 66.0161 61.3C65.5094 60.7267 64.8028 60.44 63.8961 60.44C62.9494 60.44 62.1761 60.74 61.5761 61.34C60.8694 62.0467 60.5161 63.1933 60.5161 64.78C60.5161 66.4733 60.9228 67.7267 61.7361 68.54C62.3094 69.1133 63.0294 69.4 63.8961 69.4C64.7628 69.4 65.4361 69.1467 65.9161 68.64C66.4494 68.0667 66.7494 67.3333 66.8161 66.44ZM77.9536 67.06H79.2736C79.1003 67.8867 78.7336 68.6067 78.1736 69.22C77.4136 70.0067 76.3336 70.4 74.9336 70.4C73.4669 70.4 72.3203 70.0067 71.4936 69.22C70.4936 68.2467 69.9936 66.8 69.9936 64.88C69.9936 63.04 70.4603 61.6533 71.3936 60.72C72.2469 59.8667 73.3936 59.44 74.8336 59.44C76.2203 59.44 77.3003 59.84 78.0736 60.64C78.5803 61.16 78.9136 61.7733 79.0736 62.48C79.2469 63.1867 79.3536 64.0867 79.3936 65.18H71.4336C71.4869 66.62 71.8469 67.6933 72.5136 68.4C73.1136 69.0667 73.9403 69.4 74.9936 69.4C75.8603 69.4 76.5603 69.1467 77.0936 68.64C77.4536 68.32 77.7403 67.7933 77.9536 67.06ZM74.8136 60.44C73.7736 60.44 72.9603 60.7667 72.3736 61.42C71.7469 62.14 71.4336 63.06 71.4336 64.18H77.9336C77.9336 63.7133 77.8469 63.1867 77.6736 62.6C77.5003 62.0133 77.2603 61.5667 76.9536 61.26C76.4336 60.7133 75.7203 60.44 74.8136 60.44ZM84.117 60.84H80.577V59.84H89.017V60.84H85.497V70H84.117V60.84ZM91.6592 68.4L97.2792 59.84H98.8392V70H97.4592V61.42L91.8592 70H90.2792V59.84H91.6592V68.4ZM104.078 60.84H100.538V59.84H108.978V60.84H105.458V70H104.078V60.84ZM117.27 67.06H118.59C118.417 67.8867 118.05 68.6067 117.49 69.22C116.73 70.0067 115.65 70.4 114.25 70.4C112.783 70.4 111.637 70.0067 110.81 69.22C109.81 68.2467 109.31 66.8 109.31 64.88C109.31 63.04 109.777 61.6533 110.71 60.72C111.563 59.8667 112.71 59.44 114.15 59.44C115.537 59.44 116.617 59.84 117.39 60.64C117.897 61.16 118.23 61.7733 118.39 62.48C118.563 63.1867 118.67 64.0867 118.71 65.18H110.75C110.803 66.62 111.163 67.6933 111.83 68.4C112.43 69.0667 113.257 69.4 114.31 69.4C115.177 69.4 115.877 69.1467 116.41 68.64C116.77 68.32 117.057 67.7933 117.27 67.06ZM114.13 60.44C113.09 60.44 112.277 60.7667 111.69 61.42C111.063 62.14 110.75 63.06 110.75 64.18H117.25C117.25 63.7133 117.163 63.1867 116.99 62.6C116.817 62.0133 116.577 61.5667 116.27 61.26C115.75 60.7133 115.037 60.44 114.13 60.44ZM126.021 59.84H130.481C131.108 59.84 131.601 59.8867 131.961 59.98C132.335 60.06 132.681 60.26 133.001 60.58C133.441 61.02 133.661 61.58 133.661 62.26C133.661 62.9933 133.421 63.5867 132.941 64.04C132.648 64.32 132.295 64.5133 131.881 64.62V64.66C132.548 64.8467 133.048 65.1067 133.381 65.44C133.821 65.88 134.041 66.48 134.041 67.24C134.041 68.04 133.795 68.6867 133.301 69.18C132.741 69.7267 131.781 70 130.421 70H126.021V59.84ZM127.401 60.84V64.18H130.061C130.888 64.18 131.481 63.9867 131.841 63.6C132.121 63.3067 132.261 62.9067 132.261 62.4C132.261 61.9733 132.135 61.6267 131.881 61.36C131.548 61.0133 130.975 60.84 130.161 60.84H127.401ZM127.401 65.18V69H130.161C131.095 69 131.741 68.82 132.101 68.46C132.448 68.1133 132.621 67.6533 132.621 67.08C132.621 66.5467 132.461 66.12 132.141 65.8C131.755 65.3867 131.075 65.18 130.101 65.18H127.401ZM141.065 59.44C142.438 59.44 143.545 59.8333 144.385 60.62C145.411 61.5933 145.925 63.0267 145.925 64.92C145.925 66.8267 145.385 68.28 144.305 69.28C143.491 70.0267 142.418 70.4 141.085 70.4C139.671 70.4 138.578 70.0267 137.805 69.28C137.365 68.9067 136.985 68.3533 136.665 67.62C136.358 66.8867 136.205 65.9867 136.205 64.92C136.205 63.08 136.718 61.6467 137.745 60.62C138.531 59.8333 139.638 59.44 141.065 59.44ZM141.065 60.42C140.118 60.42 139.365 60.7 138.805 61.26C138.031 62.0333 137.645 63.2467 137.645 64.9C137.645 66.6067 138.058 67.8467 138.885 68.62C139.458 69.14 140.185 69.4 141.065 69.4C141.971 69.4 142.691 69.1467 143.225 68.64C144.051 67.88 144.465 66.6333 144.465 64.9C144.465 63.3133 144.111 62.1333 143.405 61.36C142.805 60.7333 142.025 60.42 141.065 60.42ZM148.56 59.84H149.88V61.34H149.92C150.24 60.86 150.66 60.4267 151.18 60.04C151.794 59.64 152.514 59.44 153.34 59.44C154.554 59.44 155.554 59.8067 156.34 60.54C157.327 61.5267 157.82 62.9533 157.82 64.82C157.82 66.5133 157.44 67.8667 156.68 68.88C155.934 69.8933 154.874 70.4 153.5 70.4C152.607 70.4 151.854 70.2133 151.24 69.84C150.707 69.5067 150.274 69.04 149.94 68.44V73.7H148.56V59.84ZM149.86 64.96C149.86 66.52 150.247 67.6867 151.02 68.46C151.62 69.0867 152.374 69.4 153.28 69.4C154.04 69.4 154.694 69.1267 155.24 68.58C156 67.78 156.38 66.54 156.38 64.86C156.38 63.2333 155.98 62.02 155.18 61.22C154.66 60.7 153.98 60.44 153.14 60.44C152.367 60.44 151.68 60.7067 151.08 61.24C150.267 61.9733 149.86 63.2133 149.86 64.96ZM161.835 64.4L166.455 59.84H168.095L163.195 64.56L168.395 70H166.675L161.835 64.82V70H160.455V59.84H161.835V64.4ZM171.327 69H175.827V59.84H177.207V69H181.707V59.84H183.087V70H169.967V59.84H171.327V69ZM190.596 59.44C191.969 59.44 193.076 59.8333 193.916 60.62C194.942 61.5933 195.456 63.0267 195.456 64.92C195.456 66.8267 194.916 68.28 193.836 69.28C193.022 70.0267 191.949 70.4 190.616 70.4C189.202 70.4 188.109 70.0267 187.336 69.28C186.896 68.9067 186.516 68.3533 186.196 67.62C185.889 66.8867 185.736 65.9867 185.736 64.92C185.736 63.08 186.249 61.6467 187.276 60.62C188.062 59.8333 189.169 59.44 190.596 59.44ZM190.596 60.42C189.649 60.42 188.896 60.7 188.336 61.26C187.562 62.0333 187.176 63.2467 187.176 64.9C187.176 66.6067 187.589 67.8467 188.416 68.62C188.989 69.14 189.716 69.4 190.596 69.4C191.502 69.4 192.222 69.1467 192.756 68.64C193.582 67.88 193.996 66.6333 193.996 64.9C193.996 63.3133 193.642 62.1333 192.936 61.36C192.336 60.7333 191.556 60.42 190.596 60.42ZM199.472 60.84V70H198.092V59.84H206.332V70H204.952V60.84H199.472ZM209.498 59.84H210.878V63.92H213.538H214.158C215.025 63.92 215.711 64.08 216.218 64.4C217.098 64.9467 217.538 65.78 217.538 66.9C217.538 68.1 217.105 68.9667 216.238 69.5C215.678 69.8333 214.945 70 214.038 70H209.498V59.84ZM210.878 64.92V69H213.558C214.345 69 214.925 68.8667 215.298 68.6C215.831 68.2267 216.098 67.6733 216.098 66.94C216.098 66.26 215.905 65.7533 215.518 65.42C215.145 65.0867 214.491 64.92 213.558 64.92H210.878ZM218.818 59.84H220.198V70H218.818V59.84ZM32.8 90.96H34.12C34.12 91.7067 34.3667 92.3 34.86 92.74C35.34 93.18 36.0867 93.4 37.1 93.4C38.02 93.4 38.7067 93.2 39.16 92.8C39.6 92.4133 39.82 91.8533 39.82 91.12C39.82 90.4667 39.6133 89.9667 39.2 89.62C38.8133 89.3 38.2 89.14 37.36 89.14H35.76V88.14H37.18C37.9667 88.14 38.5467 87.9933 38.92 87.7C39.3067 87.38 39.5 86.9533 39.5 86.42C39.5 85.78 39.28 85.28 38.84 84.92C38.4267 84.6 37.82 84.44 37.02 84.44C36.2333 84.44 35.6333 84.6 35.22 84.92C34.74 85.2933 34.4933 85.82 34.48 86.5H33.16C33.2133 85.66 33.5133 84.9667 34.06 84.42C34.7133 83.7667 35.74 83.44 37.14 83.44C38.4733 83.44 39.46 83.7533 40.1 84.38C40.6333 84.8733 40.9 85.54 40.9 86.38C40.9 87.0333 40.6867 87.5733 40.26 88C39.9133 88.3067 39.5333 88.4933 39.12 88.56V88.6C39.6667 88.7067 40.1333 88.94 40.52 89.3C41 89.7533 41.24 90.3667 41.24 91.14C41.24 92.26 40.8467 93.1133 40.06 93.7C39.4067 94.1667 38.42 94.4 37.1 94.4C35.5667 94.4 34.46 94.0733 33.78 93.42C33.1267 92.7667 32.8 91.9467 32.8 90.96ZM48.1544 83.44C49.5277 83.44 50.6344 83.8333 51.4744 84.62C52.501 85.5933 53.0144 87.0267 53.0144 88.92C53.0144 90.8267 52.4744 92.28 51.3944 93.28C50.581 94.0267 49.5077 94.4 48.1744 94.4C46.761 94.4 45.6677 94.0267 44.8944 93.28C44.4544 92.9067 44.0744 92.3533 43.7544 91.62C43.4477 90.8867 43.2944 89.9867 43.2944 88.92C43.2944 87.08 43.8077 85.6467 44.8344 84.62C45.621 83.8333 46.7277 83.44 48.1544 83.44ZM48.1544 84.42C47.2077 84.42 46.4544 84.7 45.8944 85.26C45.121 86.0333 44.7344 87.2467 44.7344 88.9C44.7344 90.6067 45.1477 91.8467 45.9744 92.62C46.5477 93.14 47.2744 93.4 48.1544 93.4C49.061 93.4 49.781 93.1467 50.3144 92.64C51.141 91.88 51.5544 90.6333 51.5544 88.9C51.5544 87.3133 51.201 86.1333 50.4944 85.36C49.8944 84.7333 49.1144 84.42 48.1544 84.42ZM57.0303 89.12V94H55.6503V83.84H57.0303V88.12H62.4303V83.84H63.8103V94H62.4303V89.12H57.0303ZM66.9784 83.84H68.3584V87.92H71.0184H71.6384C72.5051 87.92 73.1918 88.08 73.6984 88.4C74.5784 88.9467 75.0184 89.78 75.0184 90.9C75.0184 92.1 74.5851 92.9667 73.7184 93.5C73.1584 93.8333 72.4251 94 71.5184 94H66.9784V83.84ZM68.3584 88.92V93H71.0384C71.8251 93 72.4051 92.8667 72.7784 92.6C73.3118 92.2267 73.5784 91.6733 73.5784 90.94C73.5784 90.26 73.3851 89.7533 72.9984 89.42C72.6251 89.0867 71.9718 88.92 71.0384 88.92H68.3584ZM76.2984 83.84H77.6784V94H76.2984V83.84ZM87.2536 85.98H89.4736C89.6203 83.9667 90.3003 82.38 91.5136 81.22C92.6603 80.1267 94.1536 79.58 95.9936 79.58C97.8736 79.58 99.3603 80.1 100.454 81.14C101.88 82.5 102.594 84.5067 102.594 87.16C102.594 89.6933 101.907 91.6 100.534 92.88C99.4669 93.9067 97.9869 94.42 96.0936 94.42C94.1603 94.42 92.6336 93.8933 91.5136 92.84C90.8203 92.1733 90.3003 91.3467 89.9536 90.36C89.6069 89.36 89.4336 88.32 89.4336 87.24H87.2536V94H85.7736V80H87.2536V85.98ZM96.0136 93.16C97.4669 93.16 98.6336 92.7067 99.5136 91.8C100.527 90.7733 101.034 89.2133 101.034 87.12C101.034 84.88 100.467 83.1933 99.3336 82.06C98.4803 81.2467 97.3536 80.84 95.9536 80.84C94.6203 80.84 93.5269 81.2533 92.6736 82.08C91.5536 83.1467 90.9936 84.7867 90.9936 87C90.9936 89.2533 91.5603 90.9 92.6936 91.94C93.5336 92.7533 94.6403 93.16 96.0136 93.16ZM107.074 89.98L105.574 94H103.974L109.294 80H110.954L116.274 94H114.654L113.174 89.98H107.074ZM107.494 88.72H112.734L110.114 81.42L107.494 88.72ZM118.176 80H123.616C125.256 80 126.456 80.36 127.216 81.08C127.923 81.7333 128.276 82.6867 128.276 83.94C128.276 85.2467 127.929 86.2467 127.236 86.94C126.889 87.3133 126.456 87.6 125.936 87.8C125.416 87.9867 124.989 88.0933 124.656 88.12C124.323 88.1467 123.909 88.16 123.416 88.16H119.656V94H118.176V80ZM119.656 81.26V86.9H123.316C124.516 86.9 125.396 86.6467 125.956 86.14C126.489 85.66 126.756 84.9533 126.756 84.02C126.756 83.1933 126.509 82.5333 126.016 82.04C125.456 81.52 124.556 81.26 123.316 81.26H119.656ZM128.966 92.12H130.566V94.42C130.566 95.2867 130.372 95.9133 129.986 96.3C129.732 96.5533 129.392 96.7333 128.966 96.84V95.92C129.246 95.8267 129.446 95.6733 129.566 95.46C129.699 95.22 129.766 94.88 129.766 94.44V94H128.966V92.12ZM138.49 83.84H139.87V87.16C139.87 87.7333 139.976 88.1267 140.19 88.34C140.363 88.5133 140.63 88.6267 140.99 88.68C141.35 88.7333 141.91 88.76 142.67 88.76C142.736 88.76 143.35 88.74 144.51 88.7V83.84H145.89V94H144.51V89.7C143.75 89.7533 142.963 89.78 142.15 89.78C140.51 89.78 139.456 89.5467 138.99 89.08C138.656 88.72 138.49 88.1333 138.49 87.32V83.84ZM151.129 84.84H147.589V83.84H156.029V84.84H152.509V94H151.129V84.84ZM161.67 83.44C163.043 83.44 164.15 83.8333 164.99 84.62C166.017 85.5933 166.53 87.0267 166.53 88.92C166.53 90.8267 165.99 92.28 164.91 93.28C164.097 94.0267 163.023 94.4 161.69 94.4C160.277 94.4 159.183 94.0267 158.41 93.28C157.97 92.9067 157.59 92.3533 157.27 91.62C156.963 90.8867 156.81 89.9867 156.81 88.92C156.81 87.08 157.323 85.6467 158.35 84.62C159.137 83.8333 160.243 83.44 161.67 83.44ZM161.67 84.42C160.723 84.42 159.97 84.7 159.41 85.26C158.637 86.0333 158.25 87.2467 158.25 88.9C158.25 90.6067 158.663 91.8467 159.49 92.62C160.063 93.14 160.79 93.4 161.67 93.4C162.577 93.4 163.297 93.1467 163.83 92.64C164.657 91.88 165.07 90.6333 165.07 88.9C165.07 87.3133 164.717 86.1333 164.01 85.36C163.41 84.7333 162.63 84.42 161.67 84.42ZM176.806 79.4H178.026C177.973 80 177.766 80.4667 177.406 80.8C177.059 81.1333 176.459 81.3533 175.606 81.46C175.379 81.4867 175.019 81.5333 174.526 81.6C174.033 81.6533 173.653 81.7067 173.386 81.76C172.453 81.9467 171.739 82.2867 171.246 82.78C170.473 83.5133 170.086 84.62 170.086 86.1H170.126C170.339 85.5 170.666 85.0067 171.106 84.62C171.853 83.94 172.826 83.6 174.026 83.6C175.453 83.6 176.573 84.02 177.386 84.86C178.306 85.82 178.766 87.1467 178.766 88.84C178.766 89.64 178.639 90.4333 178.386 91.22C178.146 92.0067 177.773 92.6533 177.266 93.16C176.773 93.6533 176.266 93.98 175.746 94.14C175.226 94.3133 174.613 94.4 173.906 94.4C172.413 94.4 171.286 94 170.526 93.2C169.473 92.0933 168.946 90.32 168.946 87.88C168.946 84.8133 169.499 82.7467 170.606 81.68C171.153 81.1333 171.913 80.7533 172.886 80.54C173.459 80.42 174.186 80.32 175.066 80.24C175.746 80.16 176.186 80.0667 176.386 79.96C176.573 79.8533 176.713 79.6667 176.806 79.4ZM170.406 88.86C170.406 90.58 170.813 91.8267 171.626 92.6C172.159 93.1333 172.899 93.4 173.846 93.4C174.819 93.4 175.566 93.1533 176.086 92.66C176.899 91.9133 177.306 90.74 177.306 89.14C177.306 87.42 176.933 86.1867 176.186 85.44C175.613 84.88 174.833 84.6 173.846 84.6C172.899 84.6 172.153 84.8667 171.606 85.4C170.806 86.1733 170.406 87.3267 170.406 88.86ZM181.412 83.84H182.792V87.92H185.452H186.072C186.939 87.92 187.625 88.08 188.132 88.4C189.012 88.9467 189.452 89.78 189.452 90.9C189.452 92.1 189.019 92.9667 188.152 93.5C187.592 93.8333 186.859 94 185.952 94H181.412V83.84ZM182.792 88.92V93H185.472C186.259 93 186.839 92.8667 187.212 92.6C187.745 92.2267 188.012 91.6733 188.012 90.94C188.012 90.26 187.819 89.7533 187.432 89.42C187.059 89.0867 186.405 88.92 185.472 88.92H182.792ZM190.732 83.84H192.112V94H190.732V83.84ZM33.78 121.68V120.64C33.98 120.693 34.24 120.72 34.56 120.72C34.9867 120.72 35.3133 120.62 35.54 120.42C35.7533 120.233 35.9467 119.86 36.12 119.3L36.54 118L32.26 107.84H33.92L37.28 116.46L40.2 107.84H41.58L37.4 119.54C37.0667 120.447 36.7667 121.02 36.5 121.26C36.1267 121.607 35.5933 121.78 34.9 121.78C34.5267 121.78 34.1533 121.747 33.78 121.68ZM42.3703 114.96H43.6903C43.6903 115.707 43.937 116.3 44.4303 116.74C44.9103 117.18 45.657 117.4 46.6703 117.4C47.5903 117.4 48.277 117.2 48.7303 116.8C49.1703 116.413 49.3903 115.853 49.3903 115.12C49.3903 114.467 49.1836 113.967 48.7703 113.62C48.3836 113.3 47.7703 113.14 46.9303 113.14H45.3303V112.14H46.7503C47.537 112.14 48.117 111.993 48.4903 111.7C48.877 111.38 49.0703 110.953 49.0703 110.42C49.0703 109.78 48.8503 109.28 48.4103 108.92C47.997 108.6 47.3903 108.44 46.5903 108.44C45.8036 108.44 45.2036 108.6 44.7903 108.92C44.3103 109.293 44.0636 109.82 44.0503 110.5H42.7303C42.7836 109.66 43.0836 108.967 43.6303 108.42C44.2836 107.767 45.3103 107.44 46.7103 107.44C48.0436 107.44 49.0303 107.753 49.6703 108.38C50.2036 108.873 50.4703 109.54 50.4703 110.38C50.4703 111.033 50.257 111.573 49.8303 112C49.4836 112.307 49.1036 112.493 48.6903 112.56V112.6C49.237 112.707 49.7036 112.94 50.0903 113.3C50.5703 113.753 50.8103 114.367 50.8103 115.14C50.8103 116.26 50.417 117.113 49.6303 117.7C48.977 118.167 47.9903 118.4 46.6703 118.4C45.137 118.4 44.0303 118.073 43.3503 117.42C42.697 116.767 42.3703 115.947 42.3703 114.96ZM54.7647 113.12V118H53.3847V107.84H54.7647V112.12H60.1647V107.84H61.5447V118H60.1647V113.12H54.7647ZM65.8128 110.76H64.4728C64.4728 109.64 64.9128 108.767 65.7928 108.14C66.4595 107.673 67.4128 107.44 68.6528 107.44C70.0128 107.44 71.0061 107.753 71.6328 108.38C72.2061 108.953 72.4795 109.747 72.4528 110.76L72.3328 115.82C72.3328 116.3 72.3995 116.613 72.5328 116.76C72.7595 117.027 73.0661 117.107 73.4528 117V118C73.2928 118.053 73.0461 118.08 72.7128 118.08C72.1795 118.08 71.7861 117.953 71.5328 117.7C71.2128 117.38 71.0661 116.94 71.0928 116.38C70.7461 116.953 70.3061 117.387 69.7728 117.68C69.1195 118.053 68.3261 118.24 67.3928 118.24C66.2861 118.24 65.4528 117.967 64.8928 117.42C64.3328 116.9 64.0528 116.187 64.0528 115.28C64.0528 114.493 64.2995 113.853 64.7928 113.36C65.3528 112.8 66.4261 112.433 68.0128 112.26L68.6728 112.18C68.7795 112.167 68.9928 112.147 69.3128 112.12C69.6328 112.08 69.8728 112.047 70.0328 112.02C70.4328 111.953 70.6995 111.853 70.8328 111.72C70.9928 111.547 71.0728 111.22 71.0728 110.74C71.0728 109.967 70.8661 109.387 70.4528 109C70.0261 108.627 69.3861 108.44 68.5328 108.44C67.5595 108.44 66.8661 108.647 66.4528 109.06C66.0528 109.46 65.8395 110.027 65.8128 110.76ZM70.9928 113.66L71.0328 112.62C70.8595 112.78 70.5928 112.893 70.2328 112.96C69.8061 113.04 69.2061 113.113 68.4328 113.18L68.0328 113.22C67.0195 113.34 66.3328 113.573 65.9728 113.92C65.6528 114.24 65.4928 114.7 65.4928 115.3C65.4928 115.86 65.6661 116.313 66.0128 116.66C66.3595 117.047 66.8928 117.24 67.6128 117.24C68.4928 117.24 69.2195 117.007 69.7928 116.54C70.5261 115.94 70.9261 114.98 70.9928 113.66ZM77.5155 108.84H73.9755V107.84H82.4155V108.84H78.8955V118H77.5155V108.84ZM84.1073 107.84H85.4873V111.94H88.2473C89.434 111.94 90.2873 112.093 90.8073 112.4C91.6873 112.92 92.1273 113.76 92.1273 114.92C92.1273 115.84 91.8607 116.567 91.3273 117.1C90.7273 117.7 89.8273 118 88.6273 118H84.1073V107.84ZM85.4873 112.94V117H88.1673C88.914 117 89.4807 116.873 89.8673 116.62C90.4273 116.273 90.7073 115.713 90.7073 114.94C90.7073 114.3 90.534 113.82 90.1873 113.5C89.814 113.127 89.1873 112.94 88.3073 112.94H85.4873ZM99.1659 107.84H103.626C104.253 107.84 104.746 107.887 105.106 107.98C105.479 108.06 105.826 108.26 106.146 108.58C106.586 109.02 106.806 109.58 106.806 110.26C106.806 110.993 106.566 111.587 106.086 112.04C105.793 112.32 105.439 112.513 105.026 112.62V112.66C105.693 112.847 106.193 113.107 106.526 113.44C106.966 113.88 107.186 114.48 107.186 115.24C107.186 116.04 106.939 116.687 106.446 117.18C105.886 117.727 104.926 118 103.566 118H99.1659V107.84ZM100.546 108.84V112.18H103.206C104.033 112.18 104.626 111.987 104.986 111.6C105.266 111.307 105.406 110.907 105.406 110.4C105.406 109.973 105.279 109.627 105.026 109.36C104.693 109.013 104.119 108.84 103.306 108.84H100.546ZM100.546 113.18V117H103.306C104.239 117 104.886 116.82 105.246 116.46C105.593 116.113 105.766 115.653 105.766 115.08C105.766 114.547 105.606 114.12 105.286 113.8C104.899 113.387 104.219 113.18 103.246 113.18H100.546ZM117.109 114.44H118.429C118.309 115.653 117.869 116.64 117.109 117.4C116.696 117.813 116.256 118.08 115.789 118.2C115.336 118.333 114.796 118.4 114.169 118.4C112.756 118.4 111.662 118.027 110.889 117.28C109.862 116.293 109.349 114.807 109.349 112.82C109.349 111.047 109.782 109.693 110.649 108.76C111.422 107.88 112.569 107.44 114.089 107.44C115.422 107.44 116.456 107.793 117.189 108.5C117.816 109.127 118.196 109.927 118.329 110.9H117.009C116.942 110.273 116.709 109.74 116.309 109.3C115.802 108.727 115.096 108.44 114.189 108.44C113.242 108.44 112.469 108.74 111.869 109.34C111.162 110.047 110.809 111.193 110.809 112.78C110.809 114.473 111.216 115.727 112.029 116.54C112.602 117.113 113.322 117.4 114.189 117.4C115.056 117.4 115.729 117.147 116.209 116.64C116.742 116.067 117.042 115.333 117.109 114.44ZM128.247 115.06H129.567C129.393 115.887 129.027 116.607 128.467 117.22C127.707 118.007 126.627 118.4 125.227 118.4C123.76 118.4 122.613 118.007 121.787 117.22C120.787 116.247 120.287 114.8 120.287 112.88C120.287 111.04 120.753 109.653 121.687 108.72C122.54 107.867 123.687 107.44 125.127 107.44C126.513 107.44 127.593 107.84 128.367 108.64C128.873 109.16 129.207 109.773 129.367 110.48C129.54 111.187 129.647 112.087 129.687 113.18H121.727C121.78 114.62 122.14 115.693 122.807 116.4C123.407 117.067 124.233 117.4 125.287 117.4C126.153 117.4 126.853 117.147 127.387 116.64C127.747 116.32 128.033 115.793 128.247 115.06ZM125.107 108.44C124.067 108.44 123.253 108.767 122.667 109.42C122.04 110.14 121.727 111.06 121.727 112.18H128.227C128.227 111.713 128.14 111.187 127.967 110.6C127.793 110.013 127.553 109.567 127.247 109.26C126.727 108.713 126.013 108.44 125.107 108.44ZM141.338 107.44C142.711 107.44 143.818 107.833 144.658 108.62C145.685 109.593 146.198 111.027 146.198 112.92C146.198 114.827 145.658 116.28 144.578 117.28C143.765 118.027 142.691 118.4 141.358 118.4C139.945 118.4 138.851 118.027 138.078 117.28C137.638 116.907 137.258 116.353 136.938 115.62C136.631 114.887 136.478 113.987 136.478 112.92C136.478 111.08 136.991 109.647 138.018 108.62C138.805 107.833 139.911 107.44 141.338 107.44ZM141.338 108.42C140.391 108.42 139.638 108.7 139.078 109.26C138.305 110.033 137.918 111.247 137.918 112.9C137.918 114.607 138.331 115.847 139.158 116.62C139.731 117.14 140.458 117.4 141.338 117.4C142.245 117.4 142.965 117.147 143.498 116.64C144.325 115.88 144.738 114.633 144.738 112.9C144.738 111.313 144.385 110.133 143.678 109.36C143.078 108.733 142.298 108.42 141.338 108.42ZM156.474 103.4H157.694C157.641 104 157.434 104.467 157.074 104.8C156.727 105.133 156.127 105.353 155.274 105.46C155.047 105.487 154.687 105.533 154.194 105.6C153.701 105.653 153.321 105.707 153.054 105.76C152.121 105.947 151.407 106.287 150.914 106.78C150.141 107.513 149.754 108.62 149.754 110.1H149.794C150.007 109.5 150.334 109.007 150.774 108.62C151.521 107.94 152.494 107.6 153.694 107.6C155.121 107.6 156.241 108.02 157.054 108.86C157.974 109.82 158.434 111.147 158.434 112.84C158.434 113.64 158.307 114.433 158.054 115.22C157.814 116.007 157.441 116.653 156.934 117.16C156.441 117.653 155.934 117.98 155.414 118.14C154.894 118.313 154.281 118.4 153.574 118.4C152.081 118.4 150.954 118 150.194 117.2C149.141 116.093 148.614 114.32 148.614 111.88C148.614 108.813 149.167 106.747 150.274 105.68C150.821 105.133 151.581 104.753 152.554 104.54C153.127 104.42 153.854 104.32 154.734 104.24C155.414 104.16 155.854 104.067 156.054 103.96C156.241 103.853 156.381 103.667 156.474 103.4ZM150.074 112.86C150.074 114.58 150.481 115.827 151.294 116.6C151.827 117.133 152.567 117.4 153.514 117.4C154.487 117.4 155.234 117.153 155.754 116.66C156.567 115.913 156.974 114.74 156.974 113.14C156.974 111.42 156.601 110.187 155.854 109.44C155.281 108.88 154.501 108.6 153.514 108.6C152.567 108.6 151.821 108.867 151.274 109.4C150.474 110.173 150.074 111.327 150.074 112.86ZM166.848 110.76H165.508C165.508 109.64 165.948 108.767 166.828 108.14C167.495 107.673 168.448 107.44 169.688 107.44C171.048 107.44 172.041 107.753 172.668 108.38C173.241 108.953 173.515 109.747 173.488 110.76L173.368 115.82C173.368 116.3 173.435 116.613 173.568 116.76C173.795 117.027 174.101 117.107 174.488 117V118C174.328 118.053 174.081 118.08 173.748 118.08C173.215 118.08 172.821 117.953 172.568 117.7C172.248 117.38 172.101 116.94 172.128 116.38C171.781 116.953 171.341 117.387 170.808 117.68C170.155 118.053 169.361 118.24 168.428 118.24C167.321 118.24 166.488 117.967 165.928 117.42C165.368 116.9 165.088 116.187 165.088 115.28C165.088 114.493 165.335 113.853 165.828 113.36C166.388 112.8 167.461 112.433 169.048 112.26L169.708 112.18C169.815 112.167 170.028 112.147 170.348 112.12C170.668 112.08 170.908 112.047 171.068 112.02C171.468 111.953 171.735 111.853 171.868 111.72C172.028 111.547 172.108 111.22 172.108 110.74C172.108 109.967 171.901 109.387 171.488 109C171.061 108.627 170.421 108.44 169.568 108.44C168.595 108.44 167.901 108.647 167.488 109.06C167.088 109.46 166.875 110.027 166.848 110.76ZM172.028 113.66L172.068 112.62C171.895 112.78 171.628 112.893 171.268 112.96C170.841 113.04 170.241 113.113 169.468 113.18L169.068 113.22C168.055 113.34 167.368 113.573 167.008 113.92C166.688 114.24 166.528 114.7 166.528 115.3C166.528 115.86 166.701 116.313 167.048 116.66C167.395 117.047 167.928 117.24 168.648 117.24C169.528 117.24 170.255 117.007 170.828 116.54C171.561 115.94 171.961 114.98 172.028 113.66ZM182.421 121.7V118.26C180.355 118.34 178.775 117.787 177.681 116.6C176.788 115.613 176.341 114.367 176.341 112.86C176.341 111.247 176.781 110 177.661 109.12C178.288 108.48 179.055 108.06 179.961 107.86C180.868 107.647 181.688 107.56 182.421 107.6V104H183.801V107.6C185.855 107.547 187.408 108.033 188.461 109.06C189.408 109.967 189.881 111.213 189.881 112.8C189.881 114.453 189.401 115.76 188.441 116.72C187.335 117.827 185.788 118.34 183.801 118.26V121.7H182.421ZM182.421 117.26V108.6C180.861 108.533 179.681 108.913 178.881 109.74C178.148 110.5 177.781 111.54 177.781 112.86C177.781 114.22 178.168 115.287 178.941 116.06C179.715 116.86 180.875 117.26 182.421 117.26ZM183.801 108.6V117.26C185.308 117.287 186.475 116.887 187.301 116.06C188.061 115.3 188.441 114.227 188.441 112.84C188.441 111.467 188.075 110.433 187.341 109.74C186.915 109.34 186.368 109.047 185.701 108.86C185.048 108.66 184.415 108.573 183.801 108.6ZM201.281 112.2H211.281V113.16H201.281V112.2ZM33.58 131.84H34.9V133.34H34.94C35.26 132.86 35.68 132.427 36.2 132.04C36.8133 131.64 37.5333 131.44 38.36 131.44C39.5733 131.44 40.5733 131.807 41.36 132.54C42.3467 133.527 42.84 134.953 42.84 136.82C42.84 138.513 42.46 139.867 41.7 140.88C40.9533 141.893 39.8933 142.4 38.52 142.4C37.6267 142.4 36.8733 142.213 36.26 141.84C35.7267 141.507 35.2933 141.04 34.96 140.44V145.7H33.58V131.84ZM34.88 136.96C34.88 138.52 35.2667 139.687 36.04 140.46C36.64 141.087 37.3933 141.4 38.3 141.4C39.06 141.4 39.7133 141.127 40.26 140.58C41.02 139.78 41.4 138.54 41.4 136.86C41.4 135.233 41 134.02 40.2 133.22C39.68 132.7 39 132.44 38.16 132.44C37.3867 132.44 36.7 132.707 36.1 133.24C35.2867 133.973 34.88 135.213 34.88 136.96ZM46.8545 140.4L52.4745 131.84H54.0345V142H52.6545V133.42L47.0545 142H45.4745V131.84H46.8545V140.4ZM58.5733 136.4L63.1933 131.84H64.8333L59.9333 136.56L65.1333 142H63.4133L58.5733 136.82V142H57.1933V131.84H58.5733V136.4ZM67.805 134.76H66.465C66.465 133.64 66.905 132.767 67.785 132.14C68.4517 131.673 69.405 131.44 70.645 131.44C72.005 131.44 72.9983 131.753 73.625 132.38C74.1983 132.953 74.4717 133.747 74.445 134.76L74.325 139.82C74.325 140.3 74.3917 140.613 74.525 140.76C74.7517 141.027 75.0583 141.107 75.445 141V142C75.285 142.053 75.0383 142.08 74.705 142.08C74.1717 142.08 73.7783 141.953 73.525 141.7C73.205 141.38 73.0583 140.94 73.085 140.38C72.7383 140.953 72.2983 141.387 71.765 141.68C71.1117 142.053 70.3183 142.24 69.385 142.24C68.2783 142.24 67.445 141.967 66.885 141.42C66.325 140.9 66.045 140.187 66.045 139.28C66.045 138.493 66.2917 137.853 66.785 137.36C67.345 136.8 68.4183 136.433 70.005 136.26L70.665 136.18C70.7717 136.167 70.985 136.147 71.305 136.12C71.625 136.08 71.865 136.047 72.025 136.02C72.425 135.953 72.6917 135.853 72.825 135.72C72.985 135.547 73.065 135.22 73.065 134.74C73.065 133.967 72.8583 133.387 72.445 133C72.0183 132.627 71.3783 132.44 70.525 132.44C69.5517 132.44 68.8583 132.647 68.445 133.06C68.045 133.46 67.8317 134.027 67.805 134.76ZM72.985 137.66L73.025 136.62C72.8517 136.78 72.585 136.893 72.225 136.96C71.7983 137.04 71.1983 137.113 70.425 137.18L70.025 137.22C69.0117 137.34 68.325 137.573 67.965 137.92C67.645 138.24 67.485 138.7 67.485 139.3C67.485 139.86 67.6583 140.313 68.005 140.66C68.3517 141.047 68.885 141.24 69.605 141.24C70.485 141.24 71.2117 141.007 71.785 140.54C72.5183 139.94 72.9183 138.98 72.985 137.66ZM79.1983 137.12V142H77.8183V131.84H79.1983V136.12H84.5983V131.84H85.9783V142H84.5983V137.12H79.1983ZM96.3864 138.44H97.7064C97.5864 139.653 97.1464 140.64 96.3864 141.4C95.9731 141.813 95.5331 142.08 95.0664 142.2C94.6131 142.333 94.0731 142.4 93.4464 142.4C92.0331 142.4 90.9397 142.027 90.1664 141.28C89.1397 140.293 88.6264 138.807 88.6264 136.82C88.6264 135.047 89.0597 133.693 89.9264 132.76C90.6997 131.88 91.8464 131.44 93.3664 131.44C94.6997 131.44 95.7331 131.793 96.4664 132.5C97.0931 133.127 97.4731 133.927 97.6064 134.9H96.2864C96.2197 134.273 95.9864 133.74 95.5864 133.3C95.0797 132.727 94.3731 132.44 93.4664 132.44C92.5197 132.44 91.7464 132.74 91.1464 133.34C90.4397 134.047 90.0864 135.193 90.0864 136.78C90.0864 138.473 90.4931 139.727 91.3064 140.54C91.8797 141.113 92.5997 141.4 93.4664 141.4C94.3331 141.4 95.0064 141.147 95.4864 140.64C96.0197 140.067 96.3197 139.333 96.3864 138.44ZM101.464 136.4L106.084 131.84H107.724L102.824 136.56L108.024 142H106.304L101.464 136.82V142H100.084V131.84H101.464V136.4ZM110.976 140.4L116.596 131.84H118.156V142H116.776V133.42L111.176 142H109.596V131.84H110.976V140.4ZM124.354 135.8L127.094 131.84H128.674L125.174 136.7L128.994 142H127.374L124.354 137.58L121.334 142H119.734L123.554 136.7L120.054 131.84H121.614L124.354 135.8ZM135.24 131.84H136.56V133.34H136.6C136.92 132.86 137.34 132.427 137.86 132.04C138.473 131.64 139.193 131.44 140.02 131.44C141.233 131.44 142.233 131.807 143.02 132.54C144.007 133.527 144.5 134.953 144.5 136.82C144.5 138.513 144.12 139.867 143.36 140.88C142.613 141.893 141.553 142.4 140.18 142.4C139.287 142.4 138.533 142.213 137.92 141.84C137.387 141.507 136.953 141.04 136.62 140.44V145.7H135.24V131.84ZM136.54 136.96C136.54 138.52 136.927 139.687 137.7 140.46C138.3 141.087 139.053 141.4 139.96 141.4C140.72 141.4 141.373 141.127 141.92 140.58C142.68 139.78 143.06 138.54 143.06 136.86C143.06 135.233 142.66 134.02 141.86 133.22C141.34 132.7 140.66 132.44 139.82 132.44C139.047 132.44 138.36 132.707 137.76 133.24C136.947 133.973 136.54 135.213 136.54 136.96ZM154.575 139.06H155.895C155.721 139.887 155.355 140.607 154.795 141.22C154.035 142.007 152.955 142.4 151.555 142.4C150.088 142.4 148.941 142.007 148.115 141.22C147.115 140.247 146.615 138.8 146.615 136.88C146.615 135.04 147.081 133.653 148.015 132.72C148.868 131.867 150.015 131.44 151.455 131.44C152.841 131.44 153.921 131.84 154.695 132.64C155.201 133.16 155.535 133.773 155.695 134.48C155.868 135.187 155.975 136.087 156.015 137.18H148.055C148.108 138.62 148.468 139.693 149.135 140.4C149.735 141.067 150.561 141.4 151.615 141.4C152.481 141.4 153.181 141.147 153.715 140.64C154.075 140.32 154.361 139.793 154.575 139.06ZM151.435 132.44C150.395 132.44 149.581 132.767 148.995 133.42C148.368 134.14 148.055 135.06 148.055 136.18H154.555C154.555 135.713 154.468 135.187 154.295 134.6C154.121 134.013 153.881 133.567 153.575 133.26C153.055 132.713 152.341 132.44 151.435 132.44ZM163.678 142L160.038 133.46H159.998L160.038 134V142H158.658V131.84H160.558L164.258 140.5L167.958 131.84H169.878V142H168.498V134L168.538 133.46H168.498L164.838 142H163.678ZM180.473 139.06H181.793C181.62 139.887 181.253 140.607 180.693 141.22C179.933 142.007 178.853 142.4 177.453 142.4C175.986 142.4 174.84 142.007 174.013 141.22C173.013 140.247 172.513 138.8 172.513 136.88C172.513 135.04 172.98 133.653 173.913 132.72C174.766 131.867 175.913 131.44 177.353 131.44C178.74 131.44 179.82 131.84 180.593 132.64C181.1 133.16 181.433 133.773 181.593 134.48C181.766 135.187 181.873 136.087 181.913 137.18H173.953C174.006 138.62 174.366 139.693 175.033 140.4C175.633 141.067 176.46 141.4 177.513 141.4C178.38 141.4 179.08 141.147 179.613 140.64C179.973 140.32 180.26 139.793 180.473 139.06ZM177.333 132.44C176.293 132.44 175.48 132.767 174.893 133.42C174.266 134.14 173.953 135.06 173.953 136.18H180.453C180.453 135.713 180.366 135.187 180.193 134.6C180.02 134.013 179.78 133.567 179.473 133.26C178.953 132.713 178.24 132.44 177.333 132.44ZM191.797 138.44H193.117C192.997 139.653 192.557 140.64 191.797 141.4C191.383 141.813 190.943 142.08 190.477 142.2C190.023 142.333 189.483 142.4 188.857 142.4C187.443 142.4 186.35 142.027 185.577 141.28C184.55 140.293 184.037 138.807 184.037 136.82C184.037 135.047 184.47 133.693 185.337 132.76C186.11 131.88 187.257 131.44 188.777 131.44C190.11 131.44 191.143 131.793 191.877 132.5C192.503 133.127 192.883 133.927 193.017 134.9H191.697C191.63 134.273 191.397 133.74 190.997 133.3C190.49 132.727 189.783 132.44 188.877 132.44C187.93 132.44 187.157 132.74 186.557 133.34C185.85 134.047 185.497 135.193 185.497 136.78C185.497 138.473 185.903 139.727 186.717 140.54C187.29 141.113 188.01 141.4 188.877 141.4C189.743 141.4 190.417 141.147 190.897 140.64C191.43 140.067 191.73 139.333 191.797 138.44ZM194.034 142V140.96C194.621 141.107 195.127 140.973 195.554 140.56C196.034 140.08 196.327 139.3 196.434 138.22C196.501 137.7 196.534 136.92 196.534 135.88V135.4V131.84H203.134V142H201.754V132.84H197.834V135.38C197.834 136.287 197.787 137.253 197.694 138.28C197.534 139.453 197.301 140.287 196.994 140.78C196.874 140.98 196.741 141.153 196.594 141.3C195.927 141.953 195.074 142.187 194.034 142ZM207.395 134.76H206.055C206.055 133.64 206.495 132.767 207.375 132.14C208.042 131.673 208.995 131.44 210.235 131.44C211.595 131.44 212.588 131.753 213.215 132.38C213.788 132.953 214.062 133.747 214.035 134.76L213.915 139.82C213.915 140.3 213.982 140.613 214.115 140.76C214.342 141.027 214.648 141.107 215.035 141V142C214.875 142.053 214.628 142.08 214.295 142.08C213.762 142.08 213.368 141.953 213.115 141.7C212.795 141.38 212.648 140.94 212.675 140.38C212.328 140.953 211.888 141.387 211.355 141.68C210.702 142.053 209.908 142.24 208.975 142.24C207.868 142.24 207.035 141.967 206.475 141.42C205.915 140.9 205.635 140.187 205.635 139.28C205.635 138.493 205.882 137.853 206.375 137.36C206.935 136.8 208.008 136.433 209.595 136.26L210.255 136.18C210.362 136.167 210.575 136.147 210.895 136.12C211.215 136.08 211.455 136.047 211.615 136.02C212.015 135.953 212.282 135.853 212.415 135.72C212.575 135.547 212.655 135.22 212.655 134.74C212.655 133.967 212.448 133.387 212.035 133C211.608 132.627 210.968 132.44 210.115 132.44C209.142 132.44 208.448 132.647 208.035 133.06C207.635 133.46 207.422 134.027 207.395 134.76ZM212.575 137.66L212.615 136.62C212.442 136.78 212.175 136.893 211.815 136.96C211.388 137.04 210.788 137.113 210.015 137.18L209.615 137.22C208.602 137.34 207.915 137.573 207.555 137.92C207.235 138.24 207.075 138.7 207.075 139.3C207.075 139.86 207.248 140.313 207.595 140.66C207.942 141.047 208.475 141.24 209.195 141.24C210.075 141.24 210.802 141.007 211.375 140.54C212.108 139.94 212.508 138.98 212.575 137.66ZM220.448 135.8L223.188 131.84H224.768L221.268 136.7L225.088 142H223.468L220.448 137.58L217.428 142H215.828L219.648 136.7L216.148 131.84H217.708L220.448 135.8Z" fill="white"/>
<circle cx="17" cy="17" r="17" fill="#7A8215"/>
</svg>
