<svg width="308" height="146" viewBox="0 0 308 146" fill="none" xmlns="http://www.w3.org/2000/svg">
<path d="M59.6 58.8L49.8 67.2L1.19705e-07 9.39999L9.8 0.799995L59.6 58.8ZM78.2 2.99999L78.2 106.4C78.2 113.333 76.4667 119.733 73 125.6C69.6667 131.467 65.0667 136.133 59.2 139.6C53.3333 143.067 46.9333 144.8 40 144.8C33.0667 144.8 26.6667 143.067 20.8 139.6C14.9333 136.133 10.2667 131.467 6.8 125.6C3.46667 119.733 1.8 113.333 1.8 106.4L14.4 106.4C14.4 111.067 15.5333 115.4 17.8 119.4C20.2 123.267 23.3333 126.333 27.2 128.6C31.2 130.867 35.4667 132 40 132C44.5333 132 48.7333 130.867 52.6 128.6C56.6 126.333 59.7333 123.267 62 119.4C64.4 115.4 65.6 111.067 65.6 106.4L65.6 2.99999L78.2 2.99999ZM104.922 8.2L141.922 56L151.722 48.4L114.722 0.799995L104.922 8.2ZM178.922 48.4L188.722 56L225.722 8.2L215.922 0.799995L178.922 48.4ZM171.522 2.99999L159.122 2.99999L159.122 143L171.522 143L171.522 2.99999ZM103.322 145.2L151.922 68.6L141.522 62L92.9219 138.6L103.322 145.2ZM189.122 62L178.722 68.6L227.322 145.2L237.722 138.6L189.122 62ZM265.197 2.99999L265.197 55L307.797 55L307.797 67.6L265.197 67.6L265.197 143L252.597 143L252.597 2.99999L265.197 2.99999ZM274.197 2.99999L307.797 2.99999L307.797 15.6L274.197 15.6L274.197 2.99999ZM274.197 143L274.197 130.4L307.797 130.4L307.797 143L274.197 143Z" fill="black"/>
</svg>
