<svg width="955" height="221" viewBox="0 0 955 221" fill="none" xmlns="http://www.w3.org/2000/svg">
<path d="M0.5 216.4L18.8 220.3L65.3 7.89999L46.7 3.99999L0.5 216.4ZM72.5 7.89999L119 220.3L137.3 216.4L91.1 3.99999L72.5 7.89999ZM94.1 135.1L43.7 135.1L43.7 154L94.1 154L94.1 135.1ZM263.846 6.99999L244.946 6.99999L244.946 217L263.846 217L263.846 6.99999ZM231.446 175C220.046 175 209.446 172.2 199.646 166.6C190.046 160.8 182.346 153.1 176.546 143.5C170.946 133.9 168.146 123.4 168.146 112C168.146 100.6 170.946 90.1 176.546 80.5C182.346 70.7 190.046 63 199.646 57.4C209.446 51.6 220.046 48.7 231.446 48.7L231.446 29.8C216.446 29.8 202.646 33.5 190.046 40.9C177.446 48.1 167.446 58 160.046 70.6C152.646 83.2 148.946 97 148.946 112C148.946 126.8 152.646 140.5 160.046 153.1C167.446 165.7 177.446 175.7 190.046 183.1C202.646 190.3 216.446 193.9 231.446 193.9L231.446 175ZM277.346 193.9C292.146 193.9 305.846 190.3 318.446 183.1C331.046 175.7 341.046 165.7 348.446 153.1C355.846 140.5 359.546 126.8 359.546 112C359.546 97 355.846 83.2 348.446 70.6C341.046 58 331.046 48.1 318.446 40.9C305.846 33.5 292.146 29.8 277.346 29.8L277.346 48.7C288.746 48.7 299.246 51.6 308.846 57.4C318.646 63 326.346 70.7 331.946 80.5C337.746 90.1 340.646 100.6 340.646 112C340.646 123.4 337.746 133.9 331.946 143.5C326.346 153.1 318.646 160.8 308.846 166.6C299.246 172.2 288.746 175 277.346 175L277.346 193.9ZM409.205 6.99999L390.305 6.99999L390.305 217L409.205 217L409.205 6.99999ZM422.705 121.3C433.105 121.3 442.605 118.8 451.205 113.8C460.005 108.6 466.905 101.6 471.905 92.8C477.105 84 479.705 74.5 479.705 64.3C479.705 53.9 477.105 44.4 471.905 35.8C466.905 27 460.005 20 451.205 14.8C442.605 9.59999 433.105 6.99999 422.705 6.99999L422.705 26.2C429.505 26.2 435.805 28 441.605 31.6C447.405 35 452.005 39.6 455.405 45.4C459.005 51.2 460.805 57.5 460.805 64.3C460.805 71.1 459.005 77.4 455.405 83.2C452.005 89 447.405 93.7 441.605 97.3C435.805 100.7 429.505 102.4 422.705 102.4L422.705 121.3ZM529.323 6.99999L510.423 6.99999L510.423 217L529.323 217L529.323 6.99999ZM640.323 6.99999L621.423 6.99999L621.423 217L640.323 217L640.323 6.99999ZM615.123 37L597.423 30.1L536.223 184.3L554.223 191.5L615.123 37ZM712.409 72.4L725.309 85.6L800.009 13.3L787.109 0.0999851L712.409 72.4ZM700.409 6.99999L681.809 6.99999L681.809 217L700.409 217L700.409 6.99999ZM726.209 94.3L711.509 105.7L799.709 220.3L814.409 208.9L726.209 94.3ZM817.297 216.4L835.597 220.3L882.097 7.89999L863.497 3.99999L817.297 216.4ZM889.297 7.89999L935.797 220.3L954.097 216.4L907.897 3.99999L889.297 7.89999ZM910.897 135.1L860.497 135.1L860.497 154L910.897 154L910.897 135.1Z" fill="black"/>
</svg>
