<svg width="1351" height="255" viewBox="0 0 1351 255" fill="none" xmlns="http://www.w3.org/2000/svg">
<path d="M89.9 87.7L75.2 100.3L0.5 13.6L15.2 0.699992L89.9 87.7ZM117.8 3.99999L117.8 159.1C117.8 169.5 115.2 179.1 110 187.9C105 196.7 98.1 203.7 89.3 208.9C80.5 214.1 70.9 216.7 60.5 216.7C50.1 216.7 40.5 214.1 31.7 208.9C22.9 203.7 15.9 196.7 10.7 187.9C5.7 179.1 3.2 169.5 3.2 159.1L22.1 159.1C22.1 166.1 23.8 172.6 27.2 178.6C30.8 184.4 35.5 189 41.3 192.4C47.3 195.8 53.7 197.5 60.5 197.5C67.3 197.5 73.6 195.8 79.4 192.4C85.4 189 90.1 184.4 93.5 178.6C97.1 172.6 98.9 166.1 98.9 159.1L98.9 3.99999L117.8 3.99999ZM145.883 11.8L201.383 83.5L216.083 72.1L160.583 0.699992L145.883 11.8ZM256.883 72.1L271.583 83.5L327.083 11.8L312.383 0.699992L256.883 72.1ZM245.783 3.99999L227.183 3.99999L227.183 214L245.783 214L245.783 3.99999ZM143.483 217.3L216.383 102.4L200.783 92.5L127.883 207.4L143.483 217.3ZM272.183 92.5L256.583 102.4L329.483 217.3L345.083 207.4L272.183 92.5ZM374.295 3.99999L374.295 82L438.195 82L438.195 100.9L374.295 100.9L374.295 214L355.395 214L355.395 3.99999L374.295 3.99999ZM387.795 3.99999L438.195 3.99999L438.195 22.9L387.795 22.9L387.795 3.99999ZM387.795 214L387.795 195.1L438.195 195.1L438.195 214L387.795 214ZM563.577 3.99999L544.677 3.99999L544.677 214L563.577 214L563.577 3.99999ZM577.077 118.3C587.477 118.3 596.977 115.8 605.577 110.8C614.377 105.6 621.277 98.6 626.277 89.8C631.477 81 634.077 71.5 634.077 61.3C634.077 50.9 631.477 41.4 626.277 32.8C621.277 24 614.377 17 605.577 11.8C596.977 6.59999 587.477 3.99999 577.077 3.99999L577.077 23.2C583.877 23.2 590.177 25 595.977 28.6C601.777 32 606.377 36.6 609.777 42.4C613.377 48.2 615.177 54.5 615.177 61.3C615.177 68.1 613.377 74.4 609.777 80.2C606.377 86 601.777 90.7 595.977 94.3C590.177 97.7 583.877 99.4 577.077 99.4L577.077 118.3ZM696.894 1.6C707.094 1.6 716.494 4.19999 725.094 9.39999C733.694 14.4 740.494 21.3 745.494 30.1C750.694 38.7 753.294 48.1 753.294 58.3L753.294 214L734.394 214L734.394 100.9C729.394 105.5 723.594 109.1 716.994 111.7C710.594 114.1 703.794 115.3 696.594 115.3C686.194 115.3 676.594 112.8 667.794 107.8C659.194 102.6 652.294 95.7 647.094 87.1C642.094 78.3 639.594 68.7 639.594 58.3C639.594 48.1 642.094 38.7 647.094 30.1C652.294 21.3 659.294 14.4 668.094 9.39999C676.894 4.19999 686.494 1.6 696.894 1.6ZM696.594 96.4C703.394 96.4 709.694 94.7 715.494 91.3C721.294 87.9 725.894 83.3 729.294 77.5C732.694 71.5 734.394 65.1 734.394 58.3C734.394 51.5 732.594 45.2 728.994 39.4C725.594 33.6 720.994 29 715.194 25.6C709.394 22.2 703.194 20.5 696.594 20.5C689.794 20.5 683.394 22.2 677.394 25.6C671.594 29 666.994 33.6 663.594 39.4C660.194 45.2 658.494 51.5 658.494 58.3C658.494 65.1 660.194 71.5 663.594 77.5C666.994 83.3 671.594 87.9 677.394 91.3C683.394 94.7 689.794 96.4 696.594 96.4ZM633.594 206.8L711.894 122.5L725.394 135.1L647.094 219.4L633.594 206.8ZM871.691 10.9L853.991 3.99999L785.291 176.5L802.991 183.4L871.691 10.9ZM898.691 3.99999L879.791 3.99999L879.791 181.6L898.691 181.6L898.691 3.99999ZM917.591 195.1L766.391 195.1L766.391 254.5L785.291 254.5L785.291 214L898.691 214L898.691 254.5L917.591 254.5L917.591 195.1ZM1034.51 217.3C1054.11 217.3 1072.21 212.5 1088.81 202.9C1105.41 193.1 1118.51 179.9 1128.11 163.3C1137.91 146.7 1142.81 128.6 1142.81 109C1142.81 89.4 1137.91 71.3 1128.11 54.7C1118.51 38.1 1105.41 25 1088.81 15.4C1072.21 5.59999 1054.11 0.699992 1034.51 0.699992C1014.91 0.699992 996.711 5.39999 979.911 14.8C963.311 24 950.111 36.8 940.311 53.2C930.711 69.4 925.911 87.4 925.911 107.2C925.911 127 930.811 145.4 940.611 162.4C950.411 179.2 963.611 192.6 980.211 202.6C996.811 212.4 1014.91 217.3 1034.51 217.3ZM1034.51 19.9C1050.71 19.9 1065.61 24 1079.21 32.2C1092.81 40.2 1103.61 51 1111.61 64.6C1119.61 78.2 1123.61 93 1123.61 109C1123.61 125.2 1119.61 140.1 1111.61 153.7C1103.61 167.3 1092.81 178.1 1079.21 186.1C1065.61 194.1 1050.71 198.1 1034.51 198.1C1018.31 198.1 1003.41 194.1 989.811 186.1C976.211 178.1 965.411 167.3 957.411 153.7C949.411 140.1 945.411 125.2 945.411 109C945.411 93 949.411 78.2 957.411 64.6C965.411 51 976.211 40.2 989.811 32.2C1003.41 24 1018.31 19.9 1034.51 19.9ZM1252.62 213.4L1206.12 0.0999822L1187.82 3.99999L1234.02 217.3L1252.62 213.4ZM1324.62 3.99999L1306.32 0.0999822L1259.82 213.4L1278.42 217.3L1324.62 3.99999ZM1161.72 3.99999L1161.72 214L1180.62 214L1180.62 3.99999L1161.72 3.99999ZM1331.22 3.99999L1331.22 214L1350.12 214L1350.12 3.99999L1331.22 3.99999Z" fill="black"/>
</svg>
