<svg width="570" height="170" viewBox="0 0 570 170" fill="none" xmlns="http://www.w3.org/2000/svg">
<path d="M13.4 2.99999L0.800001 2.99999L0.800001 143L13.4 143L13.4 2.99999ZM22.4 79.2C29.3333 79.2 35.6667 77.5333 41.4 74.2C47.2667 70.7333 51.8667 66.0667 55.2 60.2C58.6667 54.3333 60.4 48 60.4 41.2C60.4 34.2667 58.6667 27.9333 55.2 22.2C51.8667 16.3333 47.2667 11.6667 41.4 8.2C35.6667 4.73333 29.3333 2.99999 22.4 2.99999L22.4 15.8C26.9333 15.8 31.1333 17 35 19.4C38.8667 21.6667 41.9333 24.7333 44.2 28.6C46.6 32.4667 47.8 36.6667 47.8 41.2C47.8 45.7333 46.6 49.9333 44.2 53.8C41.9333 57.6667 38.8667 60.8 35 63.2C31.1333 65.4667 26.9333 66.6 22.4 66.6L22.4 79.2ZM110.278 1.4C117.078 1.4 123.345 3.13333 129.078 6.59999C134.811 9.93333 139.345 14.5333 142.678 20.4C146.145 26.1333 147.878 32.4 147.878 39.2L147.878 143L135.278 143L135.278 67.6C131.945 70.6667 128.078 73.0667 123.678 74.8C119.411 76.4 114.878 77.2 110.078 77.2C103.145 77.2 96.7448 75.5333 90.8781 72.2C85.1448 68.7333 80.5448 64.1333 77.0781 58.4C73.7448 52.5333 72.0781 46.1333 72.0781 39.2C72.0781 32.4 73.7448 26.1333 77.0781 20.4C80.5448 14.5333 85.2115 9.93333 91.0781 6.59999C96.9448 3.13333 103.345 1.4 110.278 1.4ZM110.078 64.6C114.611 64.6 118.811 63.4667 122.678 61.2C126.545 58.9333 129.611 55.8667 131.878 52C134.145 48 135.278 43.7333 135.278 39.2C135.278 34.6667 134.078 30.4667 131.678 26.6C129.411 22.7333 126.345 19.6667 122.478 17.4C118.611 15.1333 114.478 14 110.078 14C105.545 14 101.278 15.1333 97.2781 17.4C93.4115 19.6667 90.3448 22.7333 88.0781 26.6C85.8115 30.4667 84.6781 34.6667 84.6781 39.2C84.6781 43.7333 85.8115 48 88.0781 52C90.3448 55.8667 93.4115 58.9333 97.2781 61.2C101.278 63.4667 105.545 64.6 110.078 64.6ZM68.0781 138.2L120.278 82L129.278 90.4L77.0781 146.6L68.0781 138.2ZM234.809 7.59999L223.009 2.99999L177.209 118L189.009 122.6L234.809 7.59999ZM252.809 2.99999L240.209 2.99999L240.209 121.4L252.809 121.4L252.809 2.99999ZM265.409 130.4L164.609 130.4L164.609 170L177.209 170L177.209 143L252.809 143L252.809 170L265.409 170L265.409 130.4ZM351.356 145.2C364.423 145.2 376.49 142 387.556 135.6C398.623 129.067 407.356 120.267 413.756 109.2C420.29 98.1333 423.556 86.0667 423.556 73C423.556 59.9333 420.29 47.8667 413.756 36.8C407.356 25.7333 398.623 17 387.556 10.6C376.49 4.06666 364.423 0.799995 351.356 0.799995C338.29 0.799995 326.156 3.93333 314.956 10.2C303.89 16.3333 295.09 24.8667 288.556 35.8C282.156 46.6 278.956 58.6 278.956 71.8C278.956 85 282.223 97.2667 288.756 108.6C295.29 119.8 304.09 128.733 315.156 135.4C326.223 141.933 338.29 145.2 351.356 145.2ZM351.356 13.6C362.156 13.6 372.09 16.3333 381.156 21.8C390.223 27.1333 397.423 34.3333 402.756 43.4C408.09 52.4667 410.756 62.3333 410.756 73C410.756 83.8 408.09 93.7333 402.756 102.8C397.423 111.867 390.223 119.067 381.156 124.4C372.09 129.733 362.156 132.4 351.356 132.4C340.556 132.4 330.623 129.733 321.556 124.4C312.49 119.067 305.29 111.867 299.956 102.8C294.623 93.7333 291.956 83.8 291.956 73C291.956 62.3333 294.623 52.4667 299.956 43.4C305.29 34.3333 312.49 27.1333 321.556 21.8C330.623 16.3333 340.556 13.6 351.356 13.6ZM504.759 142.6L473.759 0.399988L461.559 2.99999L492.359 145.2L504.759 142.6ZM552.759 2.99999L540.559 0.399988L509.559 142.6L521.959 145.2L552.759 2.99999ZM444.159 2.99999L444.159 143L456.759 143L456.759 2.99999L444.159 2.99999ZM557.159 2.99999L557.159 143L569.759 143L569.759 2.99999L557.159 2.99999Z" fill="black"/>
</svg>
